<svg xmlns="http://www.w3.org/2000/svg" width="612" height="792" viewBox="0 0 612 792">
  <defs>
    <style>
      .cls-1 {
        fill: #d5edfa;
      }

      .cls-1, .cls-2 {
        stroke: #1fbae8;
        stroke-miterlimit: 10;
      }

      .cls-2 {
        fill: none;
      }

      .cls-3 {
        fill: #f2f2f2;
      }

      .cls-4 {
        fill: #fff;
      }

      .cls-5 {
        fill: #231f20;
      }
    </style>
  </defs>
  <title>haender</title>
  <g id="Layer_1" data-name="Layer 1">
    <path class="cls-1" d="M80,722s120.56-121.45,96.59-144.44c-48-46-78.82-75.3-89.59-107.56-5.31-15.91-39.46-57.61-43.73-80.27-4-21,18.39-70.93,27.73-89.73,5.59-11.25,5.28-18.05,8.7-20.2,2.06-1.29,5.46-.91,12.3,1.2,4.27,1.31,12-11.72,15.21-17.44.93-1.67,5.41-4.66,7.32-4.52,10.25.72,41.75,12.81,2.62,55.49-10.5,11.46-8.1,6.25-9.19,38.09-.88,25.62,1,21.48,2.84,29.32,1.6,6.89,8.7,5.4,18.2,26.06,8.51,18.51,19.23-17.59,55.22,59,4.87,10.35,37.78-2,37.78-2l-3.55-78.21c.2-2,1.53-9.15,2.23-10.57,6.18-12.53,40.07-49,54.32,24.93,16.16,83.82,17.73,87.39,17.73,87.39s46.79,61.82-1.17,153.46C239.41,741.63,236,722,236,722Z"/>
    <path class="cls-1" d="M370,723s-84.75-150.32-55.22-206.26c36.52-69.2,28.45,1.63,72.12-120.74,12.18-34.14,74.85-37,50.68,30.45C415.91,487,433.38,440.12,476,409c5.45-4,19.89-16.64,34-28,9.36-7.54-2.44-22,8.53-45.71,1.15-2.49-40.93-84.23,15-60.41,4.12,1.75-2.37-60.42,33.27-37.67C579,245,584,337.31,582.51,365.27c-1.53,29.09-11,57.89-32.86,75.23-5.13,4.07-17.35,59.9-75.61,103.32-12.87,9.6-29.44,34.7-26.79,53.59C450.75,622.35,531,722,531,722Z"/>
    <path class="cls-2" d="M213.83,520.51S230.17,487.77,222,465"/>
    <path class="cls-2" d="M405.55,540.93s3.31-49.63,26.83-100.81"/>
    <path class="cls-2" d="M97,465s-61-46.31-26-165"/>
    <path class="cls-2" d="M92,281s13.1-3,17.49,43.26"/>
    <path class="cls-2" d="M516.72,465s88.09-76.72,16.82-190.12"/>
    <path class="cls-2" d="M68.81,307.8s18.65-17.49,10.89-28"/>
    <path class="cls-2" d="M109.49,261.32S118.92,271,97,283"/>
    <path class="cls-2" d="M224.29,370.55s-5.39,38.39,24.27,37.5,20.5-29.1,20.5-29.1"/>
    <path class="cls-2" d="M403.73,376.68s-16,36,1.82,41.33,21.55,7.88,36.63-27.27"/>
    <path class="cls-2" d="M525.18,271.88s11,33.65,20.86,25.82"/>
    <path class="cls-2" d="M564.17,235.64s-3,45.94,13.52,39.24"/>
  </g>
  <g id="Layer_2" data-name="Layer 2">
    <path class="cls-3" d="M180.23,591.12s-9.79-7.36-17.6-3.68,17.6,29.15,17.6,29.15Z"/>
    <path class="cls-3" d="M291.56,642s29.56,26.88,14.44,32.56-29.8-4.09-29.8-4.09Z"/>
    <path class="cls-4" d="M162.63,587.44s26.13,78,143.37,87.12L268.54,722h-197Z"/>
    <path class="cls-4" d="M367.09,723.57s-27.75-47.63-25-51.92,44.16,43,116.07-61l74.41,112.89Z"/>
  </g>
  <g id="Layer_3" data-name="Layer 3">
    <path class="cls-5" d="M35.16,722s35.25-48.31,49.07-67.28c6.63-9.1,12.19-53.22,12.19-53.22s8.61-5.09,83.81,48.12c50.52,35.75,82.23,51.25,108.22,53.36l-8.71,19Z"/>
    <path class="cls-5" d="M367.09,723.57,320,722v-8.75s104.59,12.07,177.8-102.57L566.13,722Z"/>
  </g>
</svg>
