<svg id="Layer_1" data-name="Layer 1" xmlns="http://www.w3.org/2000/svg" width="841.89" height="595.28" viewBox="0 0 841.89 595.28">
  <defs>
    <style>
      .cls-1, .cls-5 {
        fill: #fff;
      }

      .cls-1 {
        stroke: #000;
      }

      .cls-2, .cls-6 {
        font-size: 17.64px;
      }

      .cls-2, .cls-3, .cls-4 {
        fill: red;
      }

      .cls-2, .cls-3, .cls-6, .cls-7 {
        font-family: Georgia, Georgia;
      }

      .cls-3, .cls-7 {
        font-size: 17.64px;
      }
    </style>
  </defs>
  <title>yndlingskort</title>
  <g>
    <rect class="cls-1" x="41.89" y="14.15" width="184.25" height="266.46" rx="10.01" ry="10.01"/>
    <rect class="cls-1" x="233.46" y="14.15" width="184.25" height="266.46" rx="10.01" ry="10.01"/>
    <rect class="cls-1" x="427.11" y="14.15" width="184.25" height="266.46" rx="10.01" ry="10.01"/>
    <rect class="cls-1" x="617.48" y="14.15" width="184.25" height="266.46" rx="10.01" ry="10.01"/>
    <rect class="cls-1" x="41.02" y="297.64" width="184.25" height="266.46" rx="10.01" ry="10.01"/>
    <rect class="cls-1" x="232.6" y="297.64" width="184.25" height="266.46" rx="10.01" ry="10.01"/>
    <rect class="cls-1" x="426.24" y="297.64" width="184.25" height="266.46" rx="10.01" ry="10.01"/>
    <rect class="cls-1" x="616.62" y="297.64" width="184.25" height="266.46" rx="10.01" ry="10.01"/>
  </g>
  <g>
    <text class="cls-2" transform="translate(61.67 40.51)"><tspan xml:space="preserve"> K</tspan></text>
    <text class="cls-3" transform="translate(205.51 254.3) rotate(-179.88)"><tspan xml:space="preserve"> K</tspan></text>
    <path class="cls-4" d="M72.84,45.08a89,89,0,0,1-8.5,11.5,122.4,122.4,0,0,1,8.5,11.51c2.57-3.91,5.41-7.73,8.47-11.51A101,101,0,0,1,72.84,45.08Z"/>
    <path class="cls-4" d="M194,226.6a87.59,87.59,0,0,1-8.51,11.51A122.5,122.5,0,0,1,194,249.62a142,142,0,0,1,8.47-11.51A101.11,101.11,0,0,1,194,226.6Z"/>
  </g>
  <g>
    <text class="cls-2" transform="translate(252.9 40.51)"><tspan xml:space="preserve"> Q</tspan></text>
    <text class="cls-3" transform="translate(396.99 254.3) rotate(-179.88)"><tspan xml:space="preserve"> Q</tspan></text>
    <path class="cls-4" d="M264.06,45.08a89,89,0,0,1-8.5,11.5,122.4,122.4,0,0,1,8.5,11.51,142.12,142.12,0,0,1,8.48-11.51A101.05,101.05,0,0,1,264.06,45.08Z"/>
    <path class="cls-4" d="M385.23,226.6a88.46,88.46,0,0,1-8.5,11.51,122.4,122.4,0,0,1,8.5,11.51,142.12,142.12,0,0,1,8.48-11.51A101.18,101.18,0,0,1,385.23,226.6Z"/>
  </g>
  <g>
    <text class="cls-2" transform="translate(638.91 39.7)"><tspan xml:space="preserve"> A</tspan></text>
    <text class="cls-3" transform="translate(779 253.49) rotate(-179.88)"><tspan xml:space="preserve"> A</tspan></text>
    <path class="cls-4" d="M648.33,44.26a88.5,88.5,0,0,1-8.51,11.51,124.29,124.29,0,0,1,8.51,11.51,139.62,139.62,0,0,1,8.47-11.51A101.11,101.11,0,0,1,648.33,44.26Z"/>
    <path class="cls-4" d="M708.44,102.58c-11,17.38-22.55,33.39-34.86,47.18a504.37,504.37,0,0,1,34.86,47.18,582.78,582.78,0,0,1,34.75-47.18A414.52,414.52,0,0,1,708.44,102.58Z"/>
    <path class="cls-4" d="M769.49,225.79A89.15,89.15,0,0,1,761,237.3a123.57,123.57,0,0,1,8.5,11.5c2.57-3.9,5.41-7.72,8.48-11.5A101.18,101.18,0,0,1,769.49,225.79Z"/>
    <g id="Mobile">
      <g id="iPhone-8-Copy-4">
        <g id="bike_icon" data-name="bike icon">
          <path id="Shape" class="cls-5" d="M709.34,151.88h-2a.63.63,0,0,0-.64.64.59.59,0,0,0,.64.63h2a.64.64,0,0,0,0-1.27Z"/>
          <path id="Shape-2" data-name="Shape" class="cls-5" d="M717.88,144.2a5.56,5.56,0,0,0-2.53.56,17.83,17.83,0,0,1-.39-2.14,1.68,1.68,0,0,0,1.1.4c.87,0,.87-3.17,0-3.17a1.76,1.76,0,0,0-1.34.71v-.31l-.08-.4c-.24-1.9-1.35-4.19-5.46-3.72a.6.6,0,1,0,.08,1.19c3.4-.32,4,1.34,4.11,2.69l.08.4a.7.7,0,0,0,.08.39H704l-.39-.79H704a.87.87,0,1,0,0-1.74H701.5a.87.87,0,0,0,0,1.74h.79v.08l.63,1.34-1.66,3.25a6,6,0,0,0-2.37-.48,6.18,6.18,0,1,0,0,12.35,6.29,6.29,0,0,0,6.17-5.06h2.38a.83.83,0,0,0,.63.16,1.23,1.23,0,0,0,1.19-1.19,1,1,0,0,0-.08-.48l4.59-7c.24.79.31,1.58.55,2.37a6.16,6.16,0,0,0-2.69,5,6.26,6.26,0,1,0,6.25-6.18Zm-14.16-1.34,3.48,7a1.14,1.14,0,0,0-.16.48H705.3a6,6,0,0,0-2.85-5.07Zm-.48,7.44h-3.4l1.66-3.25A4.22,4.22,0,0,1,703.24,150.3ZM699,154.57a4.2,4.2,0,1,1,0-8.39,4.58,4.58,0,0,1,1.5.24l-2.14,4.12a.6.6,0,0,0,.48.87h4.27A4.16,4.16,0,0,1,699,154.57Zm9.34-5.22h0l-3.72-7.28h8.54Zm9.57,5.22a4.24,4.24,0,0,1-4.27-4.19,4.15,4.15,0,0,1,1.27-3,9.28,9.28,0,0,0,2.61,4,.57.57,0,0,0,.79,0,.62.62,0,0,0,0-.87,9.06,9.06,0,0,1-2.37-3.8,4.22,4.22,0,1,1,2,7.91Z"/>
        </g>
      </g>
    </g>
  </g>
  <g>
    <text class="cls-2" transform="translate(63.92 324)"><tspan xml:space="preserve"> 2</tspan></text>
    <text class="cls-3" transform="translate(204.01 537.79) rotate(-179.88)"><tspan xml:space="preserve"> 2</tspan></text>
    <path class="cls-4" d="M73.33,328.56a88.46,88.46,0,0,1-8.5,11.51,122.4,122.4,0,0,1,8.5,11.51,142.12,142.12,0,0,1,8.48-11.51A101.18,101.18,0,0,1,73.33,328.56Z"/>
    <path class="cls-4" d="M194.5,510.09A89.15,89.15,0,0,1,186,521.6a122.4,122.4,0,0,1,8.5,11.51A142.12,142.12,0,0,1,203,521.6,101.18,101.18,0,0,1,194.5,510.09Z"/>
    <g id="Mobile-2" data-name="Mobile">
      <g id="iPhone-8-Copy-4-2" data-name="iPhone-8-Copy-4">
        <g id="bike_icon-2" data-name="bike icon">
          <path id="Shape-3" data-name="Shape" class="cls-4" d="M148.35,425.41h-2a.63.63,0,0,0-.63.64.58.58,0,0,0,.63.63h2a.64.64,0,1,0,0-1.27Z"/>
          <path id="Shape-4" data-name="Shape" class="cls-4" d="M156.9,417.73a5.56,5.56,0,0,0-2.53.56,20.1,20.1,0,0,1-.4-2.14,1.73,1.73,0,0,0,1.11.4c.87,0,.87-3.17,0-3.17a1.8,1.8,0,0,0-1.35.71v-.31l-.07-.4c-.24-1.9-1.35-4.19-5.47-3.72a.6.6,0,0,0,.08,1.19c3.41-.32,4,1.34,4.12,2.69l.08.4a.7.7,0,0,0,.08.39h-9.5l-.4-.79h.4a.87.87,0,0,0,0-1.74h-2.53a.87.87,0,1,0,0,1.74h.79v.08l.63,1.34-1.66,3.25a6,6,0,0,0-2.38-.48,6.18,6.18,0,1,0,0,12.35,6.3,6.3,0,0,0,6.18-5.06h2.37a.86.86,0,0,0,.64.16,1.22,1.22,0,0,0,1.18-1.19,1,1,0,0,0-.08-.48l4.59-7c.24.79.32,1.58.56,2.37a6.16,6.16,0,0,0-2.69,5,6.25,6.25,0,1,0,6.25-6.18Zm-14.17-1.34,3.48,7a1.27,1.27,0,0,0-.15.48h-1.75a6,6,0,0,0-2.84-5.07Zm-.47,7.44h-3.41l1.67-3.25A4.25,4.25,0,0,1,142.26,423.83ZM138,428.1a4.2,4.2,0,1,1,0-8.39,4.6,4.6,0,0,1,1.51.24l-2.14,4.12a.6.6,0,0,0,.47.87h4.28A4.17,4.17,0,0,1,138,428.1Zm9.34-5.22h0l-3.72-7.28h8.55Zm9.58,5.22a4.24,4.24,0,0,1-4.27-4.19,4.18,4.18,0,0,1,1.26-3,9.47,9.47,0,0,0,2.61,4,.58.58,0,0,0,.8,0,.63.63,0,0,0,0-.87,9.18,9.18,0,0,1-2.38-3.8,4.29,4.29,0,0,1,2-.48,4.2,4.2,0,1,1,0,8.39Z"/>
        </g>
      </g>
    </g>
    <g id="Mobile-3" data-name="Mobile">
      <g id="iPhone-8-Copy-4-3" data-name="iPhone-8-Copy-4">
        <g id="bike_icon-3" data-name="bike icon">
          <path id="Shape-5" data-name="Shape" class="cls-4" d="M116.85,460.12h-2a.63.63,0,0,0-.64.63.59.59,0,0,0,.64.64h2a.64.64,0,0,0,0-1.27Z"/>
          <path id="Shape-6" data-name="Shape" class="cls-4" d="M125.4,452.44a5.61,5.61,0,0,0-2.54.56,20.52,20.52,0,0,1-.39-2.14,1.69,1.69,0,0,0,1.11.4c.87,0,.87-3.17,0-3.17a1.78,1.78,0,0,0-1.35.71v-.32l-.08-.39c-.24-1.9-1.35-4.2-5.46-3.72a.6.6,0,1,0,.08,1.19c3.4-.32,4,1.34,4.11,2.69l.08.39a.72.72,0,0,0,.08.4h-9.5l-.39-.79h.39a.87.87,0,0,0,0-1.74H109a.87.87,0,1,0,0,1.74h.79v.08l.64,1.34-1.67,3.25a6,6,0,0,0-2.37-.48,6.18,6.18,0,1,0,0,12.35,6.29,6.29,0,0,0,6.17-5.06H115a.88.88,0,0,0,.63.15,1.22,1.22,0,0,0,1.19-1.18,1,1,0,0,0-.08-.48l4.59-7c.24.79.32,1.58.55,2.37a6.16,6.16,0,0,0-2.69,5,6.26,6.26,0,1,0,6.26-6.18Zm-14.17-1.34,3.48,7a1.14,1.14,0,0,0-.16.48h-1.74a6,6,0,0,0-2.85-5.07Zm-.48,7.44h-3.4l1.66-3.25A4.2,4.2,0,0,1,110.75,458.54Zm-4.27,4.27a4.2,4.2,0,1,1,0-8.39,4.54,4.54,0,0,1,1.5.24l-2.14,4.12a.75.75,0,0,0,0,.55.66.66,0,0,0,.48.32h4.27A4.15,4.15,0,0,1,106.48,462.81Zm9.34-5.22h0l-3.72-7.28h8.55Zm9.58,5.22a4.24,4.24,0,0,1-4.28-4.19,4.19,4.19,0,0,1,1.27-3,9.34,9.34,0,0,0,2.61,4,.59.59,0,1,0,.79-.87,9.06,9.06,0,0,1-2.37-3.8,4.22,4.22,0,1,1,2,7.91Z"/>
        </g>
      </g>
    </g>
  </g>
  <g>
    <text class="cls-2" transform="translate(449.46 324.54)"><tspan xml:space="preserve"> 4</tspan></text>
    <text class="cls-3" transform="translate(589.55 538.34) rotate(-179.88)"><tspan xml:space="preserve"> 4</tspan></text>
    <path class="cls-4" d="M458.87,329.11a88.46,88.46,0,0,1-8.5,11.51,122.4,122.4,0,0,1,8.5,11.51,142.12,142.12,0,0,1,8.48-11.51A101.18,101.18,0,0,1,458.87,329.11Z"/>
    <path class="cls-4" d="M580,510.64a89,89,0,0,1-8.5,11.5,122.4,122.4,0,0,1,8.5,11.51,142,142,0,0,1,8.47-11.51A101,101,0,0,1,580,510.64Z"/>
    <g>
      <g id="Mobile-4" data-name="Mobile">
        <g id="iPhone-8-Copy-4-4" data-name="iPhone-8-Copy-4">
          <g id="bike_icon-4" data-name="bike icon">
            <path id="Shape-7" data-name="Shape" class="cls-4" d="M519.4,470h-2a.63.63,0,0,0-.64.64.59.59,0,0,0,.64.63h2a.64.64,0,1,0,0-1.27Z"/>
            <path id="Shape-8" data-name="Shape" class="cls-4" d="M528,462.3a5.55,5.55,0,0,0-2.53.55,17.83,17.83,0,0,1-.39-2.14,1.68,1.68,0,0,0,1.1.4c.87,0,.87-3.17,0-3.17a1.76,1.76,0,0,0-1.34.71v-.31l-.08-.4c-.24-1.9-1.35-4.19-5.46-3.72a.6.6,0,1,0,.08,1.19c3.4-.32,3.95,1.34,4.11,2.69l.08.4a.7.7,0,0,0,.08.39h-9.5l-.39-.79h.39a.87.87,0,1,0,0-1.74h-2.53a.87.87,0,1,0,0,1.74h.79v.08l.63,1.35-1.66,3.24a6,6,0,0,0-2.37-.47,6.17,6.17,0,1,0,0,12.34,6.29,6.29,0,0,0,6.17-5.06h2.38a.83.83,0,0,0,.63.16,1.23,1.23,0,0,0,1.19-1.19,1,1,0,0,0-.08-.48l4.59-7c.24.79.31,1.58.55,2.37a6.16,6.16,0,0,0-2.69,5A6.26,6.26,0,1,0,528,462.3ZM513.78,461l3.49,7.05a1.05,1.05,0,0,0-.16.47h-1.74a6,6,0,0,0-2.85-5.07Zm-.47,7.44h-3.4l1.66-3.24A4.19,4.19,0,0,1,513.31,468.39ZM509,472.67a4.2,4.2,0,1,1,0-8.4,4.58,4.58,0,0,1,1.5.24l-2.14,4.12a.6.6,0,0,0,.48.87h4.27A4.16,4.16,0,0,1,509,472.67Zm9.34-5.23h0l-3.72-7.28h8.54Zm9.57,5.23a4.24,4.24,0,0,1-4.27-4.2,4.15,4.15,0,0,1,1.27-3,9.28,9.28,0,0,0,2.61,4,.57.57,0,0,0,.79,0,.62.62,0,0,0,0-.87,9.18,9.18,0,0,1-2.38-3.8,4.29,4.29,0,0,1,2-.48,4.2,4.2,0,1,1,0,8.4Z"/>
          </g>
        </g>
      </g>
      <g id="Mobile-5" data-name="Mobile">
        <g id="iPhone-8-Copy-4-5" data-name="iPhone-8-Copy-4">
          <g id="bike_icon-5" data-name="bike icon">
            <path id="Shape-9" data-name="Shape" class="cls-4" d="M490.27,438.83h-2a.63.63,0,0,0-.63.64.58.58,0,0,0,.63.63h2a.64.64,0,1,0,0-1.27Z"/>
            <path id="Shape-10" data-name="Shape" class="cls-4" d="M498.82,431.16a5.55,5.55,0,0,0-2.53.55,19.65,19.65,0,0,1-.4-2.14,1.73,1.73,0,0,0,1.11.4c.87,0,.87-3.17,0-3.17a1.76,1.76,0,0,0-1.34.71v-.31l-.08-.4c-.24-1.9-1.35-4.19-5.46-3.72a.6.6,0,1,0,.07,1.19c3.41-.32,4,1.34,4.12,2.69l.08.4a.7.7,0,0,0,.08.39H485l-.4-.79h.4a.87.87,0,0,0,0-1.74h-2.53a.87.87,0,0,0,0,1.74h.79V427l.63,1.35-1.66,3.24a6,6,0,0,0-2.37-.47,6.17,6.17,0,1,0,0,12.34,6.29,6.29,0,0,0,6.17-5.06h2.37a.86.86,0,0,0,.64.16,1.22,1.22,0,0,0,1.18-1.19,1.15,1.15,0,0,0-.07-.48l4.59-7c.23.79.31,1.58.55,2.37a6.16,6.16,0,0,0-2.69,5,6.26,6.26,0,1,0,6.25-6.17Zm-14.17-1.35,3.49,7.05a1.05,1.05,0,0,0-.16.47h-1.74a6,6,0,0,0-2.85-5.07Zm-.47,7.44h-3.41l1.67-3.24A4.19,4.19,0,0,1,484.18,437.25Zm-4.28,4.28a4.2,4.2,0,1,1,0-8.4,4.6,4.6,0,0,1,1.51.24l-2.14,4.12a.6.6,0,0,0,.48.87H484A4.17,4.17,0,0,1,479.9,441.53Zm9.34-5.23h0L485.52,429h8.55Zm9.58,5.23a4.24,4.24,0,0,1-4.27-4.2,4.18,4.18,0,0,1,1.26-3,9.4,9.4,0,0,0,2.62,4,.58.58,0,0,0,.39.16.6.6,0,0,0,.4-1,9.18,9.18,0,0,1-2.38-3.8,4.29,4.29,0,0,1,2-.48,4.2,4.2,0,1,1,0,8.4Z"/>
          </g>
        </g>
      </g>
      <g id="Mobile-6" data-name="Mobile">
        <g id="iPhone-8-Copy-4-6" data-name="iPhone-8-Copy-4">
          <g id="bike_icon-6" data-name="bike icon">
            <path id="Shape-11" data-name="Shape" class="cls-4" d="M549.49,440.21h-2a.63.63,0,0,0-.64.63.59.59,0,0,0,.64.64h2a.64.64,0,0,0,0-1.27Z"/>
            <path id="Shape-12" data-name="Shape" class="cls-4" d="M558,432.53a5.56,5.56,0,0,0-2.53.56,20.52,20.52,0,0,1-.39-2.14,1.68,1.68,0,0,0,1.1.4c.87,0,.87-3.17,0-3.17a1.78,1.78,0,0,0-1.34.71v-.31l-.08-.4c-.24-1.9-1.35-4.2-5.46-3.72a.6.6,0,1,0,.08,1.19c3.4-.32,4,1.34,4.11,2.69l.08.39a.72.72,0,0,0,.08.4h-9.5l-.39-.79h.39a.87.87,0,0,0,0-1.74h-2.53a.87.87,0,1,0,0,1.74h.79v.08l.63,1.34L541.41,433a6,6,0,0,0-2.37-.48,6.18,6.18,0,1,0,0,12.35,6.29,6.29,0,0,0,6.17-5.06h2.38a.87.87,0,0,0,.63.15,1.22,1.22,0,0,0,1.19-1.18,1,1,0,0,0-.08-.48l4.59-7c.24.79.32,1.58.55,2.37a6.16,6.16,0,0,0-2.69,5,6.26,6.26,0,1,0,6.25-6.18Zm-14.16-1.34,3.48,7a1.14,1.14,0,0,0-.16.48h-1.74a6,6,0,0,0-2.85-5.07Zm-.48,7.44H540l1.66-3.25A4.2,4.2,0,0,1,543.39,438.63Zm-4.27,4.27a4.2,4.2,0,1,1,0-8.39,4.54,4.54,0,0,1,1.5.24l-2.14,4.12a.6.6,0,0,0,.48.87h4.27A4.15,4.15,0,0,1,539.12,442.9Zm9.34-5.22h0l-3.72-7.28h8.55ZM558,442.9a4.24,4.24,0,0,1-4.27-4.19,4.19,4.19,0,0,1,1.27-3,9.34,9.34,0,0,0,2.61,4,.57.57,0,0,0,.79,0,.62.62,0,0,0,0-.87,9.06,9.06,0,0,1-2.37-3.8,4.22,4.22,0,1,1,2,7.91Z"/>
          </g>
        </g>
      </g>
      <g id="Mobile-7" data-name="Mobile">
        <g id="iPhone-8-Copy-4-7" data-name="iPhone-8-Copy-4">
          <g id="bike_icon-7" data-name="bike icon">
            <path id="Shape-13" data-name="Shape" class="cls-4" d="M518.3,410.39h-2a.63.63,0,0,0-.64.63.59.59,0,0,0,.64.64h2a.64.64,0,0,0,0-1.27Z"/>
            <path id="Shape-14" data-name="Shape" class="cls-4" d="M526.85,402.71a5.58,5.58,0,0,0-2.54.56,20.52,20.52,0,0,1-.39-2.14,1.68,1.68,0,0,0,1.11.39c.87,0,.87-3.16,0-3.16a1.75,1.75,0,0,0-1.35.71v-.32l-.08-.39c-.24-1.9-1.35-4.2-5.46-3.72a.61.61,0,0,0-.56.63.62.62,0,0,0,.64.56c3.4-.32,4,1.34,4.11,2.69l.08.39a.72.72,0,0,0,.08.4H513l-.39-.79H513a.87.87,0,0,0,0-1.74h-2.53a.87.87,0,1,0,0,1.74h.79v.08l.63,1.34-1.66,3.25a6,6,0,0,0-2.37-.48,6.18,6.18,0,1,0,0,12.35A6.3,6.3,0,0,0,514,410h2.38a.84.84,0,0,0,.63.16,1.22,1.22,0,0,0,1.19-1.18,1,1,0,0,0-.08-.48l4.59-7c.24.8.32,1.59.55,2.38a6.16,6.16,0,0,0-2.69,5,6.26,6.26,0,1,0,6.26-6.18Zm-14.17-1.34,3.48,7a1.14,1.14,0,0,0-.16.48h-1.74a6,6,0,0,0-2.85-5.07Zm-.48,7.44h-3.4l1.66-3.25A4.2,4.2,0,0,1,512.2,408.81Zm-4.27,4.27a4.2,4.2,0,1,1,0-8.39,4.54,4.54,0,0,1,1.5.24L507.29,409a.68.68,0,0,0,0,.56.66.66,0,0,0,.48.32H512A4.15,4.15,0,0,1,507.93,413.08Zm9.34-5.22h0l-3.72-7.29h8.55Zm9.58,5.22a4.24,4.24,0,0,1-4.28-4.19,4.19,4.19,0,0,1,1.27-3,9.34,9.34,0,0,0,2.61,4,.61.61,0,0,0,.4.15.6.6,0,0,0,.39-.15.62.62,0,0,0,0-.87,9.06,9.06,0,0,1-2.37-3.8,4.22,4.22,0,1,1,2,7.91Z"/>
          </g>
        </g>
      </g>
    </g>
  </g>
  <g>
    <text class="cls-2" transform="translate(253.02 322.73)"><tspan xml:space="preserve"> 3</tspan></text>
    <text class="cls-3" transform="translate(393.12 536.53) rotate(-179.88)"><tspan xml:space="preserve"> 3</tspan></text>
    <path class="cls-4" d="M262.44,327.3a89.15,89.15,0,0,1-8.5,11.51,122.26,122.26,0,0,1,8.5,11.5c2.56-3.9,5.41-7.72,8.47-11.5A101.11,101.11,0,0,1,262.44,327.3Z"/>
    <path class="cls-4" d="M383.61,508.82a87.59,87.59,0,0,1-8.51,11.51,124.29,124.29,0,0,1,8.51,11.51,142,142,0,0,1,8.47-11.51A101.11,101.11,0,0,1,383.61,508.82Z"/>
    <g>
      <g id="Mobile-8" data-name="Mobile">
        <g id="iPhone-8-Copy-4-8" data-name="iPhone-8-Copy-4">
          <g id="bike_icon-8" data-name="bike icon">
            <path id="Shape-15" data-name="Shape" class="cls-4" d="M323.45,400h-2a.61.61,0,0,0-.63.63.57.57,0,0,0,.63.63h2a.63.63,0,1,0,0-1.26Z"/>
            <path id="Shape-16" data-name="Shape" class="cls-4" d="M332,392.35a5.76,5.76,0,0,0-2.54.55c-.15-.71-.31-1.42-.39-2.13a1.73,1.73,0,0,0,1.11.39c.87,0,.87-3.17,0-3.17a1.76,1.76,0,0,0-1.35.72v-.32l-.08-.4c-.24-1.9-1.34-4.19-5.46-3.72a.6.6,0,0,0,.08,1.19c3.4-.32,4,1.35,4.11,2.69l.08.4a.67.67,0,0,0,.08.39h-9.5l-.39-.79h.39a.87.87,0,1,0,0-1.74h-2.53a.87.87,0,1,0,0,1.74h.79v.08l.64,1.35-1.67,3.24a6.24,6.24,0,0,0-8.62,5.7,6.27,6.27,0,0,0,12.42,1.11h2.38a.84.84,0,0,0,.63.16,1.23,1.23,0,0,0,1.19-1.19,1,1,0,0,0-.08-.47l4.59-7c.24.79.32,1.58.55,2.38a6.13,6.13,0,0,0-2.69,5,6.26,6.26,0,1,0,6.26-6.17ZM317.83,391l3.48,7.05a1.1,1.1,0,0,0-.16.47h-1.74a5.94,5.94,0,0,0-2.85-5.06Zm-.48,7.44H314l1.66-3.24A4.2,4.2,0,0,1,317.35,398.44Zm-4.27,4.28a4.2,4.2,0,1,1,0-8.39,4.81,4.81,0,0,1,1.5.23l-2.13,4.12a.66.66,0,0,0,0,.55.62.62,0,0,0,.47.32h4.27A4.16,4.16,0,0,1,313.08,402.72Zm9.34-5.23h0l-3.72-7.28h8.55Zm9.58,5.23a4.2,4.2,0,0,1-3-7.21,9.28,9.28,0,0,0,2.61,4,.61.61,0,0,0,.4.16.58.58,0,0,0,.39-.16.62.62,0,0,0,0-.87,9,9,0,0,1-2.37-3.8,4.34,4.34,0,0,1,2-.47,4.2,4.2,0,1,1,0,8.39Z"/>
          </g>
        </g>
      </g>
      <g id="Mobile-9" data-name="Mobile">
        <g id="iPhone-8-Copy-4-9" data-name="iPhone-8-Copy-4">
          <g id="bike_icon-9" data-name="bike icon">
            <path id="Shape-17" data-name="Shape" class="cls-4" d="M323.45,438.37h-2a.62.62,0,0,0-.63.63.58.58,0,0,0,.63.64h2a.64.64,0,0,0,0-1.27Z"/>
            <path id="Shape-18" data-name="Shape" class="cls-4" d="M332,430.69a5.63,5.63,0,0,0-2.54.56c-.15-.72-.31-1.43-.39-2.14a1.68,1.68,0,0,0,1.11.39c.87,0,.87-3.16,0-3.16a1.75,1.75,0,0,0-1.35.71v-.32l-.08-.39c-.24-1.9-1.34-4.2-5.46-3.72a.6.6,0,0,0-.55.63.61.61,0,0,0,.63.56c3.4-.32,4,1.34,4.11,2.69l.08.39a.72.72,0,0,0,.08.4h-9.5l-.39-.79h.39a.87.87,0,1,0,0-1.74h-2.53a.87.87,0,0,0,0,1.74h.79v.08l.64,1.34-1.67,3.25a6,6,0,0,0-2.37-.48A6.18,6.18,0,1,0,313,443a6.29,6.29,0,0,0,6.17-5.07h2.38a.84.84,0,0,0,.63.16,1.22,1.22,0,0,0,1.19-1.18,1,1,0,0,0-.08-.48l4.59-7c.24.8.32,1.59.55,2.38a6.16,6.16,0,0,0-2.69,5,6.26,6.26,0,1,0,6.26-6.18Zm-14.17-1.34,3.48,7a1.14,1.14,0,0,0-.16.48h-1.74a6,6,0,0,0-2.85-5.07Zm-.48,7.44H314l1.66-3.25A4.2,4.2,0,0,1,317.35,436.79Zm-4.27,4.27a4.2,4.2,0,1,1,0-8.39,4.54,4.54,0,0,1,1.5.24L312.45,437a.68.68,0,0,0,0,.56.62.62,0,0,0,.47.32h4.27A4.16,4.16,0,0,1,313.08,441.06Zm9.34-5.22h0l-3.72-7.29h8.55Zm9.58,5.22a4.24,4.24,0,0,1-4.28-4.19,4.19,4.19,0,0,1,1.27-3,9.34,9.34,0,0,0,2.61,4,.61.61,0,0,0,.4.15.58.58,0,0,0,.39-.15.62.62,0,0,0,0-.87,9.06,9.06,0,0,1-2.37-3.8,4.22,4.22,0,1,1,2,7.91Z"/>
          </g>
        </g>
      </g>
      <g id="Mobile-10" data-name="Mobile">
        <g id="iPhone-8-Copy-4-10" data-name="iPhone-8-Copy-4">
          <g id="bike_icon-10" data-name="bike icon">
            <path id="Shape-19" data-name="Shape" class="cls-4" d="M323.45,476.71h-2a.62.62,0,0,0-.63.64.58.58,0,0,0,.63.63h2a.64.64,0,0,0,0-1.27Z"/>
            <path id="Shape-20" data-name="Shape" class="cls-4" d="M332,469a5.62,5.62,0,0,0-2.54.55c-.15-.71-.31-1.43-.39-2.14a1.69,1.69,0,0,0,1.11.4c.87,0,.87-3.17,0-3.17a1.78,1.78,0,0,0-1.35.71v-.31l-.08-.4c-.24-1.9-1.34-4.19-5.46-3.72a.6.6,0,0,0,.08,1.19c3.4-.32,4,1.34,4.11,2.69l.08.4a.7.7,0,0,0,.08.39h-9.5l-.39-.79h.39a.87.87,0,1,0,0-1.74h-2.53a.87.87,0,1,0,0,1.74h.79v.08l.64,1.35-1.67,3.24A6,6,0,0,0,313,469a6.17,6.17,0,1,0,0,12.34,6.28,6.28,0,0,0,6.17-5.06h2.38a.84.84,0,0,0,.63.16,1.23,1.23,0,0,0,1.19-1.19,1,1,0,0,0-.08-.48l4.59-7c.24.79.32,1.58.55,2.37a6.16,6.16,0,0,0-2.69,5A6.26,6.26,0,1,0,332,469Zm-14.17-1.35,3.48,7a1.14,1.14,0,0,0-.16.48h-1.74a6,6,0,0,0-2.85-5.07Zm-.48,7.44H314l1.66-3.24A4.19,4.19,0,0,1,317.35,475.13Zm-4.27,4.28a4.2,4.2,0,1,1,0-8.4,4.54,4.54,0,0,1,1.5.24l-2.13,4.12a.66.66,0,0,0,0,.55.62.62,0,0,0,.47.32h4.27A4.16,4.16,0,0,1,313.08,479.41Zm9.34-5.23h0l-3.72-7.28h8.55Zm9.58,5.23a4.24,4.24,0,0,1-4.28-4.2,4.19,4.19,0,0,1,1.27-3,9.28,9.28,0,0,0,2.61,4,.61.61,0,0,0,.4.16.58.58,0,0,0,.39-.16.62.62,0,0,0,0-.87,9.06,9.06,0,0,1-2.37-3.8,4.22,4.22,0,1,1,2,7.92Z"/>
          </g>
        </g>
      </g>
    </g>
  </g>
  <g>
    <path class="cls-4" d="M457.63,45.13a88.46,88.46,0,0,1-8.5,11.51,122.4,122.4,0,0,1,8.5,11.51,142.12,142.12,0,0,1,8.48-11.51A101.18,101.18,0,0,1,457.63,45.13Z"/>
    <path class="cls-4" d="M578.8,226.66a88.46,88.46,0,0,1-8.5,11.51,122.4,122.4,0,0,1,8.5,11.51,142.12,142.12,0,0,1,8.48-11.51A101.18,101.18,0,0,1,578.8,226.66Z"/>
    <text class="cls-2" transform="translate(448.22 40.57)"><tspan xml:space="preserve"> J</tspan></text>
    <text class="cls-3" transform="translate(588.31 254.36) rotate(-179.88)"><tspan xml:space="preserve"> J</tspan></text>
  </g>
  <g>
    <text class="cls-6" transform="translate(635.04 323.63)"><tspan class="cls-4"> </tspan><tspan x="4.26" y="0">10</tspan></text>
    <text class="cls-7" transform="translate(780.88 537.43) rotate(-179.88)"><tspan class="cls-4"> </tspan><tspan x="4.26" y="0">10</tspan></text>
    <path d="M647.43,328.2a85.86,85.86,0,0,1-7.66,9.17s-2.23,2.66-2.12,5.38c0,0,.06,3.47,4.23,4.19a7.05,7.05,0,0,0,4.74-1.07s.35,1.3-2.34,5.35h6.53s-2.63-3.59-2.57-5.32a7.4,7.4,0,0,0,3.53,1s5.06.18,5.14-5c0,0,.17-2.38-2.53-5.34C654.38,336.54,648.4,329.74,647.43,328.2Z"/>
    <path d="M768.24,532.74a84.67,84.67,0,0,1,7.65-9.17s2.22-2.67,2.1-5.39c0,0-.06-3.47-4.23-4.18a7,7,0,0,0-4.74,1.08s-.35-1.31,2.34-5.36h-6.54s2.64,3.58,2.58,5.32a7.45,7.45,0,0,0-3.53-.95s-5.06-.17-5.14,5c0,0-.16,2.38,2.54,5.34C761.27,524.42,767.26,531.21,768.24,532.74Z"/>
    <g id="Page-1">
      <g id="Atoms">
        <g id="Group-6-Copy">
          <g id="Group-5">
            <path id="Combined-Shape" d="M682.86,375.29H686v.61h0a2.2,2.2,0,0,1-2.19,2.2h-24.4a2.2,2.2,0,0,1-2.2-2.2v-.61h3.06V361.2h0a.87.87,0,0,1,.87-.87H682a.87.87,0,0,1,.88.87Zm-21.56-13v13h20.54v-13Z"/>
          </g>
          <path id="Rectangle-6" d="M667.09,364.12h0a.44.44,0,0,1,0,.62l-3.73,3.72a.42.42,0,0,1-.62,0h0a.44.44,0,0,1,0-.62l3.73-3.72A.44.44,0,0,1,667.09,364.12Z"/>
          <path id="Rectangle-6-Copy" d="M664.68,363.67h0a.44.44,0,0,1,0,.62l-1.55,1.55a.44.44,0,0,1-.62,0h0a.44.44,0,0,1,0-.62l1.55-1.55A.44.44,0,0,1,664.68,363.67Z"/>
        </g>
      </g>
    </g>
    <g id="Page-1-2" data-name="Page-1">
      <g id="Atoms-2" data-name="Atoms">
        <g id="Group-6-Copy-2" data-name="Group-6-Copy">
          <g id="Group-5-2" data-name="Group-5">
            <path id="Combined-Shape-2" data-name="Combined-Shape" d="M718.52,400.11h3.09v.62h0a2.2,2.2,0,0,1-2.2,2.19H695a2.19,2.19,0,0,1-2.19-2.19v-.62h3V386h0a.88.88,0,0,1,.88-.88h20.89a.89.89,0,0,1,.88.88Zm-21.56-13v13H717.5v-13Z"/>
          </g>
          <path id="Rectangle-6-2" data-name="Rectangle-6" d="M702.74,389h0a.44.44,0,0,1,0,.62L699,393.29a.44.44,0,0,1-.62,0h0a.42.42,0,0,1,0-.62l3.72-3.72A.42.42,0,0,1,702.74,389Z"/>
          <path id="Rectangle-6-Copy-2" data-name="Rectangle-6-Copy" d="M700.34,388.5h0a.44.44,0,0,1,0,.62l-1.55,1.55a.45.45,0,0,1-.63,0h0a.44.44,0,0,1,0-.62l1.56-1.55A.42.42,0,0,1,700.34,388.5Z"/>
        </g>
      </g>
    </g>
    <g id="Page-1-3" data-name="Page-1">
      <g id="Atoms-3" data-name="Atoms">
        <g id="Group-6-Copy-3" data-name="Group-6-Copy">
          <g id="Group-5-3" data-name="Group-5">
            <path id="Combined-Shape-3" data-name="Combined-Shape" d="M753.38,374.94h3.09v.62h0a2.19,2.19,0,0,1-2.19,2.19h-24.4a2.19,2.19,0,0,1-2.2-2.19v-.62h3.06V360.86h0a.88.88,0,0,1,.87-.88H752.5a.88.88,0,0,1,.88.88Zm-21.56-13v13h20.54V362Z"/>
          </g>
          <path id="Rectangle-6-3" data-name="Rectangle-6" d="M737.61,363.78h0a.44.44,0,0,1,0,.62l-3.73,3.72a.44.44,0,0,1-.62,0h0a.44.44,0,0,1,0-.62l3.73-3.72A.42.42,0,0,1,737.61,363.78Z"/>
          <path id="Rectangle-6-Copy-3" data-name="Rectangle-6-Copy" d="M735.2,363.33h0a.44.44,0,0,1,0,.62l-1.55,1.55a.44.44,0,0,1-.62,0h0a.44.44,0,0,1,0-.62l1.55-1.55A.42.42,0,0,1,735.2,363.33Z"/>
        </g>
      </g>
    </g>
    <g id="Page-1-4" data-name="Page-1">
      <g id="Atoms-4" data-name="Atoms">
        <g id="Group-6-Copy-4" data-name="Group-6-Copy">
          <g id="Group-5-4" data-name="Group-5">
            <path id="Combined-Shape-4" data-name="Combined-Shape" d="M683.26,422.37h3.09V423h0a2.21,2.21,0,0,1-2.2,2.2h-24.4a2.2,2.2,0,0,1-2.19-2.2v-.61h3.05V408.29h0a.87.87,0,0,1,.88-.88h20.89a.88.88,0,0,1,.88.88Zm-21.56-13v13h20.54v-13Z"/>
          </g>
          <path id="Rectangle-6-4" data-name="Rectangle-6" d="M667.48,411.2h0a.44.44,0,0,1,0,.62l-3.72,3.72a.44.44,0,0,1-.63,0h0a.44.44,0,0,1,0-.62l3.73-3.72A.44.44,0,0,1,667.48,411.2Z"/>
          <path id="Rectangle-6-Copy-4" data-name="Rectangle-6-Copy" d="M665.08,410.75h0a.44.44,0,0,1,0,.62l-1.55,1.55a.45.45,0,0,1-.63,0h0a.44.44,0,0,1,0-.62l1.56-1.55A.44.44,0,0,1,665.08,410.75Z"/>
        </g>
      </g>
    </g>
    <g id="Page-1-5" data-name="Page-1">
      <g id="Atoms-5" data-name="Atoms">
        <g id="Group-6-Copy-5" data-name="Group-6-Copy">
          <g id="Group-5-5" data-name="Group-5">
            <path id="Combined-Shape-5" data-name="Combined-Shape" d="M753.78,422h3.09v.62h0a2.2,2.2,0,0,1-2.2,2.19h-24.4a2.19,2.19,0,0,1-2.19-2.19V422h3V407.94h0a.88.88,0,0,1,.88-.88H752.9a.89.89,0,0,1,.88.88Zm-21.56-13v13h20.54V409Z"/>
          </g>
          <path id="Rectangle-6-5" data-name="Rectangle-6" d="M738,410.86h0a.44.44,0,0,1,0,.62l-3.72,3.72a.44.44,0,0,1-.62,0h0a.42.42,0,0,1,0-.62l3.72-3.72A.42.42,0,0,1,738,410.86Z"/>
          <path id="Rectangle-6-Copy-5" data-name="Rectangle-6-Copy" d="M735.6,410.41h0a.44.44,0,0,1,0,.62l-1.55,1.55a.45.45,0,0,1-.63,0h0a.44.44,0,0,1,0-.62l1.56-1.55A.42.42,0,0,1,735.6,410.41Z"/>
        </g>
      </g>
    </g>
    <g id="Page-1-6" data-name="Page-1">
      <g id="Atoms-6" data-name="Atoms">
        <g id="Group-6-Copy-6" data-name="Group-6-Copy">
          <g id="Group-5-6" data-name="Group-5">
            <path id="Combined-Shape-6" data-name="Combined-Shape" d="M683.06,461.67h3.09v.61h0a2.2,2.2,0,0,1-2.2,2.2h-24.4a2.2,2.2,0,0,1-2.19-2.2v-.61h3V447.58h0a.88.88,0,0,1,.88-.87h20.89a.87.87,0,0,1,.88.87Zm-21.56-13v13H682v-13Z"/>
          </g>
          <path id="Rectangle-6-6" data-name="Rectangle-6" d="M667.28,450.5h0a.42.42,0,0,1,0,.62l-3.72,3.72a.42.42,0,0,1-.62,0h0a.44.44,0,0,1,0-.62l3.72-3.72A.44.44,0,0,1,667.28,450.5Z"/>
          <path id="Rectangle-6-Copy-6" data-name="Rectangle-6-Copy" d="M664.88,450.05h0a.44.44,0,0,1,0,.62l-1.55,1.55a.44.44,0,0,1-.62,0h0a.44.44,0,0,1,0-.62l1.55-1.55A.44.44,0,0,1,664.88,450.05Z"/>
        </g>
      </g>
    </g>
    <g id="Page-1-7" data-name="Page-1">
      <g id="Atoms-7" data-name="Atoms">
        <g id="Group-6-Copy-7" data-name="Group-6-Copy">
          <g id="Group-5-7" data-name="Group-5">
            <path id="Combined-Shape-7" data-name="Combined-Shape" d="M718.71,486.49h3.09v.62h0a2.19,2.19,0,0,1-2.19,2.19h-24.4a2.2,2.2,0,0,1-2.2-2.19v-.62h3.06V472.41h0a.88.88,0,0,1,.88-.88h20.89a.88.88,0,0,1,.87.88Zm-21.55-13v13H717.7v-13Z"/>
          </g>
          <path id="Rectangle-6-7" data-name="Rectangle-6" d="M702.94,475.33h0a.44.44,0,0,1,0,.62l-3.73,3.72a.44.44,0,0,1-.62,0h0a.44.44,0,0,1,0-.62l3.73-3.72A.42.42,0,0,1,702.94,475.33Z"/>
          <path id="Rectangle-6-Copy-7" data-name="Rectangle-6-Copy" d="M700.53,474.88h0a.42.42,0,0,1,0,.62L699,477.05a.44.44,0,0,1-.62,0h0a.44.44,0,0,1,0-.62l1.55-1.55A.42.42,0,0,1,700.53,474.88Z"/>
        </g>
      </g>
    </g>
    <g id="Page-1-8" data-name="Page-1">
      <g id="Atoms-8" data-name="Atoms">
        <g id="Group-6-Copy-8" data-name="Group-6-Copy">
          <g id="Group-5-8" data-name="Group-5">
            <path id="Combined-Shape-8" data-name="Combined-Shape" d="M753.58,461.32h3.09v.62h0a2.19,2.19,0,0,1-2.2,2.19h-24.4a2.19,2.19,0,0,1-2.19-2.19v-.62h3V447.24h0a.89.89,0,0,1,.88-.88H752.7a.88.88,0,0,1,.88.88Zm-21.56-13v13h20.54v-13Z"/>
          </g>
          <path id="Rectangle-6-8" data-name="Rectangle-6" d="M737.8,450.15h0a.43.43,0,0,1,0,.63l-3.72,3.72a.44.44,0,0,1-.62,0h0a.44.44,0,0,1,0-.62l3.72-3.73A.44.44,0,0,1,737.8,450.15Z"/>
          <path id="Rectangle-6-Copy-8" data-name="Rectangle-6-Copy" d="M735.4,449.7h0a.45.45,0,0,1,0,.63l-1.55,1.55a.44.44,0,0,1-.62,0h0a.44.44,0,0,1,0-.62l1.55-1.56A.44.44,0,0,1,735.4,449.7Z"/>
        </g>
      </g>
    </g>
    <g id="Page-1-9" data-name="Page-1">
      <g id="Atoms-9" data-name="Atoms">
        <g id="Group-6-Copy-9" data-name="Group-6-Copy">
          <g id="Group-5-9" data-name="Group-5">
            <path id="Combined-Shape-9" data-name="Combined-Shape" d="M683.45,508.75h3.09v.61h0a2.2,2.2,0,0,1-2.19,2.2H660a2.21,2.21,0,0,1-2.2-2.2v-.61h3.06V494.67h0a.87.87,0,0,1,.88-.88h20.89a.87.87,0,0,1,.87.88Zm-21.55-13v13h20.54v-13Z"/>
          </g>
          <path id="Rectangle-6-9" data-name="Rectangle-6" d="M667.68,497.58h0a.44.44,0,0,1,0,.62L664,501.92a.42.42,0,0,1-.62,0h0a.44.44,0,0,1,0-.62l3.73-3.72A.44.44,0,0,1,667.68,497.58Z"/>
          <path id="Rectangle-6-Copy-9" data-name="Rectangle-6-Copy" d="M665.27,497.13h0a.42.42,0,0,1,0,.62l-1.55,1.55a.44.44,0,0,1-.62,0h0a.44.44,0,0,1,0-.62l1.55-1.55A.44.44,0,0,1,665.27,497.13Z"/>
        </g>
      </g>
    </g>
    <g id="Page-1-10" data-name="Page-1">
      <g id="Atoms-10" data-name="Atoms">
        <g id="Group-6-Copy-10" data-name="Group-6-Copy">
          <g id="Group-5-10" data-name="Group-5">
            <path id="Combined-Shape-10" data-name="Combined-Shape" d="M754,508.4h3.09V509h0a2.19,2.19,0,0,1-2.19,2.19h-24.4a2.2,2.2,0,0,1-2.2-2.19v-.62h3.06V494.32h0a.88.88,0,0,1,.88-.88H753.1a.88.88,0,0,1,.87.88Zm-21.55-13v13H753v-13Z"/>
          </g>
          <path id="Rectangle-6-10" data-name="Rectangle-6" d="M738.2,497.24h0a.44.44,0,0,1,0,.62l-3.73,3.72a.44.44,0,0,1-.62,0h0a.44.44,0,0,1,0-.62l3.73-3.72A.42.42,0,0,1,738.2,497.24Z"/>
          <path id="Rectangle-6-Copy-10" data-name="Rectangle-6-Copy" d="M735.79,496.79h0a.42.42,0,0,1,0,.62L734.24,499a.44.44,0,0,1-.62,0h0a.44.44,0,0,1,0-.62l1.55-1.55A.42.42,0,0,1,735.79,496.79Z"/>
        </g>
      </g>
    </g>
  </g>
</svg>
