<svg id="Layer_1" data-name="Layer 1" xmlns="http://www.w3.org/2000/svg" width="841.89" height="595.28" viewBox="0 0 841.89 595.28">
  <defs>
    <style>
      .cls-1 {
        fill: #fff;
        stroke: #000;
      }

      .cls-2, .cls-3, .cls-4 {
        fill: red;
      }

      .cls-3 {
        font-size: 17.64px;
      }

      .cls-3, .cls-4 {
        font-family: Georgia, Georgia;
      }

      .cls-4 {
        font-size: 17.64px;
      }
    </style>
  </defs>
  <title>yndlingskort</title>
  <g>
    <rect class="cls-1" x="41.89" y="14.15" width="184.25" height="266.46" rx="10.01" ry="10.01"/>
    <rect class="cls-1" x="233.46" y="14.15" width="184.25" height="266.46" rx="10.01" ry="10.01"/>
    <rect class="cls-1" x="427.11" y="14.15" width="184.25" height="266.46" rx="10.01" ry="10.01"/>
    <rect class="cls-1" x="617.48" y="14.15" width="184.25" height="266.46" rx="10.01" ry="10.01"/>
    <rect class="cls-1" x="41.02" y="297.64" width="184.25" height="266.46" rx="10.01" ry="10.01"/>
    <rect class="cls-1" x="232.6" y="297.64" width="184.25" height="266.46" rx="10.01" ry="10.01"/>
    <rect class="cls-1" x="426.24" y="297.64" width="184.25" height="266.46" rx="10.01" ry="10.01"/>
    <rect class="cls-1" x="616.62" y="297.64" width="184.25" height="266.46" rx="10.01" ry="10.01"/>
  </g>
  <g>
    <g id="Mobile">
      <g id="iPhone-8-Copy-4">
        <g id="Group-4">
          <g id="Group">
            <path id="Combined-Shape" class="cls-2" d="M127.61,176.16h13.73a2.28,2.28,0,0,1,2.29,2.29v29a2.28,2.28,0,0,1-2.29,2.28H127.61a2.29,2.29,0,0,1-2.29-2.28v-29h0a2.29,2.29,0,0,1,2.29-2.29Zm-.57,4.58v22.31h14.88V180.74Zm7.55-1.39a.86.86,0,1,0,0-1.72.86.86,0,1,0,0,1.72Zm-1.83,26.56a.58.58,0,0,0,0,1.15h3.43a.58.58,0,1,0,0-1.15Z"/>
          </g>
        </g>
      </g>
    </g>
    <g id="Mobile-2" data-name="Mobile">
      <g id="iPhone-8-Copy-4-2" data-name="iPhone-8-Copy-4">
        <g id="Group-4-2" data-name="Group-4">
          <g id="Group-2" data-name="Group">
            <path id="Combined-Shape-2" data-name="Combined-Shape" class="cls-2" d="M127.67,133.78H141.4a2.3,2.3,0,0,1,2.29,2.29v29a2.3,2.3,0,0,1-2.29,2.29H127.67a2.29,2.29,0,0,1-2.29-2.29v-29h0a2.29,2.29,0,0,1,2.29-2.29Zm-.57,4.58v22.31H142V138.36Zm7.55-1.39a.86.86,0,1,0-.86-.85A.86.86,0,0,0,134.65,137Zm-1.83,26.57a.56.56,0,0,0-.57.57.57.57,0,0,0,.57.57h3.43a.57.57,0,0,0,.57-.57.56.56,0,0,0-.57-.57Z"/>
          </g>
        </g>
      </g>
    </g>
    <g id="Mobile-3" data-name="Mobile">
      <g id="iPhone-8-Copy-4-3" data-name="iPhone-8-Copy-4">
        <g id="Group-4-3" data-name="Group-4">
          <g id="Group-3" data-name="Group">
            <path id="Combined-Shape-3" data-name="Combined-Shape" class="cls-2" d="M127.78,91.41h13.73a2.28,2.28,0,0,1,2.29,2.28v29a2.28,2.28,0,0,1-2.29,2.29H127.78a2.29,2.29,0,0,1-2.29-2.29v-29h0a2.29,2.29,0,0,1,2.29-2.28ZM127.21,96V118.3h14.88V96Zm7.55-1.38a.86.86,0,1,0-.86-.86A.86.86,0,0,0,134.76,94.6Zm-1.83,26.56a.58.58,0,0,0-.57.57.57.57,0,0,0,.57.57h3.43a.57.57,0,0,0,.58-.57.58.58,0,0,0-.58-.57Z"/>
          </g>
        </g>
      </g>
    </g>
    <path class="cls-2" d="M74.59,64.63s-8-8.56-8.58-14.13c0,0-.38-4.67,4.29-5,0,0,2.42-.26,4.19,3.3,0,0,1.41-3.26,4.28-3.3S83.14,48.63,83,50,83.38,54.05,74.59,64.63Z"/>
    <text class="cls-3" transform="translate(65.06 40.51)"><tspan xml:space="preserve"> 3</tspan></text>
    <path class="cls-2" d="M195.59,230.11s8,8.58,8.55,14.14c0,0,.37,4.67-4.3,5,0,0-2.43.25-4.19-3.31,0,0-1.41,3.26-4.28,3.29s-4.37-3.14-4.22-4.53S186.78,240.67,195.59,230.11Z"/>
    <text class="cls-4" transform="translate(205.16 254.3) rotate(-179.88)"><tspan xml:space="preserve"> 3</tspan></text>
  </g>
  <g>
    <g>
      <g id="Mobile-4" data-name="Mobile">
        <g id="iPhone-8-Copy-4-4" data-name="iPhone-8-Copy-4">
          <g id="Group-4-4" data-name="Group-4">
            <g id="Group-4-5" data-name="Group">
              <path id="Combined-Shape-4" data-name="Combined-Shape" class="cls-2" d="M349.5,134.53h13.73a2.29,2.29,0,0,1,2.29,2.29v29a2.29,2.29,0,0,1-2.29,2.28H349.5a2.28,2.28,0,0,1-2.29-2.28v-29h0a2.28,2.28,0,0,1,2.29-2.29Zm-.58,4.57v22.32H363.8V139.1Zm7.56-1.38a.86.86,0,1,0-.86-.86A.86.86,0,0,0,356.48,137.72Zm-1.83,26.56a.58.58,0,1,0,0,1.15h3.43a.58.58,0,0,0,0-1.15Z"/>
            </g>
          </g>
        </g>
      </g>
      <g id="Mobile-5" data-name="Mobile">
        <g id="iPhone-8-Copy-4-5" data-name="iPhone-8-Copy-4">
          <g id="Group-4-6" data-name="Group-4">
            <g id="Group-5" data-name="Group">
              <path id="Combined-Shape-5" data-name="Combined-Shape" class="cls-2" d="M317.07,168.11H330.8a2.3,2.3,0,0,1,2.29,2.29v29a2.29,2.29,0,0,1-2.29,2.29H317.07a2.28,2.28,0,0,1-2.29-2.29v-29h0a2.29,2.29,0,0,1,2.29-2.29Zm-.57,4.58V195h14.87V172.69Zm7.55-1.38a.86.86,0,0,0,0-1.72.86.86,0,0,0,0,1.72Zm-1.83,26.56a.57.57,0,1,0,0,1.14h3.43a.57.57,0,0,0,0-1.14Z"/>
            </g>
          </g>
        </g>
      </g>
      <g id="Mobile-6" data-name="Mobile">
        <g id="iPhone-8-Copy-4-6" data-name="iPhone-8-Copy-4">
          <g id="Group-4-7" data-name="Group-4">
            <g id="Group-6" data-name="Group">
              <path id="Combined-Shape-6" data-name="Combined-Shape" class="cls-2" d="M285,134.53h13.74a2.29,2.29,0,0,1,2.29,2.29v29a2.29,2.29,0,0,1-2.29,2.28H285a2.28,2.28,0,0,1-2.28-2.28v-29h0a2.28,2.28,0,0,1,2.28-2.29Zm-.57,4.57v22.32h14.88V139.1Zm7.56-1.38a.86.86,0,1,0-.86-.86A.85.85,0,0,0,292,137.72Zm-1.84,26.56a.58.58,0,0,0,0,1.15h3.44a.58.58,0,0,0,0-1.15Z"/>
            </g>
          </g>
        </g>
      </g>
      <g id="Mobile-7" data-name="Mobile">
        <g id="iPhone-8-Copy-4-7" data-name="iPhone-8-Copy-4">
          <g id="Group-4-8" data-name="Group-4">
            <g id="Group-7" data-name="Group">
              <path id="Combined-Shape-7" data-name="Combined-Shape" class="cls-2" d="M317,100.94h13.74a2.28,2.28,0,0,1,2.28,2.29v29a2.29,2.29,0,0,1-2.28,2.29H317a2.3,2.3,0,0,1-2.29-2.29v-29h0a2.29,2.29,0,0,1,2.29-2.29Zm-.57,4.58v22.31h14.88V105.52Zm7.55-1.39a.86.86,0,1,0-.85-.86A.85.85,0,0,0,323.93,104.13Zm-1.83,26.56a.58.58,0,0,0,0,1.15h3.44a.58.58,0,0,0,0-1.15Z"/>
            </g>
          </g>
        </g>
      </g>
    </g>
    <path class="cls-2" d="M264.19,65.38s-8-8.57-8.58-14.13c0,0-.38-4.67,4.29-5,0,0,2.43-.27,4.19,3.29,0,0,1.41-3.26,4.28-3.3s4.37,3.14,4.23,4.52S273,54.8,264.19,65.38Z"/>
    <text class="cls-3" transform="translate(254.66 41.25)"><tspan xml:space="preserve"> 4</tspan></text>
    <path class="cls-2" d="M385.19,230.85s8,8.58,8.55,14.15c0,0,.37,4.67-4.3,5,0,0-2.42.26-4.18-3.3,0,0-1.42,3.25-4.29,3.29s-4.36-3.15-4.22-4.53S376.38,241.41,385.19,230.85Z"/>
    <text class="cls-4" transform="translate(394.77 255.05) rotate(-179.88)"><tspan xml:space="preserve"> 4</tspan></text>
  </g>
  <g>
    <text class="cls-3" transform="translate(637.66 323.56)"><tspan xml:space="preserve"> 5</tspan></text>
    <text class="cls-4" transform="translate(777.75 537.35) rotate(-179.88)"><tspan xml:space="preserve"> 5</tspan></text>
    <path class="cls-2" d="M647.07,328.12a88.46,88.46,0,0,1-8.5,11.51,122.4,122.4,0,0,1,8.5,11.51,142.12,142.12,0,0,1,8.48-11.51A101.18,101.18,0,0,1,647.07,328.12Z"/>
    <path class="cls-2" d="M768.24,509.65a89.15,89.15,0,0,1-8.5,11.51,122.4,122.4,0,0,1,8.5,11.51,142,142,0,0,1,8.47-11.51A101.11,101.11,0,0,1,768.24,509.65Z"/>
    <g id="Mobile-8" data-name="Mobile">
      <g id="iPhone-8-Copy-4-8" data-name="iPhone-8-Copy-4">
        <g id="bike_icon" data-name="bike icon">
          <path id="Shape" class="cls-2" d="M676.54,410.06h-2a.62.62,0,0,0-.63.64.58.58,0,0,0,.63.63h2a.64.64,0,0,0,0-1.27Z"/>
          <path id="Shape-2" data-name="Shape" class="cls-2" d="M685.09,402.38a5.63,5.63,0,0,0-2.54.56c-.15-.71-.31-1.43-.39-2.14a1.69,1.69,0,0,0,1.11.4c.87,0,.87-3.17,0-3.17a1.78,1.78,0,0,0-1.35.71v-.31l-.08-.4c-.24-1.9-1.34-4.19-5.46-3.72a.6.6,0,0,0,.08,1.19c3.4-.32,4,1.34,4.11,2.69l.08.4a.7.7,0,0,0,.08.39h-9.5l-.39-.79h.39a.87.87,0,0,0,0-1.74H668.7a.87.87,0,0,0,0,1.74h.79v.08l.64,1.34-1.67,3.25a6,6,0,0,0-2.37-.48,6.18,6.18,0,1,0,0,12.35,6.28,6.28,0,0,0,6.17-5.06h2.38a.84.84,0,0,0,.63.16,1.23,1.23,0,0,0,1.19-1.19,1,1,0,0,0-.08-.48l4.59-7c.24.79.32,1.58.55,2.37a6.16,6.16,0,0,0-2.69,5,6.26,6.26,0,1,0,6.26-6.18ZM670.92,401l3.48,7a1.14,1.14,0,0,0-.16.48H672.5a6,6,0,0,0-2.85-5.07Zm-.48,7.44H667l1.66-3.25A4.22,4.22,0,0,1,670.44,408.48Zm-4.27,4.27a4.2,4.2,0,1,1,0-8.39,4.54,4.54,0,0,1,1.5.24l-2.14,4.12a.75.75,0,0,0,0,.55.66.66,0,0,0,.48.32h4.27A4.15,4.15,0,0,1,666.17,412.75Zm9.34-5.22h0l-3.72-7.28h8.55Zm9.58,5.22a4.24,4.24,0,0,1-4.28-4.19,4.19,4.19,0,0,1,1.27-3,9.28,9.28,0,0,0,2.61,4,.59.59,0,1,0,.79-.87,9.06,9.06,0,0,1-2.37-3.8,4.22,4.22,0,1,1,2,7.91Z"/>
        </g>
      </g>
    </g>
    <g id="Mobile-9" data-name="Mobile">
      <g id="iPhone-8-Copy-4-9" data-name="iPhone-8-Copy-4">
        <g id="bike_icon-2" data-name="bike icon">
          <path id="Shape-3" data-name="Shape" class="cls-2" d="M735.75,411.44h-2a.62.62,0,0,0-.63.63.58.58,0,0,0,.63.64h2a.64.64,0,0,0,0-1.27Z"/>
          <path id="Shape-4" data-name="Shape" class="cls-2" d="M744.3,403.76a5.56,5.56,0,0,0-2.53.56,20.58,20.58,0,0,1-.4-2.14,1.7,1.7,0,0,0,1.11.39c.87,0,.87-3.16,0-3.16a1.78,1.78,0,0,0-1.35.71v-.32l-.08-.39c-.23-1.9-1.34-4.2-5.46-3.72a.6.6,0,0,0-.55.63.61.61,0,0,0,.63.56c3.4-.32,4,1.34,4.12,2.69l.08.39a.81.81,0,0,0,.07.4h-9.49l-.4-.79h.4a.87.87,0,0,0,0-1.74h-2.54a.87.87,0,1,0,0,1.74h.79v.08l.64,1.34-1.66,3.25a6.06,6.06,0,0,0-2.38-.48,6.18,6.18,0,1,0,0,12.35,6.31,6.31,0,0,0,6.18-5.07h2.37a.85.85,0,0,0,.63.16,1.21,1.21,0,0,0,1.19-1.18,1,1,0,0,0-.08-.48l4.59-7c.24.8.32,1.59.56,2.38a6.14,6.14,0,0,0-2.69,5,6.25,6.25,0,1,0,6.25-6.18Zm-14.17-1.34,3.48,7a1.14,1.14,0,0,0-.16.48h-1.74a6,6,0,0,0-2.85-5.07Zm-.48,7.44h-3.4l1.66-3.25A4.2,4.2,0,0,1,729.65,409.86Zm-4.27,4.27a4.2,4.2,0,1,1,0-8.39,4.54,4.54,0,0,1,1.5.24l-2.13,4.11a.68.68,0,0,0,0,.56.64.64,0,0,0,.47.32h4.28A4.17,4.17,0,0,1,725.38,414.13Zm9.34-5.22h0L731,401.62h8.55Zm9.58,5.22a4.24,4.24,0,0,1-4.28-4.19,4.19,4.19,0,0,1,1.27-3,9.44,9.44,0,0,0,2.61,4,.61.61,0,0,0,.4.15.56.56,0,0,0,.39-.15.62.62,0,0,0,0-.87,9.16,9.16,0,0,1-2.37-3.8,4.22,4.22,0,1,1,2,7.91Z"/>
        </g>
      </g>
    </g>
    <g id="Mobile-10" data-name="Mobile">
      <g id="iPhone-8-Copy-4-10" data-name="iPhone-8-Copy-4">
        <g id="bike_icon-3" data-name="bike icon">
          <path id="Shape-5" data-name="Shape" class="cls-2" d="M678,467h-2a.63.63,0,0,0-.63.63.59.59,0,0,0,.63.64h2a.64.64,0,0,0,0-1.27Z"/>
          <path id="Shape-6" data-name="Shape" class="cls-2" d="M686.59,459.27a5.56,5.56,0,0,0-2.53.56,20.58,20.58,0,0,1-.4-2.14,1.71,1.71,0,0,0,1.11.4c.87,0,.87-3.17,0-3.17a1.78,1.78,0,0,0-1.35.71v-.32l-.08-.39c-.23-1.9-1.34-4.2-5.46-3.72a.6.6,0,0,0,.08,1.19c3.41-.32,4,1.34,4.12,2.69l.08.39a.72.72,0,0,0,.08.4h-9.5l-.4-.79h.4a.87.87,0,0,0,0-1.74H670.2a.87.87,0,0,0,0,1.74h.8v.08l.63,1.34L670,459.75a6.06,6.06,0,0,0-2.38-.48,6.18,6.18,0,1,0,0,12.35,6.31,6.31,0,0,0,6.18-5.06h2.37a.89.89,0,0,0,.63.15,1.21,1.21,0,0,0,1.19-1.18,1,1,0,0,0-.08-.48l4.59-7c.24.79.32,1.58.56,2.37a6.14,6.14,0,0,0-2.69,5,6.25,6.25,0,1,0,6.25-6.18Zm-14.17-1.34,3.48,7a1.12,1.12,0,0,0-.15.48H674a5.93,5.93,0,0,0-2.85-5.07Zm-.47,7.44h-3.41l1.66-3.25A4.22,4.22,0,0,1,672,465.37Zm-4.28,4.27a4.2,4.2,0,1,1,0-8.39,4.49,4.49,0,0,1,1.5.24L667,465.61a.66.66,0,0,0,0,.55.64.64,0,0,0,.47.32h4.28A4.17,4.17,0,0,1,667.67,469.64Zm9.34-5.22h0l-3.72-7.28h8.55Zm9.58,5.22a4.23,4.23,0,0,1-4.27-4.19,4.18,4.18,0,0,1,1.26-3,9.53,9.53,0,0,0,2.61,4,.58.58,0,0,0,.8,0,.63.63,0,0,0,0-.87,9.18,9.18,0,0,1-2.38-3.8,4.22,4.22,0,1,1,2,7.91Z"/>
        </g>
      </g>
    </g>
    <g id="Mobile-11" data-name="Mobile">
      <g id="iPhone-8-Copy-4-11" data-name="iPhone-8-Copy-4">
        <g id="bike_icon-4" data-name="bike icon">
          <path id="Shape-7" data-name="Shape" class="cls-2" d="M737.25,468.33h-2a.63.63,0,0,0-.63.63.58.58,0,0,0,.63.63h2a.62.62,0,0,0,.64-.63A.63.63,0,0,0,737.25,468.33Z"/>
          <path id="Shape-8" data-name="Shape" class="cls-2" d="M745.8,460.65a5.69,5.69,0,0,0-2.53.55,19.93,19.93,0,0,1-.4-2.13,1.78,1.78,0,0,0,1.11.39c.87,0,.87-3.16,0-3.16a1.73,1.73,0,0,0-1.34.71v-.32l-.08-.39c-.24-1.9-1.35-4.2-5.47-3.72a.59.59,0,0,0,.08,1.18c3.41-.31,4,1.35,4.12,2.69l.08.4a.72.72,0,0,0,.08.4H732l-.4-.8h.4a.87.87,0,0,0,0-1.74h-2.53a.87.87,0,0,0,0,1.74h.79v.08l.63,1.35-1.66,3.24a6.25,6.25,0,0,0-8.63,5.7A6.27,6.27,0,0,0,733,467.93h2.37a.86.86,0,0,0,.64.16,1.21,1.21,0,0,0,1.18-1.19,1,1,0,0,0-.08-.47l4.6-7c.23.79.31,1.59.55,2.38a6.16,6.16,0,0,0-2.69,5,6.25,6.25,0,1,0,6.25-6.17Zm-14.17-1.35,3.49,7.05a1.14,1.14,0,0,0-.16.47h-1.74a6,6,0,0,0-2.85-5.06Zm-.47,7.45h-3.41l1.67-3.25A4.23,4.23,0,0,1,731.16,466.75ZM726.88,471a4.2,4.2,0,1,1,0-8.39,4.6,4.6,0,0,1,1.51.24L726.25,467a.68.68,0,0,0,0,.56.65.65,0,0,0,.47.31H731A4.18,4.18,0,0,1,726.88,471Zm9.34-5.22h0l-3.72-7.29h8.55ZM745.8,471a4.24,4.24,0,0,1-4.27-4.2,4.18,4.18,0,0,1,1.26-3,9.37,9.37,0,0,0,2.62,3.95.56.56,0,0,0,.39.16.61.61,0,0,0,.4-.16.63.63,0,0,0,0-.87,9.12,9.12,0,0,1-2.38-3.8,4.4,4.4,0,0,1,2-.47,4.2,4.2,0,1,1,0,8.39Z"/>
        </g>
      </g>
    </g>
    <g id="Mobile-12" data-name="Mobile">
      <g id="iPhone-8-Copy-4-12" data-name="iPhone-8-Copy-4">
        <g id="bike_icon-5" data-name="bike icon">
          <path id="Shape-9" data-name="Shape" class="cls-2" d="M706.06,438.51h-2a.62.62,0,0,0-.63.63.58.58,0,0,0,.63.63h2a.63.63,0,1,0,0-1.26Z"/>
          <path id="Shape-10" data-name="Shape" class="cls-2" d="M714.61,430.83a5.69,5.69,0,0,0-2.53.55,19.93,19.93,0,0,1-.4-2.13,1.78,1.78,0,0,0,1.11.39c.87,0,.87-3.16,0-3.16a1.73,1.73,0,0,0-1.34.71v-.32l-.08-.39c-.24-1.9-1.35-4.2-5.46-3.73a.6.6,0,1,0,.07,1.19c3.41-.31,4,1.35,4.12,2.69l.08.4a.67.67,0,0,0,.08.39h-9.5l-.4-.79h.4a.87.87,0,0,0,0-1.74h-2.53a.87.87,0,0,0,0,1.74H699v.08l.63,1.35L698,431.3a6.25,6.25,0,0,0-8.63,5.7,6.27,6.27,0,0,0,12.43,1.11h2.37a.86.86,0,0,0,.64.16,1.21,1.21,0,0,0,1.18-1.19,1.1,1.1,0,0,0-.07-.47l4.59-7c.23.79.31,1.58.55,2.38a6.13,6.13,0,0,0-2.69,5,6.26,6.26,0,1,0,6.25-6.17Zm-14.17-1.35,3.49,7a1.1,1.1,0,0,0-.16.47H702a6,6,0,0,0-2.85-5.06Zm-.47,7.44h-3.41l1.67-3.24A4.2,4.2,0,0,1,700,436.92Zm-4.28,4.28a4.2,4.2,0,1,1,0-8.39,4.6,4.6,0,0,1,1.51.24l-2.14,4.11a.68.68,0,0,0,0,.56.67.67,0,0,0,.48.31h4.27A4.17,4.17,0,0,1,695.69,441.2ZM705,436h0l-3.72-7.28h8.55Zm9.58,5.23a4.24,4.24,0,0,1-4.27-4.2,4.18,4.18,0,0,1,1.26-3,9.43,9.43,0,0,0,2.62,3.95.58.58,0,0,0,.39.16.6.6,0,0,0,.4-1,9.12,9.12,0,0,1-2.38-3.8,4.4,4.4,0,0,1,2-.47,4.2,4.2,0,1,1,0,8.39Z"/>
        </g>
      </g>
    </g>
  </g>
  <g>
    <text class="cls-3" transform="translate(254.33 324.15)"><tspan xml:space="preserve"> 7</tspan></text>
    <text class="cls-4" transform="translate(394.43 537.94) rotate(-179.88)"><tspan xml:space="preserve"> 7</tspan></text>
    <path class="cls-2" d="M263.75,328.72a90.13,90.13,0,0,1-8.51,11.51,124.15,124.15,0,0,1,8.51,11.5,139.49,139.49,0,0,1,8.47-11.5A100.8,100.8,0,0,1,263.75,328.72Z"/>
    <path class="cls-2" d="M384.91,510.24a88.46,88.46,0,0,1-8.5,11.51,122.4,122.4,0,0,1,8.5,11.51,142.12,142.12,0,0,1,8.48-11.51A101.18,101.18,0,0,1,384.91,510.24Z"/>
    <g id="Mobile-13" data-name="Mobile">
      <g id="iPhone-8-Copy-4-13" data-name="iPhone-8-Copy-4">
        <g id="bike_icon-6" data-name="bike icon">
          <path id="Shape-11" data-name="Shape" class="cls-2" d="M287.23,407.73h-2a.63.63,0,0,0-.63.63.59.59,0,0,0,.63.64h2a.64.64,0,1,0,0-1.27Z"/>
          <path id="Shape-12" data-name="Shape" class="cls-2" d="M295.78,400.05a5.56,5.56,0,0,0-2.53.56,20.58,20.58,0,0,1-.4-2.14,1.72,1.72,0,0,0,1.11.39c.87,0,.87-3.16,0-3.16a1.77,1.77,0,0,0-1.35.71v-.32l-.07-.39c-.24-1.9-1.35-4.2-5.47-3.72a.61.61,0,0,0-.55.63.62.62,0,0,0,.63.56c3.41-.32,4,1.34,4.12,2.69l.08.39a.72.72,0,0,0,.08.4h-9.5l-.4-.79h.4a.87.87,0,1,0,0-1.74H279.4a.87.87,0,1,0,0,1.74h.79v.08l.63,1.34-1.66,3.25a6,6,0,0,0-2.38-.48,6.18,6.18,0,1,0,0,12.35,6.31,6.31,0,0,0,6.18-5.07h2.37a.86.86,0,0,0,.64.16,1.21,1.21,0,0,0,1.18-1.18,1,1,0,0,0-.08-.48l4.59-7c.24.8.32,1.59.56,2.38a6.16,6.16,0,0,0-2.69,5,6.25,6.25,0,1,0,6.25-6.18Zm-14.17-1.34,3.48,7a1.27,1.27,0,0,0-.15.48h-1.75a6,6,0,0,0-2.84-5.07Zm-.47,7.44h-3.41l1.67-3.25A4.23,4.23,0,0,1,281.14,406.15Zm-4.28,4.27a4.2,4.2,0,1,1,0-8.39,4.6,4.6,0,0,1,1.51.24l-2.14,4.11a.68.68,0,0,0,0,.56.66.66,0,0,0,.47.32H281A4.17,4.17,0,0,1,276.86,410.42Zm9.34-5.22h0l-3.72-7.29H291Zm9.58,5.22a4.24,4.24,0,0,1-4.27-4.19,4.18,4.18,0,0,1,1.26-3,9.46,9.46,0,0,0,2.62,4,.56.56,0,0,0,.39.15.61.61,0,0,0,.4-.15.63.63,0,0,0,0-.87,9.18,9.18,0,0,1-2.38-3.8,4.29,4.29,0,0,1,2-.48,4.2,4.2,0,1,1,0,8.39Z"/>
        </g>
      </g>
    </g>
    <g id="Mobile-14" data-name="Mobile">
      <g id="iPhone-8-Copy-4-14" data-name="iPhone-8-Copy-4">
        <g id="bike_icon-7" data-name="bike icon">
          <path id="Shape-13" data-name="Shape" class="cls-2" d="M361.49,409.69h-2a.63.63,0,0,0-.63.64.58.58,0,0,0,.63.63h2a.64.64,0,0,0,0-1.27Z"/>
          <path id="Shape-14" data-name="Shape" class="cls-2" d="M370,402a5.55,5.55,0,0,0-2.53.55,19.65,19.65,0,0,1-.4-2.14,1.73,1.73,0,0,0,1.11.4c.87,0,.87-3.17,0-3.17a1.8,1.8,0,0,0-1.35.71v-.31l-.07-.4c-.24-1.9-1.35-4.19-5.47-3.72a.6.6,0,0,0,.08,1.19c3.41-.32,4,1.35,4.12,2.69l.08.4a.7.7,0,0,0,.08.39h-9.5l-.4-.79h.4a.87.87,0,0,0,0-1.74h-2.53a.87.87,0,1,0,0,1.74h.79v.08l.63,1.35-1.66,3.24A6,6,0,0,0,351,402a6.17,6.17,0,1,0,0,12.34,6.3,6.3,0,0,0,6.18-5.06h2.37a.86.86,0,0,0,.64.16,1.22,1.22,0,0,0,1.18-1.19,1,1,0,0,0-.08-.48l4.59-7c.24.79.32,1.58.56,2.37a6.16,6.16,0,0,0-2.69,5A6.25,6.25,0,1,0,370,402Zm-14.17-1.35,3.48,7.05a1.18,1.18,0,0,0-.15.47h-1.75a5.93,5.93,0,0,0-2.85-5.07Zm-.47,7.44H352l1.67-3.24A4.22,4.22,0,0,1,355.4,408.11Zm-4.28,4.28a4.2,4.2,0,1,1,0-8.4,4.6,4.6,0,0,1,1.51.24l-2.14,4.12a.6.6,0,0,0,.47.87h4.28A4.18,4.18,0,0,1,351.12,412.39Zm9.34-5.23h0l-3.72-7.28h8.55Zm9.58,5.23a4.24,4.24,0,0,1-4.27-4.2,4.18,4.18,0,0,1,1.26-3,9.47,9.47,0,0,0,2.61,4,.58.58,0,0,0,.8,0,.63.63,0,0,0,0-.87,9.18,9.18,0,0,1-2.38-3.8,4.22,4.22,0,1,1,2,7.92Z"/>
        </g>
      </g>
    </g>
    <g id="Mobile-15" data-name="Mobile">
      <g id="iPhone-8-Copy-4-15" data-name="iPhone-8-Copy-4">
        <g id="bike_icon-8" data-name="bike icon">
          <path id="Shape-15" data-name="Shape" class="cls-2" d="M288,438.67h-2a.62.62,0,0,0-.63.64.58.58,0,0,0,.63.63h2a.64.64,0,0,0,0-1.27Z"/>
          <path id="Shape-16" data-name="Shape" class="cls-2" d="M296.58,431a5.62,5.62,0,0,0-2.54.55c-.15-.71-.31-1.42-.39-2.14a1.69,1.69,0,0,0,1.11.4c.87,0,.87-3.17,0-3.17a1.78,1.78,0,0,0-1.35.71V427l-.08-.4c-.24-1.9-1.34-4.19-5.46-3.72a.6.6,0,0,0,.08,1.19c3.4-.32,4,1.35,4.12,2.69l.07.4a.7.7,0,0,0,.08.39h-9.5l-.39-.79h.39a.87.87,0,1,0,0-1.74h-2.53a.87.87,0,0,0,0,1.74H281v.08l.64,1.35L280,431.47a6,6,0,0,0-2.37-.47,6.17,6.17,0,1,0,0,12.34,6.28,6.28,0,0,0,6.17-5.06h2.38a.84.84,0,0,0,.63.16,1.23,1.23,0,0,0,1.19-1.19,1,1,0,0,0-.08-.48l4.59-7c.24.79.32,1.58.55,2.37a6.16,6.16,0,0,0-2.69,5,6.26,6.26,0,1,0,6.26-6.17Zm-14.17-1.35,3.48,7.05a1.05,1.05,0,0,0-.16.47H284a6,6,0,0,0-2.85-5.07Zm-.48,7.44h-3.4l1.66-3.24A4.19,4.19,0,0,1,281.93,437.09Zm-4.27,4.28a4.2,4.2,0,1,1,0-8.39,4.54,4.54,0,0,1,1.5.23L277,437.33a.66.66,0,0,0,0,.55.62.62,0,0,0,.47.32h4.27A4.16,4.16,0,0,1,277.66,441.37Zm9.34-5.23h0l-3.72-7.28h8.55Zm9.58,5.23a4.24,4.24,0,0,1-4.28-4.2,4.19,4.19,0,0,1,1.27-3,9.28,9.28,0,0,0,2.61,4,.61.61,0,0,0,.4.16.58.58,0,0,0,.39-.16.62.62,0,0,0,0-.87,9.06,9.06,0,0,1-2.37-3.8,4.22,4.22,0,1,1,2,7.92Z"/>
        </g>
      </g>
    </g>
    <g id="Mobile-16" data-name="Mobile">
      <g id="iPhone-8-Copy-4-16" data-name="iPhone-8-Copy-4">
        <g id="bike_icon-9" data-name="bike icon">
          <path id="Shape-17" data-name="Shape" class="cls-2" d="M361.41,440.64h-2a.63.63,0,0,0-.63.63.59.59,0,0,0,.63.64h2a.64.64,0,0,0,0-1.27Z"/>
          <path id="Shape-18" data-name="Shape" class="cls-2" d="M370,433a5.69,5.69,0,0,0-2.53.55,19.93,19.93,0,0,1-.4-2.13,1.76,1.76,0,0,0,1.11.39c.87,0,.87-3.16,0-3.16a1.77,1.77,0,0,0-1.35.71V429l-.08-.39c-.23-1.9-1.34-4.2-5.46-3.72a.59.59,0,1,0,.08,1.18c3.41-.31,4,1.35,4.12,2.69l.08.4a.72.72,0,0,0,.08.4h-9.5l-.4-.8h.4a.87.87,0,0,0,0-1.74h-2.54a.87.87,0,0,0,0,1.74h.8v.08l.63,1.35-1.66,3.25A6.06,6.06,0,0,0,351,433a6.18,6.18,0,1,0,0,12.35,6.31,6.31,0,0,0,6.18-5.07h2.37a.85.85,0,0,0,.63.16,1.21,1.21,0,0,0,1.19-1.19,1,1,0,0,0-.08-.47l4.59-7c.24.79.32,1.59.56,2.38a6.16,6.16,0,0,0-2.69,5A6.25,6.25,0,1,0,370,433Zm-14.17-1.35,3.48,7.05a1.28,1.28,0,0,0-.15.47h-1.75a5.93,5.93,0,0,0-2.85-5.06Zm-.47,7.45h-3.41l1.66-3.25A4.22,4.22,0,0,1,355.32,439.06ZM351,443.33a4.2,4.2,0,1,1,0-8.39,4.6,4.6,0,0,1,1.51.24l-2.14,4.11a.68.68,0,0,0,0,.56.65.65,0,0,0,.47.31h4.28A4.18,4.18,0,0,1,351,443.33Zm9.34-5.22h0l-3.72-7.29h8.55Zm9.58,5.22a4.24,4.24,0,0,1-4.27-4.2,4.18,4.18,0,0,1,1.26-3,9.44,9.44,0,0,0,2.61,3.95.58.58,0,0,0,.8,0,.63.63,0,0,0,0-.87,9.12,9.12,0,0,1-2.38-3.8,4.37,4.37,0,0,1,2-.47,4.2,4.2,0,1,1,0,8.39Z"/>
        </g>
      </g>
    </g>
    <g id="Mobile-17" data-name="Mobile">
      <g id="iPhone-8-Copy-4-17" data-name="iPhone-8-Copy-4">
        <g id="bike_icon-10" data-name="bike icon">
          <path id="Shape-19" data-name="Shape" class="cls-2" d="M324.47,438.68h-2a.63.63,0,0,0-.63.63.59.59,0,0,0,.63.64h2a.64.64,0,1,0,0-1.27Z"/>
          <path id="Shape-20" data-name="Shape" class="cls-2" d="M333,431a5.56,5.56,0,0,0-2.53.56,20.1,20.1,0,0,1-.4-2.14,1.73,1.73,0,0,0,1.11.4c.87,0,.87-3.17,0-3.17a1.8,1.8,0,0,0-1.35.71v-.31l-.07-.4c-.24-1.9-1.35-4.2-5.47-3.72a.6.6,0,0,0,.08,1.19c3.41-.32,4,1.34,4.12,2.69l.08.39a.72.72,0,0,0,.08.4h-9.5l-.4-.79h.4a.87.87,0,0,0,0-1.74h-2.53a.87.87,0,1,0,0,1.74h.79v.08l.63,1.34-1.66,3.25A6,6,0,0,0,314,431a6.18,6.18,0,1,0,0,12.35,6.3,6.3,0,0,0,6.18-5.06h2.37a.91.91,0,0,0,.64.15,1.21,1.21,0,0,0,1.18-1.18,1,1,0,0,0-.08-.48l4.59-7c.24.79.32,1.58.56,2.37a6.16,6.16,0,0,0-2.69,5A6.25,6.25,0,1,0,333,431Zm-14.17-1.34,3.48,7a1.27,1.27,0,0,0-.15.48h-1.75a6,6,0,0,0-2.84-5.07Zm-.47,7.44H315l1.67-3.25A4.23,4.23,0,0,1,318.38,437.1Zm-4.28,4.27a4.2,4.2,0,1,1,0-8.39,4.6,4.6,0,0,1,1.51.24l-2.14,4.12a.6.6,0,0,0,.47.87h4.28A4.17,4.17,0,0,1,314.1,441.37Zm9.34-5.22h0l-3.72-7.28h8.55Zm9.58,5.22a4.24,4.24,0,0,1-4.27-4.19,4.18,4.18,0,0,1,1.26-3,9.46,9.46,0,0,0,2.62,4,.56.56,0,0,0,.39.16.61.61,0,0,0,.4-.16.63.63,0,0,0,0-.87,9.18,9.18,0,0,1-2.38-3.8,4.29,4.29,0,0,1,2-.48,4.2,4.2,0,1,1,0,8.39Z"/>
        </g>
      </g>
    </g>
    <g id="Mobile-18" data-name="Mobile">
      <g id="iPhone-8-Copy-4-18" data-name="iPhone-8-Copy-4">
        <g id="bike_icon-11" data-name="bike icon">
          <path id="Shape-21" data-name="Shape" class="cls-2" d="M288.89,469.88h-2a.63.63,0,0,0-.64.64.59.59,0,0,0,.64.63h2a.64.64,0,1,0,0-1.27Z"/>
          <path id="Shape-22" data-name="Shape" class="cls-2" d="M297.44,462.21a5.55,5.55,0,0,0-2.53.55,19.65,19.65,0,0,1-.4-2.14,1.73,1.73,0,0,0,1.11.4c.87,0,.87-3.17,0-3.17a1.76,1.76,0,0,0-1.34.71v-.31l-.08-.4c-.24-1.9-1.35-4.19-5.46-3.72a.6.6,0,1,0,.08,1.19c3.4-.32,3.95,1.35,4.11,2.69l.08.4a.7.7,0,0,0,.08.39h-9.5l-.4-.79h.4a.87.87,0,1,0,0-1.74h-2.53a.87.87,0,0,0,0,1.74h.79v.08l.63,1.35-1.66,3.24a6,6,0,0,0-2.37-.47,6.17,6.17,0,1,0,0,12.34,6.29,6.29,0,0,0,6.17-5.06H287a.86.86,0,0,0,.64.16,1.23,1.23,0,0,0,1.19-1.19,1,1,0,0,0-.08-.48l4.59-7c.23.79.31,1.58.55,2.37a6.16,6.16,0,0,0-2.69,5,6.26,6.26,0,1,0,6.25-6.17Zm-14.17-1.35,3.49,7.05a1.05,1.05,0,0,0-.16.47h-1.74a6,6,0,0,0-2.85-5.07Zm-.47,7.44h-3.4l1.66-3.24A4.19,4.19,0,0,1,282.8,468.3Zm-4.28,4.28a4.2,4.2,0,1,1,0-8.4,4.6,4.6,0,0,1,1.51.24l-2.14,4.12a.6.6,0,0,0,.48.87h4.27A4.17,4.17,0,0,1,278.52,472.58Zm9.35-5.23h0l-3.73-7.28h8.55Zm9.57,5.23a4.24,4.24,0,0,1-4.27-4.2,4.15,4.15,0,0,1,1.27-3,9.28,9.28,0,0,0,2.61,4,.58.58,0,0,0,.39.16.6.6,0,0,0,.4-1,9.18,9.18,0,0,1-2.38-3.8,4.29,4.29,0,0,1,2-.48,4.2,4.2,0,1,1,0,8.4Z"/>
        </g>
      </g>
    </g>
    <g id="Mobile-19" data-name="Mobile">
      <g id="iPhone-8-Copy-4-19" data-name="iPhone-8-Copy-4">
        <g id="bike_icon-12" data-name="bike icon">
          <path id="Shape-23" data-name="Shape" class="cls-2" d="M362.28,471.85h-2a.62.62,0,0,0-.63.63.57.57,0,0,0,.63.63h2a.62.62,0,0,0,.63-.63A.63.63,0,0,0,362.28,471.85Z"/>
          <path id="Shape-24" data-name="Shape" class="cls-2" d="M370.83,464.17a5.76,5.76,0,0,0-2.54.55c-.15-.71-.31-1.42-.39-2.13A1.73,1.73,0,0,0,369,463c.87,0,.87-3.16,0-3.16a1.75,1.75,0,0,0-1.35.71v-.32l-.08-.39c-.24-1.9-1.34-4.2-5.46-3.72a.59.59,0,1,0,.08,1.18c3.4-.31,4,1.35,4.11,2.69l.08.4a.72.72,0,0,0,.08.4H357l-.39-.8H357a.87.87,0,1,0,0-1.74h-2.53a.87.87,0,1,0,0,1.74h.79v.08l.64,1.35-1.67,3.25a6,6,0,0,0-2.37-.48,6.18,6.18,0,1,0,0,12.35,6.29,6.29,0,0,0,6.17-5.07h2.38a.84.84,0,0,0,.63.16,1.22,1.22,0,0,0,1.19-1.19,1,1,0,0,0-.08-.47l4.59-7c.24.79.32,1.59.55,2.38a6.16,6.16,0,0,0-2.69,5,6.26,6.26,0,1,0,6.26-6.17Zm-14.17-1.35,3.48,7.05a1.14,1.14,0,0,0-.16.47h-1.74a6,6,0,0,0-2.85-5.06Zm-.48,7.45h-3.4l1.66-3.25A4.2,4.2,0,0,1,356.18,470.27Zm-4.27,4.27a4.2,4.2,0,1,1,0-8.39,4.54,4.54,0,0,1,1.5.24l-2.14,4.11a.77.77,0,0,0,0,.56.65.65,0,0,0,.48.31H356A4.16,4.16,0,0,1,351.91,474.54Zm9.34-5.22h0L357.53,462h8.55Zm9.58,5.22a4.24,4.24,0,0,1-4.28-4.2,4.19,4.19,0,0,1,1.27-3,9.25,9.25,0,0,0,2.61,4,.59.59,0,1,0,.79-.87,9,9,0,0,1-2.37-3.8,4.34,4.34,0,0,1,2-.47,4.2,4.2,0,1,1,0,8.39Z"/>
        </g>
      </g>
    </g>
  </g>
  <g>
    <text class="cls-3" transform="translate(448.58 324.79)"><tspan xml:space="preserve"> 6</tspan></text>
    <text class="cls-4" transform="translate(588.67 538.58) rotate(-179.88)"><tspan xml:space="preserve"> 6</tspan></text>
    <path class="cls-2" d="M458,329.35a88.46,88.46,0,0,1-8.5,11.51,122.4,122.4,0,0,1,8.5,11.51,142.12,142.12,0,0,1,8.48-11.51A101.18,101.18,0,0,1,458,329.35Z"/>
    <path class="cls-2" d="M579.16,510.88a88.46,88.46,0,0,1-8.5,11.51,122.4,122.4,0,0,1,8.5,11.51c2.57-3.91,5.41-7.73,8.47-11.51A101.11,101.11,0,0,1,579.16,510.88Z"/>
    <g id="Mobile-20" data-name="Mobile">
      <g id="iPhone-8-Copy-4-20" data-name="iPhone-8-Copy-4">
        <g id="bike_icon-13" data-name="bike icon">
          <path id="Shape-25" data-name="Shape" class="cls-2" d="M490.8,402.08h-2a.62.62,0,0,0-.63.64.58.58,0,0,0,.63.63h2a.64.64,0,0,0,0-1.27Z"/>
          <path id="Shape-26" data-name="Shape" class="cls-2" d="M499.35,394.4a5.61,5.61,0,0,0-2.54.56,20.05,20.05,0,0,1-.39-2.14,1.69,1.69,0,0,0,1.11.4c.87,0,.87-3.17,0-3.17a1.78,1.78,0,0,0-1.35.71v-.31l-.08-.4c-.24-1.9-1.34-4.19-5.46-3.72a.6.6,0,1,0,.08,1.19c3.4-.32,4,1.34,4.11,2.69l.08.4a.7.7,0,0,0,.08.39h-9.5l-.39-.79h.39a.87.87,0,0,0,0-1.74H483a.87.87,0,1,0,0,1.74h.79v.08l.64,1.34-1.67,3.25a6,6,0,0,0-2.37-.48,6.18,6.18,0,1,0,0,12.35,6.28,6.28,0,0,0,6.17-5.06h2.38a.84.84,0,0,0,.63.16,1.23,1.23,0,0,0,1.19-1.19,1,1,0,0,0-.08-.48l4.59-7c.24.79.32,1.58.55,2.37a6.16,6.16,0,0,0-2.69,5,6.26,6.26,0,1,0,6.26-6.18Zm-14.17-1.34,3.48,7a1.14,1.14,0,0,0-.16.48h-1.74a6,6,0,0,0-2.85-5.07Zm-.48,7.44h-3.4l1.66-3.25A4.22,4.22,0,0,1,484.7,400.5Zm-4.27,4.27a4.2,4.2,0,1,1,0-8.39,4.54,4.54,0,0,1,1.5.24l-2.14,4.12a.75.75,0,0,0,0,.55.66.66,0,0,0,.48.32h4.27A4.15,4.15,0,0,1,480.43,404.77Zm9.34-5.22h0l-3.72-7.28h8.55Zm9.58,5.22a4.24,4.24,0,0,1-4.28-4.19,4.19,4.19,0,0,1,1.27-3,9.28,9.28,0,0,0,2.61,4,.59.59,0,1,0,.79-.87,9.06,9.06,0,0,1-2.37-3.8,4.22,4.22,0,1,1,2,7.91Z"/>
        </g>
      </g>
    </g>
    <g id="Mobile-21" data-name="Mobile">
      <g id="iPhone-8-Copy-4-21" data-name="iPhone-8-Copy-4">
        <g id="bike_icon-14" data-name="bike icon">
          <path id="Shape-27" data-name="Shape" class="cls-2" d="M490.8,440.43h-2a.61.61,0,0,0-.63.63.57.57,0,0,0,.63.63h2a.63.63,0,0,0,0-1.26Z"/>
          <path id="Shape-28" data-name="Shape" class="cls-2" d="M499.35,432.75a5.73,5.73,0,0,0-2.54.55,19.88,19.88,0,0,1-.39-2.13,1.73,1.73,0,0,0,1.11.39c.87,0,.87-3.17,0-3.17a1.76,1.76,0,0,0-1.35.72v-.32l-.08-.4c-.24-1.9-1.34-4.19-5.46-3.72a.6.6,0,1,0,.08,1.19c3.4-.31,4,1.35,4.11,2.69l.08.4a.67.67,0,0,0,.08.39h-9.5l-.39-.79h.39a.87.87,0,0,0,0-1.74H483a.87.87,0,0,0,0,1.74h.79v.08l.64,1.35-1.67,3.24a6.24,6.24,0,0,0-8.62,5.7A6.27,6.27,0,0,0,486.52,440h2.38a.84.84,0,0,0,.63.16,1.22,1.22,0,0,0,1.19-1.19,1,1,0,0,0-.08-.47l4.59-7c.24.79.32,1.58.55,2.38a6.13,6.13,0,0,0-2.69,5,6.26,6.26,0,1,0,6.26-6.17Zm-14.17-1.35,3.48,7.05a1.1,1.1,0,0,0-.16.47h-1.74a5.94,5.94,0,0,0-2.85-5.06Zm-.48,7.44h-3.4L483,435.6A4.2,4.2,0,0,1,484.7,438.84Zm-4.27,4.28a4.2,4.2,0,1,1,0-8.39,4.81,4.81,0,0,1,1.5.23l-2.14,4.12a.77.77,0,0,0,0,.56.67.67,0,0,0,.48.31h4.27A4.16,4.16,0,0,1,480.43,443.12Zm9.34-5.23h0l-3.72-7.28h8.55Zm9.58,5.23a4.2,4.2,0,0,1-3-7.21,9.28,9.28,0,0,0,2.61,4,.59.59,0,1,0,.79-.87,9,9,0,0,1-2.37-3.8,4.34,4.34,0,0,1,2-.47,4.2,4.2,0,1,1,0,8.39Z"/>
        </g>
      </g>
    </g>
    <g id="Mobile-22" data-name="Mobile">
      <g id="iPhone-8-Copy-4-22" data-name="iPhone-8-Copy-4">
        <g id="bike_icon-15" data-name="bike icon">
          <path id="Shape-29" data-name="Shape" class="cls-2" d="M491.63,478.77h-2a.63.63,0,0,0-.64.63.59.59,0,0,0,.64.64h2a.64.64,0,0,0,0-1.27Z"/>
          <path id="Shape-30" data-name="Shape" class="cls-2" d="M500.17,471.09a5.56,5.56,0,0,0-2.53.56,18.2,18.2,0,0,1-.39-2.14,1.67,1.67,0,0,0,1.1.39c.87,0,.87-3.16,0-3.16a1.76,1.76,0,0,0-1.34.71v-.32l-.08-.39c-.24-1.9-1.35-4.2-5.46-3.72a.61.61,0,0,0-.56.63.62.62,0,0,0,.64.56c3.4-.32,3.95,1.34,4.11,2.69l.08.39a.72.72,0,0,0,.08.4h-9.5l-.39-.79h.39a.87.87,0,0,0,0-1.74h-2.53a.87.87,0,0,0,0,1.74h.79V467l.63,1.34-1.66,3.25a6,6,0,0,0-2.37-.48,6.18,6.18,0,1,0,0,12.35,6.3,6.3,0,0,0,6.17-5.07h2.38a.83.83,0,0,0,.63.16,1.22,1.22,0,0,0,1.19-1.18,1,1,0,0,0-.08-.48l4.59-7c.24.8.31,1.59.55,2.38a6.16,6.16,0,0,0-2.69,5,6.26,6.26,0,1,0,6.25-6.18ZM486,469.75l3.49,7a1.14,1.14,0,0,0-.16.48h-1.74a6,6,0,0,0-2.85-5.07Zm-.47,7.44h-3.4l1.66-3.25A4.2,4.2,0,0,1,485.53,477.19Zm-4.27,4.27a4.2,4.2,0,1,1,0-8.39,4.58,4.58,0,0,1,1.5.24l-2.14,4.11a.68.68,0,0,0,0,.56.66.66,0,0,0,.48.32h4.27A4.16,4.16,0,0,1,481.26,481.46Zm9.34-5.22h0L486.88,469h8.54Zm9.57,5.22a4.24,4.24,0,0,1-4.27-4.19,4.15,4.15,0,0,1,1.27-3,9.34,9.34,0,0,0,2.61,4,.6.6,0,0,0,.39.15.61.61,0,0,0,.4-.15.62.62,0,0,0,0-.87,9.06,9.06,0,0,1-2.37-3.8,4.22,4.22,0,1,1,2,7.91Z"/>
        </g>
      </g>
    </g>
    <g id="Mobile-23" data-name="Mobile">
      <g id="iPhone-8-Copy-4-23" data-name="iPhone-8-Copy-4">
        <g id="bike_icon-16" data-name="bike icon">
          <path id="Shape-31" data-name="Shape" class="cls-2" d="M546.37,402.08h-2a.63.63,0,0,0-.64.64.59.59,0,0,0,.64.63h2a.64.64,0,1,0,0-1.27Z"/>
          <path id="Shape-32" data-name="Shape" class="cls-2" d="M554.92,394.4a5.56,5.56,0,0,0-2.53.56,20.1,20.1,0,0,1-.4-2.14,1.73,1.73,0,0,0,1.11.4c.87,0,.87-3.17,0-3.17a1.76,1.76,0,0,0-1.34.71v-.31l-.08-.4c-.24-1.9-1.35-4.19-5.46-3.72a.6.6,0,1,0,.08,1.19c3.4-.32,4,1.34,4.11,2.69l.08.4a.7.7,0,0,0,.08.39h-9.5l-.39-.79h.39a.87.87,0,0,0,0-1.74h-2.53a.87.87,0,0,0,0,1.74h.79v.08l.63,1.34-1.66,3.25a6,6,0,0,0-2.37-.48,6.18,6.18,0,1,0,0,12.35,6.29,6.29,0,0,0,6.17-5.06h2.37a.86.86,0,0,0,.64.16,1.23,1.23,0,0,0,1.19-1.19,1,1,0,0,0-.08-.48l4.59-7c.23.79.31,1.58.55,2.37a6.16,6.16,0,0,0-2.69,5,6.26,6.26,0,1,0,6.25-6.18Zm-14.17-1.34,3.49,7a1.14,1.14,0,0,0-.16.48h-1.74a6,6,0,0,0-2.85-5.07Zm-.47,7.44h-3.4l1.66-3.25A4.22,4.22,0,0,1,540.28,400.5ZM536,404.77a4.2,4.2,0,1,1,0-8.39,4.6,4.6,0,0,1,1.51.24l-2.14,4.12a.6.6,0,0,0,.48.87h4.27A4.16,4.16,0,0,1,536,404.77Zm9.35-5.22h0l-3.72-7.28h8.54Zm9.57,5.22a4.24,4.24,0,0,1-4.27-4.19,4.15,4.15,0,0,1,1.27-3,9.28,9.28,0,0,0,2.61,4,.57.57,0,0,0,.79,0,.62.62,0,0,0,0-.87,9.18,9.18,0,0,1-2.38-3.8,4.29,4.29,0,0,1,2-.48,4.2,4.2,0,1,1,0,8.39Z"/>
        </g>
      </g>
    </g>
    <g id="Mobile-24" data-name="Mobile">
      <g id="iPhone-8-Copy-4-24" data-name="iPhone-8-Copy-4">
        <g id="bike_icon-17" data-name="bike icon">
          <path id="Shape-33" data-name="Shape" class="cls-2" d="M546.37,440.43h-2a.62.62,0,0,0-.64.63.58.58,0,0,0,.64.63h2a.63.63,0,1,0,0-1.26Z"/>
          <path id="Shape-34" data-name="Shape" class="cls-2" d="M554.92,432.75a5.69,5.69,0,0,0-2.53.55,19.93,19.93,0,0,1-.4-2.13,1.78,1.78,0,0,0,1.11.39c.87,0,.87-3.17,0-3.17a1.74,1.74,0,0,0-1.34.72v-.32l-.08-.4c-.24-1.9-1.35-4.19-5.46-3.72a.6.6,0,1,0,.08,1.19c3.4-.31,4,1.35,4.11,2.69l.08.4a.67.67,0,0,0,.08.39h-9.5l-.39-.79h.39a.87.87,0,1,0,0-1.74h-2.53a.87.87,0,0,0,0,1.74h.79v.08L540,430l-1.66,3.24a6.25,6.25,0,0,0-8.63,5.7A6.27,6.27,0,0,0,542.1,440h2.37a.86.86,0,0,0,.64.16A1.22,1.22,0,0,0,546.3,439a1,1,0,0,0-.08-.47l4.59-7c.23.79.31,1.58.55,2.38a6.13,6.13,0,0,0-2.69,5,6.26,6.26,0,1,0,6.25-6.17Zm-14.17-1.35,3.49,7.05a1.1,1.1,0,0,0-.16.47h-1.74a5.94,5.94,0,0,0-2.85-5.06Zm-.47,7.44h-3.4l1.66-3.24A4.2,4.2,0,0,1,540.28,438.84ZM536,443.12a4.2,4.2,0,1,1,0-8.39,4.88,4.88,0,0,1,1.51.23l-2.14,4.12a.68.68,0,0,0,0,.56.67.67,0,0,0,.48.31h4.27A4.17,4.17,0,0,1,536,443.12Zm9.35-5.23h0l-3.72-7.28h8.54Zm9.57,5.23a4.24,4.24,0,0,1-4.27-4.2,4.19,4.19,0,0,1,1.27-3,9.28,9.28,0,0,0,2.61,4,.57.57,0,0,0,.79,0,.62.62,0,0,0,0-.87,9.12,9.12,0,0,1-2.38-3.8,4.4,4.4,0,0,1,2-.47,4.2,4.2,0,1,1,0,8.39Z"/>
        </g>
      </g>
    </g>
    <g id="Mobile-25" data-name="Mobile">
      <g id="iPhone-8-Copy-4-25" data-name="iPhone-8-Copy-4">
        <g id="bike_icon-18" data-name="bike icon">
          <path id="Shape-35" data-name="Shape" class="cls-2" d="M547.2,478.77h-2a.63.63,0,0,0-.63.63.59.59,0,0,0,.63.64h2a.64.64,0,1,0,0-1.27Z"/>
          <path id="Shape-36" data-name="Shape" class="cls-2" d="M555.75,471.09a5.56,5.56,0,0,0-2.53.56,20.58,20.58,0,0,1-.4-2.14,1.72,1.72,0,0,0,1.11.39c.87,0,.87-3.16,0-3.16a1.76,1.76,0,0,0-1.34.71v-.32l-.08-.39c-.24-1.9-1.35-4.2-5.47-3.72a.61.61,0,0,0-.55.63.62.62,0,0,0,.63.56c3.41-.32,4,1.34,4.12,2.69l.08.39a.72.72,0,0,0,.08.4h-9.5l-.4-.79h.4a.87.87,0,0,0,0-1.74h-2.53a.87.87,0,1,0,0,1.74h.79V467l.63,1.34-1.66,3.25a6,6,0,0,0-2.38-.48,6.18,6.18,0,1,0,0,12.35,6.31,6.31,0,0,0,6.18-5.07h2.37a.86.86,0,0,0,.64.16,1.21,1.21,0,0,0,1.18-1.18,1,1,0,0,0-.08-.48l4.6-7c.23.8.31,1.59.55,2.38a6.16,6.16,0,0,0-2.69,5,6.25,6.25,0,1,0,6.25-6.18Zm-14.17-1.34,3.49,7a1.14,1.14,0,0,0-.16.48h-1.74a6,6,0,0,0-2.85-5.07Zm-.47,7.44H537.7l1.67-3.25A4.23,4.23,0,0,1,541.11,477.19Zm-4.28,4.27a4.2,4.2,0,1,1,0-8.39,4.6,4.6,0,0,1,1.51.24l-2.14,4.11a.68.68,0,0,0,0,.56.66.66,0,0,0,.47.32H541A4.17,4.17,0,0,1,536.83,481.46Zm9.34-5.22h0L542.45,469H551Zm9.58,5.22a4.24,4.24,0,0,1-4.27-4.19,4.18,4.18,0,0,1,1.26-3,9.46,9.46,0,0,0,2.62,4,.56.56,0,0,0,.39.15.61.61,0,0,0,.4-.15.63.63,0,0,0,0-.87,9.18,9.18,0,0,1-2.38-3.8,4.29,4.29,0,0,1,2-.48,4.2,4.2,0,1,1,0,8.39Z"/>
        </g>
      </g>
    </g>
  </g>
  <g>
    <text class="cls-3" transform="translate(639.89 40.14)"><tspan xml:space="preserve"> 9</tspan></text>
    <text class="cls-4" transform="translate(779.98 253.93) rotate(-179.88)"><tspan xml:space="preserve"> 9</tspan></text>
    <path class="cls-2" d="M649.31,44.71a88.27,88.27,0,0,1-8.51,11.51,124.15,124.15,0,0,1,8.51,11.5,141.83,141.83,0,0,1,8.47-11.5A101.11,101.11,0,0,1,649.31,44.71Z"/>
    <path class="cls-2" d="M770.48,226.23A89.43,89.43,0,0,1,762,237.74a124.29,124.29,0,0,1,8.51,11.51A139.62,139.62,0,0,1,779,237.74,99.92,99.92,0,0,1,770.48,226.23Z"/>
    <g>
      <g id="Mobile-26" data-name="Mobile">
        <g id="iPhone-8-Copy-4-26" data-name="iPhone-8-Copy-4">
          <g id="bike_icon-19" data-name="bike icon">
            <path id="Shape-37" data-name="Shape" class="cls-2" d="M680.81,98.06h-2a.62.62,0,0,0-.63.63.58.58,0,0,0,.63.64h2a.64.64,0,0,0,0-1.27Z"/>
            <path id="Shape-38" data-name="Shape" class="cls-2" d="M689.36,90.38a5.69,5.69,0,0,0-2.53.55,19.93,19.93,0,0,1-.4-2.13,1.7,1.7,0,0,0,1.11.39c.87,0,.87-3.16,0-3.16a1.75,1.75,0,0,0-1.35.71v-.32l-.08-.39c-.23-1.9-1.34-4.2-5.46-3.72a.59.59,0,0,0,.08,1.18c3.4-.31,4,1.35,4.12,2.7l.08.39a.72.72,0,0,0,.08.4h-9.5l-.4-.79h.4a.88.88,0,0,0,0-1.75H673a.88.88,0,0,0,0,1.75h.79v.07l.64,1.35-1.66,3.25a6.06,6.06,0,0,0-2.38-.48,6.18,6.18,0,1,0,0,12.35,6.31,6.31,0,0,0,6.18-5.07h2.37a.85.85,0,0,0,.63.16,1.21,1.21,0,0,0,1.19-1.19,1,1,0,0,0-.08-.47l4.59-7c.24.79.32,1.59.56,2.38a6.14,6.14,0,0,0-2.69,5,6.25,6.25,0,1,0,6.25-6.18ZM675.19,89l3.48,7a1.14,1.14,0,0,0-.16.48h-1.74a6,6,0,0,0-2.85-5.07Zm-.48,7.44h-3.4L673,93.23A4.2,4.2,0,0,1,674.71,96.48Zm-4.27,4.27a4.2,4.2,0,1,1,0-8.39,4.54,4.54,0,0,1,1.5.24l-2.13,4.11a.68.68,0,0,0,0,.56.63.63,0,0,0,.47.31h4.28A4.18,4.18,0,0,1,670.44,100.75Zm9.34-5.22h0l-3.72-7.29h8.55Zm9.58,5.22a4.24,4.24,0,0,1-4.28-4.19,4.19,4.19,0,0,1,1.27-3,9.34,9.34,0,0,0,2.61,4,.61.61,0,0,0,.4.16.56.56,0,0,0,.39-.16.62.62,0,0,0,0-.87,9,9,0,0,1-2.37-3.8,4.37,4.37,0,0,1,2-.47,4.2,4.2,0,1,1,0,8.39Z"/>
          </g>
        </g>
      </g>
      <g id="Mobile-27" data-name="Mobile">
        <g id="iPhone-8-Copy-4-27" data-name="iPhone-8-Copy-4">
          <g id="bike_icon-20" data-name="bike icon">
            <path id="Shape-39" data-name="Shape" class="cls-2" d="M740,99.44h-2a.62.62,0,0,0-.63.63.58.58,0,0,0,.63.63h2a.63.63,0,0,0,0-1.26Z"/>
            <path id="Shape-40" data-name="Shape" class="cls-2" d="M748.57,91.76a5.69,5.69,0,0,0-2.53.55,19.65,19.65,0,0,1-.4-2.14,1.73,1.73,0,0,0,1.11.4c.87,0,.87-3.17,0-3.17a1.78,1.78,0,0,0-1.35.72V87.8l-.07-.4c-.24-1.9-1.35-4.19-5.47-3.72a.6.6,0,0,0,.08,1.19c3.41-.32,4,1.35,4.12,2.69l.08.4a.67.67,0,0,0,.08.39h-9.5l-.4-.79h.4a.87.87,0,0,0,0-1.74h-2.53a.87.87,0,1,0,0,1.74H733v.08l.63,1.35L732,92.23a6.19,6.19,0,1,0-2.38,11.88A6.31,6.31,0,0,0,735.75,99h2.37a.86.86,0,0,0,.64.16A1.22,1.22,0,0,0,739.94,98a1,1,0,0,0-.08-.47l4.59-7c.24.79.32,1.58.56,2.38a6.13,6.13,0,0,0-2.69,5,6.25,6.25,0,1,0,6.25-6.17ZM734.4,90.41l3.48,7a1.23,1.23,0,0,0-.15.47H736a5.92,5.92,0,0,0-2.85-5.06Zm-.47,7.44h-3.41l1.67-3.24A4.23,4.23,0,0,1,733.93,97.85Zm-4.28,4.28a4.2,4.2,0,1,1,0-8.39,4.88,4.88,0,0,1,1.51.23L729,98.09a.6.6,0,0,0,.47.87h4.28A4.18,4.18,0,0,1,729.65,102.13ZM739,96.9h0l-3.72-7.28h8.55Zm9.58,5.23a4.21,4.21,0,0,1-3-7.21,9.47,9.47,0,0,0,2.61,4,.58.58,0,0,0,.8,0,.63.63,0,0,0,0-.87,9.12,9.12,0,0,1-2.38-3.8,4.37,4.37,0,0,1,2-.47,4.2,4.2,0,1,1,0,8.39Z"/>
          </g>
        </g>
      </g>
      <g id="Mobile-28" data-name="Mobile">
        <g id="iPhone-8-Copy-4-28" data-name="iPhone-8-Copy-4">
          <g id="bike_icon-21" data-name="bike icon">
            <path id="Shape-41" data-name="Shape" class="cls-2" d="M680.65,136.75h-2a.61.61,0,0,0-.63.63.58.58,0,0,0,.63.63h2a.63.63,0,0,0,0-1.26Z"/>
            <path id="Shape-42" data-name="Shape" class="cls-2" d="M689.2,129.07a5.69,5.69,0,0,0-2.53.55,19.65,19.65,0,0,1-.4-2.14,1.71,1.71,0,0,0,1.11.4c.87,0,.87-3.17,0-3.17a1.76,1.76,0,0,0-1.35.72v-.32l-.08-.4c-.23-1.9-1.34-4.19-5.46-3.72a.62.62,0,0,0-.55.64.61.61,0,0,0,.63.55c3.4-.32,4,1.35,4.12,2.69l.08.4a.67.67,0,0,0,.08.39h-9.5l-.4-.79h.4a.87.87,0,1,0,0-1.74h-2.54a.87.87,0,1,0,0,1.74h.8V125l.63,1.35-1.66,3.24a6.19,6.19,0,1,0-2.38,11.88,6.31,6.31,0,0,0,6.18-5.07h2.37a.85.85,0,0,0,.63.16,1.22,1.22,0,0,0,1.19-1.19,1,1,0,0,0-.08-.47l4.59-7c.24.79.32,1.58.56,2.38a6.1,6.1,0,0,0-2.69,5,6.25,6.25,0,1,0,6.25-6.17ZM675,127.72l3.48,7.05a1.1,1.1,0,0,0-.16.47h-1.74a5.91,5.91,0,0,0-2.85-5.06Zm-.47,7.44h-3.41l1.66-3.24A4.21,4.21,0,0,1,674.56,135.16Zm-4.28,4.28a4.2,4.2,0,1,1,0-8.39,4.81,4.81,0,0,1,1.5.23l-2.13,4.12a.66.66,0,0,0,0,.55.64.64,0,0,0,.47.32h4.28A4.18,4.18,0,0,1,670.28,139.44Zm9.34-5.23h0l-3.72-7.28h8.55Zm9.58,5.23a4.2,4.2,0,0,1-3-7.21,9.47,9.47,0,0,0,2.61,4,.58.58,0,0,0,.8,0,.63.63,0,0,0,0-.87,9.12,9.12,0,0,1-2.38-3.8,4.22,4.22,0,1,1,2,7.92Z"/>
          </g>
        </g>
      </g>
      <g id="Mobile-29" data-name="Mobile">
        <g id="iPhone-8-Copy-4-29" data-name="iPhone-8-Copy-4">
          <g id="bike_icon-22" data-name="bike icon">
            <path id="Shape-43" data-name="Shape" class="cls-2" d="M738.83,136.14h-2a.63.63,0,0,0-.64.64.59.59,0,0,0,.64.63h2a.64.64,0,1,0,0-1.27Z"/>
            <path id="Shape-44" data-name="Shape" class="cls-2" d="M747.38,128.47a5.55,5.55,0,0,0-2.53.55,19.65,19.65,0,0,1-.4-2.14,1.73,1.73,0,0,0,1.11.4c.87,0,.87-3.17,0-3.17a1.76,1.76,0,0,0-1.34.71v-.31l-.08-.4c-.24-1.9-1.35-4.19-5.46-3.72a.6.6,0,1,0,.08,1.19c3.4-.32,4,1.34,4.11,2.69l.08.4a.7.7,0,0,0,.08.39h-9.5l-.4-.79h.4a.87.87,0,1,0,0-1.74H731a.87.87,0,0,0,0,1.74h.79v.08l.63,1.35-1.66,3.24a6,6,0,0,0-2.37-.47,6.17,6.17,0,1,0,0,12.34,6.29,6.29,0,0,0,6.17-5.06h2.37a.86.86,0,0,0,.64.16,1.23,1.23,0,0,0,1.19-1.19,1,1,0,0,0-.08-.48l4.59-7c.23.79.31,1.58.55,2.37a6.16,6.16,0,0,0-2.69,5,6.26,6.26,0,1,0,6.25-6.17Zm-14.17-1.35,3.49,7a1.05,1.05,0,0,0-.16.47H734.8a6,6,0,0,0-2.85-5.07Zm-.47,7.44h-3.4l1.66-3.24A4.19,4.19,0,0,1,732.74,134.56Zm-4.28,4.28a4.2,4.2,0,1,1,0-8.4,4.6,4.6,0,0,1,1.51.24l-2.14,4.12a.6.6,0,0,0,.48.87h4.27A4.17,4.17,0,0,1,728.46,138.84Zm9.35-5.23h0l-3.73-7.28h8.55Zm9.57,5.23a4.24,4.24,0,0,1-4.27-4.2,4.15,4.15,0,0,1,1.27-3,9.28,9.28,0,0,0,2.61,4,.58.58,0,0,0,.39.16.6.6,0,0,0,.4-1,9.18,9.18,0,0,1-2.38-3.8,4.29,4.29,0,0,1,2-.48,4.2,4.2,0,1,1,0,8.4Z"/>
          </g>
        </g>
      </g>
      <g id="Mobile-30" data-name="Mobile">
        <g id="iPhone-8-Copy-4-30" data-name="iPhone-8-Copy-4">
          <g id="bike_icon-23" data-name="bike icon">
            <path id="Shape-45" data-name="Shape" class="cls-2" d="M680.61,179.41h-2a.63.63,0,0,0-.63.64.58.58,0,0,0,.63.63h2a.64.64,0,0,0,0-1.27Z"/>
            <path id="Shape-46" data-name="Shape" class="cls-2" d="M689.16,171.74a5.55,5.55,0,0,0-2.53.55,20.1,20.1,0,0,1-.4-2.14,1.71,1.71,0,0,0,1.11.4c.87,0,.87-3.17,0-3.17a1.8,1.8,0,0,0-1.35.71v-.31l-.08-.4c-.23-1.9-1.34-4.19-5.46-3.72a.6.6,0,0,0,.08,1.19c3.41-.32,4,1.34,4.12,2.69l.08.4a.7.7,0,0,0,.08.39h-9.5l-.4-.79h.4a.87.87,0,1,0,0-1.74h-2.54a.87.87,0,1,0,0,1.74h.8v.08l.63,1.34-1.66,3.25a6.05,6.05,0,0,0-2.38-.47,6.17,6.17,0,1,0,0,12.34,6.3,6.3,0,0,0,6.18-5.06h2.37a.85.85,0,0,0,.63.16,1.22,1.22,0,0,0,1.19-1.19,1,1,0,0,0-.08-.48l4.59-7c.24.79.32,1.58.56,2.37a6.14,6.14,0,0,0-2.69,5,6.25,6.25,0,1,0,6.25-6.17ZM675,170.39l3.48,7a1.12,1.12,0,0,0-.15.48h-1.75a5.93,5.93,0,0,0-2.85-5.07Zm-.47,7.44h-3.41l1.66-3.24A4.2,4.2,0,0,1,674.52,177.83Zm-4.28,4.28a4.2,4.2,0,1,1,0-8.4,4.6,4.6,0,0,1,1.51.24l-2.14,4.12a.66.66,0,0,0,0,.55.64.64,0,0,0,.47.32h4.28A4.18,4.18,0,0,1,670.24,182.11Zm9.34-5.23h0l-3.72-7.28h8.55Zm9.58,5.23a4.24,4.24,0,0,1-4.27-4.2,4.18,4.18,0,0,1,1.26-3,9.47,9.47,0,0,0,2.61,4,.58.58,0,0,0,.8,0,.63.63,0,0,0,0-.87,9.18,9.18,0,0,1-2.38-3.8,4.22,4.22,0,1,1,2,7.92Z"/>
          </g>
        </g>
      </g>
      <g id="Mobile-31" data-name="Mobile">
        <g id="iPhone-8-Copy-4-31" data-name="iPhone-8-Copy-4">
          <g id="bike_icon-24" data-name="bike icon">
            <path id="Shape-47" data-name="Shape" class="cls-2" d="M739.31,177.83h-2a.62.62,0,0,0-.63.63.58.58,0,0,0,.63.64h2a.64.64,0,0,0,0-1.27Z"/>
            <path id="Shape-48" data-name="Shape" class="cls-2" d="M747.86,170.15a5.56,5.56,0,0,0-2.53.56,20.58,20.58,0,0,1-.4-2.14A1.7,1.7,0,0,0,746,169c.87,0,.87-3.16,0-3.16a1.78,1.78,0,0,0-1.35.71v-.32l-.08-.39c-.23-1.9-1.34-4.2-5.46-3.72a.6.6,0,0,0-.55.63.61.61,0,0,0,.63.56c3.4-.32,4,1.34,4.12,2.69l.08.39a.81.81,0,0,0,.07.4H734l-.4-.79h.4a.87.87,0,0,0,0-1.74h-2.54a.87.87,0,0,0,0,1.74h.79V166l.64,1.34-1.66,3.25a6.06,6.06,0,0,0-2.38-.48,6.18,6.18,0,1,0,0,12.35,6.29,6.29,0,0,0,6.17-5.07h2.38a.85.85,0,0,0,.63.16,1.21,1.21,0,0,0,1.19-1.18,1,1,0,0,0-.08-.48l4.59-7c.24.8.32,1.59.56,2.38a6.14,6.14,0,0,0-2.7,5,6.26,6.26,0,1,0,6.26-6.18Zm-14.17-1.34,3.48,7a1.14,1.14,0,0,0-.16.48h-1.74a6,6,0,0,0-2.85-5.07Zm-.48,7.44h-3.4l1.66-3.25A4.2,4.2,0,0,1,733.21,176.25Zm-4.27,4.27a4.2,4.2,0,1,1,0-8.39,4.54,4.54,0,0,1,1.5.24l-2.13,4.11a.68.68,0,0,0,0,.56.64.64,0,0,0,.47.32h4.28A4.17,4.17,0,0,1,728.94,180.52Zm9.34-5.22h0L734.56,168h8.55Zm9.58,5.22a4.24,4.24,0,0,1-4.28-4.19,4.19,4.19,0,0,1,1.27-3,9.44,9.44,0,0,0,2.61,4,.61.61,0,0,0,.4.15.58.58,0,0,0,.39-.15.62.62,0,0,0,0-.87,9.16,9.16,0,0,1-2.37-3.8,4.22,4.22,0,1,1,2,7.91Z"/>
          </g>
        </g>
      </g>
      <g id="Mobile-32" data-name="Mobile">
        <g id="iPhone-8-Copy-4-32" data-name="iPhone-8-Copy-4">
          <g id="bike_icon-25" data-name="bike icon">
            <path id="Shape-49" data-name="Shape" class="cls-2" d="M682.75,212.1h-2a.62.62,0,0,0-.63.63.58.58,0,0,0,.63.64h2a.64.64,0,0,0,0-1.27Z"/>
            <path id="Shape-50" data-name="Shape" class="cls-2" d="M691.3,204.42a5.63,5.63,0,0,0-2.54.56c-.15-.72-.31-1.43-.39-2.14a1.68,1.68,0,0,0,1.11.39c.87,0,.87-3.16,0-3.16a1.78,1.78,0,0,0-1.35.71v-.32l-.08-.39c-.24-1.9-1.34-4.2-5.46-3.72a.6.6,0,0,0-.55.63.61.61,0,0,0,.63.56c3.4-.32,4,1.34,4.12,2.69l.07.39a.72.72,0,0,0,.08.4h-9.5l-.39-.79h.39a.87.87,0,1,0,0-1.74h-2.53a.87.87,0,0,0,0,1.74h.79v.08l.64,1.34-1.67,3.25a6,6,0,0,0-2.37-.48,6.18,6.18,0,1,0,0,12.35,6.29,6.29,0,0,0,6.17-5.07h2.38a.84.84,0,0,0,.63.16,1.22,1.22,0,0,0,1.19-1.18,1,1,0,0,0-.08-.48l4.59-7c.24.8.32,1.59.55,2.38a6.16,6.16,0,0,0-2.69,5,6.26,6.26,0,1,0,6.26-6.18Zm-14.17-1.34,3.48,7a1.14,1.14,0,0,0-.16.48h-1.74a6,6,0,0,0-2.85-5.07Zm-.48,7.44h-3.4l1.66-3.25A4.2,4.2,0,0,1,676.65,210.52Zm-4.27,4.27a4.2,4.2,0,1,1,0-8.39,4.54,4.54,0,0,1,1.5.24l-2.13,4.11a.68.68,0,0,0,0,.56.62.62,0,0,0,.47.32h4.27A4.15,4.15,0,0,1,672.38,214.79Zm9.34-5.22h0L678,202.29h8.55Zm9.58,5.22A4.24,4.24,0,0,1,687,210.6a4.19,4.19,0,0,1,1.27-3,9.34,9.34,0,0,0,2.61,4,.61.61,0,0,0,.4.15.58.58,0,0,0,.39-.15.62.62,0,0,0,0-.87,9.06,9.06,0,0,1-2.37-3.8,4.22,4.22,0,1,1,2,7.91Z"/>
          </g>
        </g>
      </g>
      <g id="Mobile-33" data-name="Mobile">
        <g id="iPhone-8-Copy-4-33" data-name="iPhone-8-Copy-4">
          <g id="bike_icon-26" data-name="bike icon">
            <path id="Shape-51" data-name="Shape" class="cls-2" d="M738.59,213.5h-2a.62.62,0,0,0-.63.63.59.59,0,0,0,.63.64h2a.64.64,0,0,0,0-1.27Z"/>
            <path id="Shape-52" data-name="Shape" class="cls-2" d="M747.14,205.82a5.56,5.56,0,0,0-2.53.56,20.58,20.58,0,0,1-.4-2.14,1.71,1.71,0,0,0,1.11.4c.87,0,.87-3.17,0-3.17a1.78,1.78,0,0,0-1.35.71v-.32l-.08-.39c-.23-1.9-1.34-4.2-5.46-3.72a.6.6,0,0,0,.08,1.19c3.4-.32,4,1.34,4.12,2.69l.08.39a.72.72,0,0,0,.08.4h-9.5l-.4-.79h.4a.87.87,0,0,0,0-1.74h-2.54a.87.87,0,0,0,0,1.74h.8v.08l.63,1.34-1.66,3.25a6.06,6.06,0,0,0-2.38-.48,6.18,6.18,0,1,0,0,12.35,6.31,6.31,0,0,0,6.18-5.06h2.37a.89.89,0,0,0,.63.15,1.21,1.21,0,0,0,1.19-1.18,1,1,0,0,0-.08-.48l4.59-7c.24.79.32,1.58.56,2.37a6.14,6.14,0,0,0-2.69,5,6.25,6.25,0,1,0,6.25-6.18ZM733,204.48l3.48,7a1.14,1.14,0,0,0-.16.48h-1.74a6,6,0,0,0-2.85-5.07Zm-.48,7.44h-3.4l1.66-3.25A4.2,4.2,0,0,1,732.49,211.92Zm-4.27,4.27a4.2,4.2,0,1,1,0-8.39,4.54,4.54,0,0,1,1.5.24l-2.13,4.12a.66.66,0,0,0,0,.55.64.64,0,0,0,.47.32h4.28A4.17,4.17,0,0,1,728.22,216.19Zm9.34-5.22h0l-3.72-7.28h8.55Zm9.58,5.22a4.24,4.24,0,0,1-4.28-4.19,4.19,4.19,0,0,1,1.27-3,9.53,9.53,0,0,0,2.61,4,.61.61,0,0,0,.4.16.56.56,0,0,0,.39-.16.62.62,0,0,0,0-.87,9.27,9.27,0,0,1-2.37-3.8,4.22,4.22,0,1,1,2,7.91Z"/>
          </g>
        </g>
      </g>
      <g id="Mobile-34" data-name="Mobile">
        <g id="iPhone-8-Copy-4-34" data-name="iPhone-8-Copy-4">
          <g id="bike_icon-27" data-name="bike icon">
            <path id="Shape-53" data-name="Shape" class="cls-2" d="M710.34,158.88h-2a.63.63,0,0,0-.64.64.59.59,0,0,0,.64.63h2a.64.64,0,0,0,0-1.27Z"/>
            <path id="Shape-54" data-name="Shape" class="cls-2" d="M718.88,151.2a5.56,5.56,0,0,0-2.53.56,17.83,17.83,0,0,1-.39-2.14,1.68,1.68,0,0,0,1.1.4c.87,0,.87-3.17,0-3.17a1.76,1.76,0,0,0-1.34.71v-.31l-.08-.4c-.24-1.9-1.35-4.19-5.46-3.72a.6.6,0,1,0,.08,1.19c3.4-.32,4,1.34,4.11,2.69l.08.4a.7.7,0,0,0,.08.39H705l-.39-.79H705a.87.87,0,1,0,0-1.74H702.5a.87.87,0,0,0,0,1.74h.79v.08l.63,1.34-1.66,3.25a6,6,0,0,0-2.37-.48,6.18,6.18,0,1,0,0,12.35,6.29,6.29,0,0,0,6.17-5.06h2.38a.83.83,0,0,0,.63.16,1.23,1.23,0,0,0,1.19-1.19,1,1,0,0,0-.08-.48l4.59-7c.24.79.31,1.58.55,2.37a6.16,6.16,0,0,0-2.69,5,6.26,6.26,0,1,0,6.25-6.18Zm-14.16-1.34,3.48,7a1.14,1.14,0,0,0-.16.48H706.3a6,6,0,0,0-2.85-5.07Zm-.48,7.44h-3.4l1.66-3.25A4.22,4.22,0,0,1,704.24,157.3ZM700,161.57a4.2,4.2,0,1,1,0-8.39,4.58,4.58,0,0,1,1.5.24l-2.14,4.12a.6.6,0,0,0,.48.87h4.27A4.16,4.16,0,0,1,700,161.57Zm9.34-5.22h0l-3.72-7.28h8.54Zm9.57,5.22a4.24,4.24,0,0,1-4.27-4.19,4.15,4.15,0,0,1,1.27-3,9.28,9.28,0,0,0,2.61,4,.57.57,0,0,0,.79,0,.62.62,0,0,0,0-.87,9.06,9.06,0,0,1-2.37-3.8,4.22,4.22,0,1,1,2,7.91Z"/>
          </g>
        </g>
      </g>
    </g>
  </g>
  <g>
    <text class="cls-3" transform="translate(63.93 324)"><tspan xml:space="preserve"> 8</tspan></text>
    <text class="cls-4" transform="translate(204.02 537.79) rotate(-179.88)"><tspan xml:space="preserve"> 8</tspan></text>
    <path class="cls-2" d="M73.34,328.56a88.46,88.46,0,0,1-8.5,11.51,122.4,122.4,0,0,1,8.5,11.51,142.12,142.12,0,0,1,8.48-11.51A101.18,101.18,0,0,1,73.34,328.56Z"/>
    <path class="cls-2" d="M194.51,510.09A89.15,89.15,0,0,1,186,521.6a122.4,122.4,0,0,1,8.5,11.51A142.12,142.12,0,0,1,203,521.6,101.18,101.18,0,0,1,194.51,510.09Z"/>
    <g>
      <g id="Mobile-35" data-name="Mobile">
        <g id="iPhone-8-Copy-4-35" data-name="iPhone-8-Copy-4">
          <g id="bike_icon-28" data-name="bike icon">
            <path id="Shape-55" data-name="Shape" class="cls-2" d="M104.85,381.91h-2a.63.63,0,0,0-.64.64.59.59,0,0,0,.64.63h2a.64.64,0,0,0,0-1.27Z"/>
            <path id="Shape-56" data-name="Shape" class="cls-2" d="M113.4,374.24a5.57,5.57,0,0,0-2.54.55,19.61,19.61,0,0,1-.39-2.14,1.68,1.68,0,0,0,1.1.4c.88,0,.88-3.17,0-3.17a1.78,1.78,0,0,0-1.34.71v-.31l-.08-.4c-.24-1.9-1.35-4.19-5.46-3.72a.6.6,0,1,0,.08,1.19c3.4-.32,4,1.34,4.11,2.69l.08.4a.7.7,0,0,0,.08.39h-9.5l-.39-.79h.39a.87.87,0,0,0,0-1.74H97A.87.87,0,1,0,97,370h.79v.08l.63,1.35-1.66,3.24a6,6,0,0,0-2.37-.47,6.17,6.17,0,1,0,0,12.34,6.29,6.29,0,0,0,6.17-5.06H103a.83.83,0,0,0,.63.16,1.23,1.23,0,0,0,1.19-1.19,1,1,0,0,0-.08-.48l4.59-7c.24.79.32,1.58.55,2.37a6.16,6.16,0,0,0-2.69,5,6.26,6.26,0,1,0,6.26-6.17Zm-14.17-1.35,3.48,7.05a1.05,1.05,0,0,0-.16.47h-1.74A6,6,0,0,0,98,375.34Zm-.48,7.44h-3.4L97,377.09A4.19,4.19,0,0,1,98.75,380.33Zm-4.27,4.28a4.2,4.2,0,1,1,0-8.4,4.54,4.54,0,0,1,1.5.24l-2.14,4.12a.6.6,0,0,0,.48.87h4.27A4.16,4.16,0,0,1,94.48,384.61Zm9.34-5.23h0l-3.72-7.28h8.55Zm9.58,5.23a4.24,4.24,0,0,1-4.28-4.2,4.19,4.19,0,0,1,1.27-3,9.28,9.28,0,0,0,2.61,4,.59.59,0,1,0,.79-.87,9.06,9.06,0,0,1-2.37-3.8,4.22,4.22,0,1,1,2,7.92Z"/>
          </g>
        </g>
      </g>
      <g id="Mobile-36" data-name="Mobile">
        <g id="iPhone-8-Copy-4-36" data-name="iPhone-8-Copy-4">
          <g id="bike_icon-29" data-name="bike icon">
            <path id="Shape-57" data-name="Shape" class="cls-2" d="M164.06,383.29h-2a.62.62,0,0,0-.63.63.58.58,0,0,0,.63.64h2a.64.64,0,0,0,0-1.27Z"/>
            <path id="Shape-58" data-name="Shape" class="cls-2" d="M172.61,375.61a5.63,5.63,0,0,0-2.54.56c-.15-.72-.31-1.43-.39-2.14a1.71,1.71,0,0,0,1.11.4c.87,0,.87-3.17,0-3.17a1.78,1.78,0,0,0-1.35.71v-.31l-.08-.4c-.24-1.9-1.34-4.2-5.46-3.72a.6.6,0,0,0,.08,1.19c3.4-.32,4,1.34,4.12,2.69l.07.39a.72.72,0,0,0,.08.4h-9.5l-.39-.79h.39a.87.87,0,1,0,0-1.74h-2.53a.87.87,0,1,0,0,1.74H157v.08l.64,1.34L156,376.09a6,6,0,0,0-2.37-.48,6.18,6.18,0,1,0,0,12.35,6.28,6.28,0,0,0,6.17-5.06h2.38a.88.88,0,0,0,.63.15,1.21,1.21,0,0,0,1.19-1.18,1,1,0,0,0-.08-.48l4.59-7c.24.79.32,1.58.56,2.37a6.14,6.14,0,0,0-2.7,5,6.26,6.26,0,1,0,6.26-6.18Zm-14.17-1.34,3.48,7a1.14,1.14,0,0,0-.16.48H160a6,6,0,0,0-2.85-5.07Zm-.48,7.44h-3.4l1.66-3.25A4.2,4.2,0,0,1,158,381.71ZM153.69,386a4.2,4.2,0,1,1,0-8.39,4.54,4.54,0,0,1,1.5.24L153.06,382a.66.66,0,0,0,0,.55.62.62,0,0,0,.47.32h4.27A4.15,4.15,0,0,1,153.69,386Zm9.34-5.22h0l-3.72-7.28h8.55Zm9.58,5.22a4.24,4.24,0,0,1-4.28-4.19,4.19,4.19,0,0,1,1.27-3,9.34,9.34,0,0,0,2.61,4,.61.61,0,0,0,.4.16.58.58,0,0,0,.39-.16.62.62,0,0,0,0-.87,9.06,9.06,0,0,1-2.37-3.8,4.22,4.22,0,1,1,2,7.91Z"/>
          </g>
        </g>
      </g>
      <g id="Mobile-37" data-name="Mobile">
        <g id="iPhone-8-Copy-4-37" data-name="iPhone-8-Copy-4">
          <g id="bike_icon-30" data-name="bike icon">
            <path id="Shape-59" data-name="Shape" class="cls-2" d="M104.69,420.6h-2a.63.63,0,0,0-.64.63.59.59,0,0,0,.64.64h2a.64.64,0,0,0,0-1.27Z"/>
            <path id="Shape-60" data-name="Shape" class="cls-2" d="M113.24,412.92a5.61,5.61,0,0,0-2.54.56,20.52,20.52,0,0,1-.39-2.14,1.69,1.69,0,0,0,1.11.4c.87,0,.87-3.17,0-3.17a1.78,1.78,0,0,0-1.35.71V409l-.08-.39c-.24-1.9-1.35-4.2-5.46-3.72a.6.6,0,1,0,.08,1.19c3.4-.32,4,1.34,4.11,2.69l.08.39a.72.72,0,0,0,.08.4h-9.5l-.39-.79h.39a.87.87,0,0,0,0-1.74H96.85a.87.87,0,1,0,0,1.74h.79v.08l.64,1.34-1.67,3.25a6,6,0,0,0-2.37-.48,6.18,6.18,0,1,0,0,12.35,6.28,6.28,0,0,0,6.17-5.06h2.38a.88.88,0,0,0,.63.15,1.22,1.22,0,0,0,1.19-1.18,1,1,0,0,0-.08-.48l4.59-7c.24.79.32,1.58.55,2.37a6.16,6.16,0,0,0-2.69,5,6.26,6.26,0,1,0,6.26-6.18Zm-14.17-1.34,3.48,7a1.14,1.14,0,0,0-.16.48h-1.74A6,6,0,0,0,97.8,414ZM98.59,419h-3.4l1.66-3.25A4.2,4.2,0,0,1,98.59,419Zm-4.27,4.27a4.2,4.2,0,1,1,0-8.39,4.54,4.54,0,0,1,1.5.24l-2.14,4.12a.6.6,0,0,0,.48.87h4.27A4.15,4.15,0,0,1,94.32,423.29Zm9.34-5.22h0l-3.72-7.28h8.55Zm9.58,5.22A4.24,4.24,0,0,1,109,419.1a4.19,4.19,0,0,1,1.27-3,9.34,9.34,0,0,0,2.61,4,.59.59,0,0,0,.79-.87,9.06,9.06,0,0,1-2.37-3.8,4.22,4.22,0,1,1,2,7.91Z"/>
          </g>
        </g>
      </g>
      <g id="Mobile-38" data-name="Mobile">
        <g id="iPhone-8-Copy-4-38" data-name="iPhone-8-Copy-4">
          <g id="bike_icon-31" data-name="bike icon">
            <path id="Shape-61" data-name="Shape" class="cls-2" d="M162.87,420h-2a.63.63,0,0,0-.63.63.59.59,0,0,0,.63.64h2a.64.64,0,0,0,0-1.27Z"/>
            <path id="Shape-62" data-name="Shape" class="cls-2" d="M171.42,412.32a5.56,5.56,0,0,0-2.53.56,20.58,20.58,0,0,1-.4-2.14,1.7,1.7,0,0,0,1.11.39c.87,0,.87-3.16,0-3.16a1.77,1.77,0,0,0-1.35.71v-.32l-.08-.39c-.23-1.9-1.34-4.2-5.46-3.72a.59.59,0,1,0,.08,1.18c3.41-.31,4,1.35,4.12,2.7l.08.39a.72.72,0,0,0,.08.4h-9.5l-.4-.79h.4a.88.88,0,0,0,0-1.75H155a.88.88,0,0,0,0,1.75h.8v.08l.63,1.34-1.66,3.25a6.06,6.06,0,0,0-2.38-.48,6.18,6.18,0,1,0,0,12.35,6.31,6.31,0,0,0,6.18-5.07H161a.85.85,0,0,0,.63.16,1.21,1.21,0,0,0,1.19-1.19,1,1,0,0,0-.08-.47l4.59-7c.24.8.32,1.59.56,2.38a6.14,6.14,0,0,0-2.69,5,6.25,6.25,0,1,0,6.25-6.18ZM157.25,411l3.48,7a1.12,1.12,0,0,0-.15.48h-1.75a5.93,5.93,0,0,0-2.85-5.07Zm-.47,7.44h-3.41l1.66-3.25A4.22,4.22,0,0,1,156.78,418.42Zm-4.28,4.27a4.2,4.2,0,1,1,0-8.39,4.6,4.6,0,0,1,1.51.24l-2.14,4.11a.68.68,0,0,0,0,.56.63.63,0,0,0,.47.31h4.28A4.18,4.18,0,0,1,152.5,422.69Zm9.34-5.22h0l-3.72-7.29h8.55Zm9.58,5.22a4.24,4.24,0,0,1-4.27-4.19,4.18,4.18,0,0,1,1.26-3,9.53,9.53,0,0,0,2.61,4,.61.61,0,0,0,.8,0,.65.65,0,0,0,0-.88,9.09,9.09,0,0,1-2.38-3.79,4.22,4.22,0,1,1,2,7.91Z"/>
          </g>
        </g>
      </g>
      <g id="Mobile-39" data-name="Mobile">
        <g id="iPhone-8-Copy-4-39" data-name="iPhone-8-Copy-4">
          <g id="bike_icon-32" data-name="bike icon">
            <path id="Shape-63" data-name="Shape" class="cls-2" d="M104.65,463.27h-2a.62.62,0,0,0-.63.63.58.58,0,0,0,.63.64h2a.64.64,0,0,0,0-1.27Z"/>
            <path id="Shape-64" data-name="Shape" class="cls-2" d="M113.2,455.59a5.73,5.73,0,0,0-2.54.55c-.15-.71-.31-1.42-.39-2.13a1.73,1.73,0,0,0,1.11.39c.87,0,.87-3.16,0-3.16A1.75,1.75,0,0,0,110,452v-.32l-.08-.39c-.24-1.9-1.34-4.2-5.46-3.72a.59.59,0,1,0,.08,1.18c3.4-.31,4,1.35,4.11,2.7l.08.39a.72.72,0,0,0,.08.4h-9.5L99,451.4h.39a.88.88,0,0,0,0-1.75H96.81a.88.88,0,0,0,0,1.75h.79v.07l.64,1.35-1.67,3.25a6,6,0,0,0-2.37-.48,6.18,6.18,0,1,0,0,12.35,6.29,6.29,0,0,0,6.17-5.07h2.38a.84.84,0,0,0,.63.16,1.22,1.22,0,0,0,1.19-1.19,1,1,0,0,0-.08-.47l4.59-7c.24.79.32,1.59.55,2.38a6.16,6.16,0,0,0-2.69,5,6.26,6.26,0,1,0,6.26-6.17ZM99,454.24l3.48,7.05a1.14,1.14,0,0,0-.16.47h-1.74a6,6,0,0,0-2.85-5.06Zm-.48,7.45h-3.4l1.66-3.25A4.2,4.2,0,0,1,98.55,461.69ZM94.28,466a4.2,4.2,0,1,1,0-8.39,4.54,4.54,0,0,1,1.5.24l-2.14,4.11a.77.77,0,0,0,0,.56.65.65,0,0,0,.48.31h4.27A4.16,4.16,0,0,1,94.28,466Zm9.34-5.22h0l-3.72-7.29h8.55ZM113.2,466a4.24,4.24,0,0,1-4.28-4.2,4.19,4.19,0,0,1,1.27-3,9.25,9.25,0,0,0,2.61,3.95.59.59,0,0,0,.79-.87,9,9,0,0,1-2.37-3.8,4.34,4.34,0,0,1,2-.47,4.2,4.2,0,1,1,0,8.39Z"/>
          </g>
        </g>
      </g>
      <g id="Mobile-40" data-name="Mobile">
        <g id="iPhone-8-Copy-4-40" data-name="iPhone-8-Copy-4">
          <g id="bike_icon-33" data-name="bike icon">
            <path id="Shape-65" data-name="Shape" class="cls-2" d="M163.35,461.69h-2a.62.62,0,0,0-.64.63.59.59,0,0,0,.64.63h2a.63.63,0,0,0,.63-.63A.62.62,0,0,0,163.35,461.69Z"/>
            <path id="Shape-66" data-name="Shape" class="cls-2" d="M171.89,454a5.69,5.69,0,0,0-2.53.55,19.61,19.61,0,0,1-.39-2.14,1.68,1.68,0,0,0,1.1.4c.87,0,.87-3.17,0-3.17a1.76,1.76,0,0,0-1.34.72v-.32l-.08-.4c-.24-1.9-1.35-4.19-5.46-3.72a.6.6,0,1,0,.08,1.19c3.4-.32,3.95,1.35,4.11,2.69l.08.4a.67.67,0,0,0,.08.39H158l-.39-.79H158a.87.87,0,1,0,0-1.74h-2.53a.87.87,0,0,0,0,1.74h.79v.08l.63,1.35-1.66,3.24a6.25,6.25,0,0,0-8.63,5.7,6.27,6.27,0,0,0,12.43,1.11h2.38a.83.83,0,0,0,.63.16,1.23,1.23,0,0,0,1.19-1.19,1,1,0,0,0-.08-.47l4.59-7c.24.79.32,1.58.55,2.37a6.16,6.16,0,0,0-2.69,5,6.26,6.26,0,1,0,6.25-6.17Zm-14.16-1.35,3.48,7a1.1,1.1,0,0,0-.16.47h-1.74a5.93,5.93,0,0,0-2.85-5.06Zm-.48,7.44h-3.4l1.66-3.24A4.2,4.2,0,0,1,157.25,460.1ZM153,464.38a4.2,4.2,0,1,1,0-8.39,4.81,4.81,0,0,1,1.5.23l-2.14,4.12a.6.6,0,0,0,.48.87h4.27A4.16,4.16,0,0,1,153,464.38Zm9.34-5.23h0l-3.72-7.28h8.55Zm9.57,5.23a4.2,4.2,0,0,1-3-7.21,9.28,9.28,0,0,0,2.61,4,.57.57,0,0,0,.79,0,.62.62,0,0,0,0-.87,9,9,0,0,1-2.37-3.8,4.22,4.22,0,1,1,2,7.92Z"/>
          </g>
        </g>
      </g>
      <g id="Mobile-41" data-name="Mobile">
        <g id="iPhone-8-Copy-4-41" data-name="iPhone-8-Copy-4">
          <g id="bike_icon-34" data-name="bike icon">
            <path id="Shape-67" data-name="Shape" class="cls-2" d="M106.78,496h-2a.62.62,0,0,0-.64.63.59.59,0,0,0,.64.63h2a.63.63,0,0,0,.64-.63A.62.62,0,0,0,106.78,496Z"/>
            <path id="Shape-68" data-name="Shape" class="cls-2" d="M115.33,488.28a5.69,5.69,0,0,0-2.53.55,19.65,19.65,0,0,1-.4-2.14,1.73,1.73,0,0,0,1.11.4c.87,0,.87-3.17,0-3.17a1.74,1.74,0,0,0-1.34.72v-.32l-.08-.4c-.24-1.9-1.35-4.19-5.46-3.72a.6.6,0,1,0,.08,1.19c3.4-.32,4,1.35,4.11,2.69l.08.4a.67.67,0,0,0,.08.39h-9.5l-.39-.79h.39a.87.87,0,0,0,0-1.74H99a.87.87,0,1,0,0,1.74h.79v.08l.63,1.35-1.66,3.24a6.25,6.25,0,0,0-8.63,5.7,6.27,6.27,0,0,0,12.43,1.11h2.37a.86.86,0,0,0,.64.16,1.23,1.23,0,0,0,1.19-1.19,1,1,0,0,0-.08-.47l4.59-7c.23.79.31,1.58.55,2.37a6.16,6.16,0,0,0-2.69,5,6.26,6.26,0,1,0,6.25-6.17Zm-14.17-1.35,3.49,7.05a1.1,1.1,0,0,0-.16.47h-1.74a5.93,5.93,0,0,0-2.85-5.06Zm-.47,7.44h-3.4L99,491.13A4.2,4.2,0,0,1,100.69,494.37Zm-4.28,4.28a4.2,4.2,0,1,1,0-8.39,4.88,4.88,0,0,1,1.51.23l-2.14,4.12a.6.6,0,0,0,.48.87h4.27A4.17,4.17,0,0,1,96.41,498.65Zm9.35-5.23h0L102,486.14h8.54Zm9.57,5.23a4.24,4.24,0,0,1-4.27-4.2,4.17,4.17,0,0,1,1.27-3,9.28,9.28,0,0,0,2.61,4,.57.57,0,0,0,.79,0,.62.62,0,0,0,0-.87,9.12,9.12,0,0,1-2.38-3.8,4.22,4.22,0,1,1,2,7.92Z"/>
          </g>
        </g>
      </g>
      <g id="Mobile-42" data-name="Mobile">
        <g id="iPhone-8-Copy-4-42" data-name="iPhone-8-Copy-4">
          <g id="bike_icon-35" data-name="bike icon">
            <path id="Shape-69" data-name="Shape" class="cls-2" d="M162.63,497.36h-2a.62.62,0,0,0-.64.63.58.58,0,0,0,.64.63h2a.63.63,0,0,0,0-1.26Z"/>
            <path id="Shape-70" data-name="Shape" class="cls-2" d="M171.18,489.68a5.73,5.73,0,0,0-2.54.55,19.61,19.61,0,0,1-.39-2.14,1.69,1.69,0,0,0,1.11.4c.87,0,.87-3.17,0-3.17A1.76,1.76,0,0,0,168,486v-.32l-.08-.4c-.24-1.9-1.35-4.19-5.46-3.72a.6.6,0,1,0,.08,1.19c3.4-.32,4,1.35,4.11,2.69l.08.4a.67.67,0,0,0,.08.39h-9.5l-.39-.79h.39a.87.87,0,1,0,0-1.74h-2.53a.87.87,0,1,0,0,1.74h.79v.08l.63,1.35-1.66,3.24a6.25,6.25,0,0,0-8.63,5.7A6.27,6.27,0,0,0,158.35,497h2.38a.84.84,0,0,0,.63.16,1.23,1.23,0,0,0,1.19-1.19,1,1,0,0,0-.08-.47l4.59-7c.24.79.32,1.58.55,2.38a6.13,6.13,0,0,0-2.69,5,6.26,6.26,0,1,0,6.26-6.17ZM157,488.33l3.48,7.05a1.1,1.1,0,0,0-.16.47h-1.74a5.93,5.93,0,0,0-2.85-5.06Zm-.48,7.44h-3.4l1.66-3.24A4.2,4.2,0,0,1,156.53,495.77Zm-4.27,4.28a4.2,4.2,0,1,1,0-8.39,4.81,4.81,0,0,1,1.5.23L151.62,496a.6.6,0,0,0,.48.87h4.27A4.16,4.16,0,0,1,152.26,500.05Zm9.34-5.23h0l-3.72-7.28h8.55Zm9.58,5.23a4.2,4.2,0,0,1-3-7.21,9.28,9.28,0,0,0,2.61,4,.59.59,0,1,0,.79-.87,9,9,0,0,1-2.37-3.8,4.22,4.22,0,1,1,2,7.92Z"/>
          </g>
        </g>
      </g>
    </g>
  </g>
  <g>
    <text class="cls-3" transform="translate(448.7 41.71)">10</text>
    <text class="cls-4" transform="translate(588.79 255.5) rotate(-179.88)">10</text>
    <path class="cls-2" d="M458.12,46.27a89.43,89.43,0,0,1-8.51,11.51,124.29,124.29,0,0,1,8.51,11.51,139.62,139.62,0,0,1,8.47-11.51A99.92,99.92,0,0,1,458.12,46.27Z"/>
    <path class="cls-2" d="M579.28,227.8a89.15,89.15,0,0,1-8.5,11.51,123.57,123.57,0,0,1,8.5,11.5c2.57-3.9,5.41-7.72,8.48-11.5A101.18,101.18,0,0,1,579.28,227.8Z"/>
    <g>
      <g id="Mobile-43" data-name="Mobile">
        <g id="iPhone-8-Copy-4-43" data-name="iPhone-8-Copy-4">
          <g id="bike_icon-36" data-name="bike icon">
            <path id="Shape-71" data-name="Shape" class="cls-2" d="M487.58,85.41h-2a.63.63,0,0,0-.63.64.58.58,0,0,0,.63.63h2a.64.64,0,1,0,0-1.27Z"/>
            <path id="Shape-72" data-name="Shape" class="cls-2" d="M496.13,77.73a5.56,5.56,0,0,0-2.53.56,20.1,20.1,0,0,1-.4-2.14,1.73,1.73,0,0,0,1.11.4c.87,0,.87-3.17,0-3.17a1.76,1.76,0,0,0-1.34.71v-.31l-.08-.4c-.24-1.9-1.35-4.19-5.47-3.72a.6.6,0,0,0,.08,1.19c3.41-.32,4,1.34,4.12,2.69l.08.4a.7.7,0,0,0,.08.39h-9.5l-.4-.79h.4a.87.87,0,0,0,0-1.74h-2.53a.87.87,0,0,0,0,1.74h.79v.08l.63,1.34-1.66,3.25a6,6,0,0,0-2.38-.48,6.18,6.18,0,1,0,0,12.35A6.3,6.3,0,0,0,483.31,85h2.37a.86.86,0,0,0,.64.16A1.22,1.22,0,0,0,487.5,84a1,1,0,0,0-.08-.48l4.6-7c.23.79.31,1.58.55,2.37a6.16,6.16,0,0,0-2.69,5,6.26,6.26,0,1,0,6.25-6.18ZM482,76.39l3.49,7a1.14,1.14,0,0,0-.16.48h-1.74a6,6,0,0,0-2.85-5.07Zm-.47,7.44h-3.41l1.67-3.25A4.22,4.22,0,0,1,481.49,83.83Zm-4.28,4.27a4.2,4.2,0,1,1,0-8.39,4.6,4.6,0,0,1,1.51.24l-2.14,4.12a.6.6,0,0,0,.48.87h4.27A4.17,4.17,0,0,1,477.21,88.1Zm9.34-5.22h0l-3.72-7.28h8.55Zm9.58,5.22a4.24,4.24,0,0,1-4.27-4.19,4.18,4.18,0,0,1,1.26-3,9.4,9.4,0,0,0,2.62,4,.58.58,0,0,0,.39.16.6.6,0,0,0,.4-1,9.18,9.18,0,0,1-2.38-3.8,4.29,4.29,0,0,1,2-.48,4.2,4.2,0,1,1,0,8.39Z"/>
          </g>
        </g>
      </g>
      <g id="Mobile-44" data-name="Mobile">
        <g id="iPhone-8-Copy-4-44" data-name="iPhone-8-Copy-4">
          <g id="bike_icon-37" data-name="bike icon">
            <path id="Shape-73" data-name="Shape" class="cls-2" d="M546.8,86.79h-2a.63.63,0,0,0-.64.63.59.59,0,0,0,.64.64h2a.64.64,0,0,0,0-1.27Z"/>
            <path id="Shape-74" data-name="Shape" class="cls-2" d="M555.34,79.11a5.56,5.56,0,0,0-2.53.56,18.2,18.2,0,0,1-.39-2.14,1.67,1.67,0,0,0,1.1.39c.87,0,.87-3.16,0-3.16a1.76,1.76,0,0,0-1.34.71v-.32l-.08-.39c-.24-1.9-1.35-4.2-5.46-3.72a.61.61,0,0,0-.56.63.62.62,0,0,0,.64.56c3.4-.32,3.95,1.34,4.11,2.69l.08.39a.72.72,0,0,0,.08.4h-9.5l-.39-.79h.39a.87.87,0,1,0,0-1.74H539a.87.87,0,0,0,0,1.74h.79V75l.63,1.34-1.66,3.25a6,6,0,0,0-2.37-.48,6.18,6.18,0,1,0,0,12.35,6.3,6.3,0,0,0,6.17-5.07h2.38a.83.83,0,0,0,.63.16,1.22,1.22,0,0,0,1.19-1.18,1,1,0,0,0-.08-.48l4.59-7c.24.8.31,1.59.55,2.38a6.16,6.16,0,0,0-2.69,5,6.26,6.26,0,1,0,6.25-6.18Zm-14.17-1.34,3.49,7a1.14,1.14,0,0,0-.16.48h-1.74a6,6,0,0,0-2.85-5.07Zm-.47,7.44h-3.4L539,82A4.2,4.2,0,0,1,540.7,85.21Zm-4.27,4.27a4.2,4.2,0,1,1,0-8.39,4.58,4.58,0,0,1,1.5.24l-2.14,4.11a.68.68,0,0,0,0,.56.66.66,0,0,0,.48.32h4.27A4.16,4.16,0,0,1,536.43,89.48Zm9.34-5.22h0L542.05,77h8.54Zm9.57,5.22a4.24,4.24,0,0,1-4.27-4.19,4.15,4.15,0,0,1,1.27-3,9.34,9.34,0,0,0,2.61,4,.6.6,0,0,0,.39.15.61.61,0,0,0,.4-.15.62.62,0,0,0,0-.87,9.06,9.06,0,0,1-2.37-3.8,4.22,4.22,0,1,1,2,7.91Z"/>
          </g>
        </g>
      </g>
      <g id="Mobile-45" data-name="Mobile">
        <g id="iPhone-8-Copy-4-45" data-name="iPhone-8-Copy-4">
          <g id="bike_icon-38" data-name="bike icon">
            <path id="Shape-75" data-name="Shape" class="cls-2" d="M489.09,142.3h-2a.63.63,0,0,0-.64.63.59.59,0,0,0,.64.64h2a.64.64,0,0,0,0-1.27Z"/>
            <path id="Shape-76" data-name="Shape" class="cls-2" d="M497.64,134.62a5.58,5.58,0,0,0-2.54.56,20.52,20.52,0,0,1-.39-2.14,1.68,1.68,0,0,0,1.1.4c.88,0,.88-3.17,0-3.17a1.78,1.78,0,0,0-1.34.71v-.32l-.08-.39c-.24-1.9-1.35-4.2-5.46-3.72a.6.6,0,1,0,.08,1.19c3.4-.32,3.95,1.34,4.11,2.69l.08.39a.72.72,0,0,0,.08.4h-9.5l-.39-.79h.39a.87.87,0,0,0,0-1.74h-2.53a.87.87,0,0,0,0,1.74H482v.08l.63,1.34L481,135.1a6,6,0,0,0-2.37-.48,6.18,6.18,0,1,0,0,12.35,6.3,6.3,0,0,0,6.17-5.06h2.38a.87.87,0,0,0,.63.15,1.22,1.22,0,0,0,1.19-1.18,1,1,0,0,0-.08-.48l4.59-7c.24.79.32,1.58.55,2.37a6.16,6.16,0,0,0-2.69,5,6.26,6.26,0,1,0,6.26-6.18Zm-14.17-1.34,3.48,7a1.14,1.14,0,0,0-.16.48h-1.74a6,6,0,0,0-2.85-5.07Zm-.48,7.44h-3.4l1.66-3.25A4.2,4.2,0,0,1,483,140.72ZM478.72,145a4.2,4.2,0,1,1,0-8.39,4.54,4.54,0,0,1,1.5.24L478.08,141a.6.6,0,0,0,.48.87h4.27A4.15,4.15,0,0,1,478.72,145Zm9.34-5.22h0l-3.72-7.28h8.55Zm9.58,5.22a4.24,4.24,0,0,1-4.28-4.19,4.19,4.19,0,0,1,1.27-3,9.34,9.34,0,0,0,2.61,4,.59.59,0,1,0,.79-.87,9.06,9.06,0,0,1-2.37-3.8,4.22,4.22,0,1,1,2,7.91Z"/>
          </g>
        </g>
      </g>
      <g id="Mobile-46" data-name="Mobile">
        <g id="iPhone-8-Copy-4-46" data-name="iPhone-8-Copy-4">
          <g id="bike_icon-39" data-name="bike icon">
            <path id="Shape-77" data-name="Shape" class="cls-2" d="M548.3,143.68h-2a.62.62,0,0,0-.63.63.57.57,0,0,0,.63.63h2a.62.62,0,0,0,.63-.63A.63.63,0,0,0,548.3,143.68Z"/>
            <path id="Shape-78" data-name="Shape" class="cls-2" d="M556.85,136a5.76,5.76,0,0,0-2.54.55c-.15-.71-.31-1.42-.39-2.13a1.73,1.73,0,0,0,1.11.39c.87,0,.87-3.16,0-3.16a1.75,1.75,0,0,0-1.35.71V132l-.08-.39c-.24-1.9-1.34-4.2-5.46-3.72a.59.59,0,0,0,.08,1.18c3.4-.31,4,1.35,4.11,2.69l.08.4a.72.72,0,0,0,.08.4H543l-.39-.8H543a.87.87,0,1,0,0-1.74h-2.53a.87.87,0,0,0,0,1.74h.79v.08l.64,1.35-1.67,3.25a6,6,0,0,0-2.37-.48,6.18,6.18,0,1,0,0,12.35,6.29,6.29,0,0,0,6.17-5.07h2.38a.84.84,0,0,0,.63.16,1.22,1.22,0,0,0,1.19-1.19,1,1,0,0,0-.08-.47l4.59-7c.24.79.32,1.59.55,2.38a6.16,6.16,0,0,0-2.69,5,6.26,6.26,0,1,0,6.26-6.17Zm-14.17-1.35,3.48,7a1.14,1.14,0,0,0-.16.47h-1.74a6,6,0,0,0-2.85-5.06Zm-.48,7.45h-3.4l1.66-3.25A4.2,4.2,0,0,1,542.2,142.1Zm-4.27,4.27a4.2,4.2,0,1,1,0-8.39,4.54,4.54,0,0,1,1.5.24l-2.13,4.11a.68.68,0,0,0,0,.56.61.61,0,0,0,.47.31H542A4.16,4.16,0,0,1,537.93,146.37Zm9.34-5.22h0l-3.72-7.29h8.55Zm9.58,5.22a4.24,4.24,0,0,1-4.28-4.2,4.19,4.19,0,0,1,1.27-3,9.25,9.25,0,0,0,2.61,4,.61.61,0,0,0,.4.16.58.58,0,0,0,.39-.16.62.62,0,0,0,0-.87,9,9,0,0,1-2.37-3.8,4.34,4.34,0,0,1,2-.47,4.2,4.2,0,1,1,0,8.39Z"/>
          </g>
        </g>
      </g>
      <g id="Mobile-47" data-name="Mobile">
        <g id="iPhone-8-Copy-4-47" data-name="iPhone-8-Copy-4">
          <g id="bike_icon-40" data-name="bike icon">
            <path id="Shape-79" data-name="Shape" class="cls-2" d="M517.11,113.86h-2a.61.61,0,0,0-.63.63.57.57,0,0,0,.63.63h2a.63.63,0,0,0,0-1.26Z"/>
            <path id="Shape-80" data-name="Shape" class="cls-2" d="M525.66,106.18a5.76,5.76,0,0,0-2.54.55c-.15-.71-.31-1.42-.39-2.13a1.76,1.76,0,0,0,1.11.39c.87,0,.87-3.16,0-3.16a1.75,1.75,0,0,0-1.35.71v-.32l-.08-.39c-.24-1.9-1.34-4.2-5.46-3.73a.6.6,0,0,0,.08,1.19c3.4-.31,4,1.35,4.12,2.69l.08.4a.81.81,0,0,0,.07.4h-9.49l-.4-.8h.4a.87.87,0,1,0,0-1.74h-2.54a.87.87,0,0,0,0,1.74h.79v.08l.64,1.35L509,106.65a6.24,6.24,0,0,0-8.62,5.7,6.27,6.27,0,0,0,12.42,1.11h2.38a.84.84,0,0,0,.63.16,1.21,1.21,0,0,0,1.19-1.19A1,1,0,0,0,517,112l4.59-7c.24.79.32,1.58.56,2.38a6.13,6.13,0,0,0-2.7,5,6.26,6.26,0,1,0,6.26-6.17Zm-14.17-1.35,3.48,7a1.1,1.1,0,0,0-.16.47h-1.74a6,6,0,0,0-2.85-5.06Zm-.48,7.44h-3.4l1.66-3.24A4.2,4.2,0,0,1,511,112.27Zm-4.27,4.28a4.2,4.2,0,1,1,0-8.39,4.54,4.54,0,0,1,1.5.24l-2.13,4.11a.68.68,0,0,0,0,.56.66.66,0,0,0,.47.31h4.28A4.18,4.18,0,0,1,506.74,116.55Zm9.34-5.23h0L512.36,104h8.55Zm9.58,5.23a4.24,4.24,0,0,1-4.28-4.2,4.19,4.19,0,0,1,1.27-3,9.4,9.4,0,0,0,2.61,4,.61.61,0,0,0,.4.16.58.58,0,0,0,.39-.16.62.62,0,0,0,0-.87,9.1,9.1,0,0,1-2.37-3.8,4.37,4.37,0,0,1,2-.47,4.2,4.2,0,1,1,0,8.39Z"/>
          </g>
        </g>
      </g>
      <g id="Mobile-48" data-name="Mobile">
        <g id="iPhone-8-Copy-4-48" data-name="iPhone-8-Copy-4">
          <g id="bike_icon-41" data-name="bike icon">
            <path id="Shape-81" data-name="Shape" class="cls-2" d="M490,171h-2a.63.63,0,0,0-.63.63.59.59,0,0,0,.63.64h2a.64.64,0,1,0,0-1.27Z"/>
            <path id="Shape-82" data-name="Shape" class="cls-2" d="M498.5,163.33a5.56,5.56,0,0,0-2.53.56,20.58,20.58,0,0,1-.4-2.14,1.73,1.73,0,0,0,1.11.4c.87,0,.87-3.17,0-3.17a1.8,1.8,0,0,0-1.35.71v-.32l-.07-.39c-.24-1.9-1.35-4.2-5.47-3.72a.61.61,0,0,0-.55.63.62.62,0,0,0,.63.56c3.41-.32,4,1.34,4.12,2.69l.08.39a.72.72,0,0,0,.08.4h-9.5l-.4-.79h.4a.87.87,0,0,0,0-1.74h-2.53a.87.87,0,1,0,0,1.74h.79v.08l.63,1.34-1.66,3.25a6,6,0,0,0-2.38-.48,6.18,6.18,0,1,0,0,12.35,6.31,6.31,0,0,0,6.18-5.07h2.37a.86.86,0,0,0,.64.16,1.21,1.21,0,0,0,1.18-1.18,1,1,0,0,0-.08-.48l4.6-7c.23.79.31,1.58.55,2.37a6.16,6.16,0,0,0-2.69,5,6.25,6.25,0,1,0,6.25-6.18ZM484.33,162l3.48,7a1.27,1.27,0,0,0-.15.48h-1.74a6,6,0,0,0-2.85-5.07Zm-.47,7.44h-3.41l1.67-3.25A4.23,4.23,0,0,1,483.86,169.43Zm-4.28,4.27a4.2,4.2,0,1,1,0-8.39,4.6,4.6,0,0,1,1.51.24L479,169.66a.68.68,0,0,0,0,.56.66.66,0,0,0,.47.32h4.28A4.17,4.17,0,0,1,479.58,173.7Zm9.34-5.22h0l-3.72-7.28h8.55Zm9.58,5.22a4.24,4.24,0,0,1-4.27-4.19,4.18,4.18,0,0,1,1.26-3,9.46,9.46,0,0,0,2.62,4,.56.56,0,0,0,.39.15.61.61,0,0,0,.4-.15.63.63,0,0,0,0-.87,9.18,9.18,0,0,1-2.38-3.8,4.29,4.29,0,0,1,2-.48,4.2,4.2,0,1,1,0,8.39Z"/>
          </g>
        </g>
      </g>
      <g id="Mobile-49" data-name="Mobile">
        <g id="iPhone-8-Copy-4-49" data-name="iPhone-8-Copy-4">
          <g id="bike_icon-42" data-name="bike icon">
            <path id="Shape-83" data-name="Shape" class="cls-2" d="M549.16,172.39h-2a.63.63,0,0,0-.64.63.58.58,0,0,0,.64.63h2a.62.62,0,0,0,.64-.63A.63.63,0,0,0,549.16,172.39Z"/>
            <path id="Shape-84" data-name="Shape" class="cls-2" d="M557.71,164.71a5.69,5.69,0,0,0-2.53.55,19.93,19.93,0,0,1-.4-2.13,1.78,1.78,0,0,0,1.11.39c.87,0,.87-3.16,0-3.16a1.73,1.73,0,0,0-1.34.71v-.32l-.08-.39c-.24-1.9-1.35-4.2-5.46-3.72a.59.59,0,1,0,.08,1.18c3.4-.31,3.95,1.35,4.11,2.69l.08.4a.72.72,0,0,0,.08.4h-9.5l-.4-.8h.4a.87.87,0,1,0,0-1.74h-2.53a.87.87,0,1,0,0,1.74h.79v.08l.63,1.35-1.66,3.24a6.25,6.25,0,0,0-8.63,5.7A6.27,6.27,0,0,0,544.89,172h2.37a.86.86,0,0,0,.64.16,1.22,1.22,0,0,0,1.19-1.19,1,1,0,0,0-.08-.47l4.59-7c.23.79.31,1.59.55,2.38a6.16,6.16,0,0,0-2.69,5,6.26,6.26,0,1,0,6.25-6.17Zm-14.17-1.35,3.49,7a1.14,1.14,0,0,0-.16.47h-1.74a6,6,0,0,0-2.85-5.06Zm-.47,7.44h-3.4l1.66-3.24A4.2,4.2,0,0,1,543.07,170.8Zm-4.28,4.28a4.2,4.2,0,1,1,0-8.39,4.6,4.6,0,0,1,1.51.24L538.16,171a.68.68,0,0,0,0,.56.67.67,0,0,0,.48.31h4.27A4.17,4.17,0,0,1,538.79,175.08Zm9.35-5.23h0l-3.73-7.28H553Zm9.57,5.23a4.24,4.24,0,0,1-4.27-4.2,4.15,4.15,0,0,1,1.27-3,9.25,9.25,0,0,0,2.61,4,.58.58,0,0,0,.39.16.6.6,0,0,0,.4-1,9.12,9.12,0,0,1-2.38-3.8,4.4,4.4,0,0,1,2-.47,4.2,4.2,0,1,1,0,8.39Z"/>
          </g>
        </g>
      </g>
      <g id="Mobile-50" data-name="Mobile">
        <g id="iPhone-8-Copy-4-50" data-name="iPhone-8-Copy-4">
          <g id="bike_icon-43" data-name="bike icon">
            <path id="Shape-85" data-name="Shape" class="cls-2" d="M491.46,227.9h-2a.63.63,0,0,0-.64.63.59.59,0,0,0,.64.64h2a.64.64,0,0,0,0-1.27Z"/>
            <path id="Shape-86" data-name="Shape" class="cls-2" d="M500,220.22a5.69,5.69,0,0,0-2.53.55,17.67,17.67,0,0,1-.39-2.13,1.73,1.73,0,0,0,1.1.39c.87,0,.87-3.16,0-3.16a1.73,1.73,0,0,0-1.34.71v-.32l-.08-.39c-.24-1.9-1.35-4.2-5.46-3.72a.59.59,0,1,0,.08,1.18c3.4-.31,3.95,1.35,4.11,2.69l.08.4a.72.72,0,0,0,.08.4h-9.5l-.39-.8h.39a.87.87,0,0,0,0-1.74h-2.53a.87.87,0,0,0,0,1.74h.79v.08l.63,1.35-1.66,3.25a6,6,0,0,0-2.37-.48,6.18,6.18,0,1,0,0,12.35,6.3,6.3,0,0,0,6.17-5.07h2.38a.83.83,0,0,0,.63.16,1.22,1.22,0,0,0,1.19-1.19,1,1,0,0,0-.08-.47l4.59-7c.24.79.31,1.59.55,2.38a6.16,6.16,0,0,0-2.69,5,6.26,6.26,0,1,0,6.25-6.17Zm-14.17-1.35,3.49,7a1.14,1.14,0,0,0-.16.47h-1.74a6,6,0,0,0-2.85-5.06Zm-.47,7.45H482l1.66-3.25A4.2,4.2,0,0,1,485.36,226.32Zm-4.27,4.27a4.2,4.2,0,1,1,0-8.39,4.58,4.58,0,0,1,1.5.24l-2.14,4.11a.68.68,0,0,0,0,.56.65.65,0,0,0,.48.31h4.27A4.16,4.16,0,0,1,481.09,230.59Zm9.34-5.22h0l-3.72-7.29h8.54Zm9.57,5.22a4.24,4.24,0,0,1-4.27-4.2,4.15,4.15,0,0,1,1.27-3,9.25,9.25,0,0,0,2.61,4,.57.57,0,0,0,.79,0,.62.62,0,0,0,0-.87,9,9,0,0,1-2.37-3.8,4.33,4.33,0,0,1,2-.47,4.2,4.2,0,1,1,0,8.39Z"/>
          </g>
        </g>
      </g>
      <g id="Mobile-51" data-name="Mobile">
        <g id="iPhone-8-Copy-4-51" data-name="iPhone-8-Copy-4">
          <g id="bike_icon-44" data-name="bike icon">
            <path id="Shape-87" data-name="Shape" class="cls-2" d="M550.67,229.28h-2a.62.62,0,0,0-.64.63.59.59,0,0,0,.64.63h2a.63.63,0,0,0,.63-.63A.62.62,0,0,0,550.67,229.28Z"/>
            <path id="Shape-88" data-name="Shape" class="cls-2" d="M559.22,221.6a5.73,5.73,0,0,0-2.54.55,19.61,19.61,0,0,1-.39-2.14,1.69,1.69,0,0,0,1.11.4c.87,0,.87-3.17,0-3.17a1.76,1.76,0,0,0-1.35.72v-.32l-.08-.4c-.24-1.9-1.35-4.19-5.46-3.72a.6.6,0,1,0,.08,1.19c3.4-.32,4,1.35,4.11,2.69l.08.4a.67.67,0,0,0,.08.39h-9.5l-.39-.79h.39a.87.87,0,1,0,0-1.74h-2.53a.87.87,0,1,0,0,1.74h.79v.08l.64,1.35-1.67,3.24a6.25,6.25,0,0,0-8.63,5.7,6.27,6.27,0,0,0,12.43,1.11h2.38a.84.84,0,0,0,.63.16,1.23,1.23,0,0,0,1.19-1.19,1,1,0,0,0-.08-.47l4.59-7c.24.79.32,1.58.55,2.37a6.16,6.16,0,0,0-2.69,5,6.26,6.26,0,1,0,6.26-6.17Zm-14.17-1.35,3.48,7.05a1.1,1.1,0,0,0-.16.47h-1.74a5.93,5.93,0,0,0-2.85-5.06Zm-.48,7.44h-3.4l1.66-3.24A4.2,4.2,0,0,1,544.57,227.69ZM540.3,232a4.2,4.2,0,1,1,0-8.39,4.81,4.81,0,0,1,1.5.23l-2.14,4.12a.75.75,0,0,0,0,.55.66.66,0,0,0,.48.32h4.27A4.16,4.16,0,0,1,540.3,232Zm9.34-5.23h0l-3.72-7.28h8.55Zm9.58,5.23a4.2,4.2,0,0,1-3-7.21,9.28,9.28,0,0,0,2.61,4,.59.59,0,1,0,.79-.87,9,9,0,0,1-2.37-3.8,4.22,4.22,0,1,1,2,7.92Z"/>
          </g>
        </g>
      </g>
      <g id="Mobile-52" data-name="Mobile">
        <g id="iPhone-8-Copy-4-52" data-name="iPhone-8-Copy-4">
          <g id="bike_icon-45" data-name="bike icon">
            <path id="Shape-89" data-name="Shape" class="cls-2" d="M519.48,199.45h-2a.62.62,0,0,0-.63.64.58.58,0,0,0,.63.63h2a.64.64,0,0,0,0-1.27Z"/>
            <path id="Shape-90" data-name="Shape" class="cls-2" d="M528,191.78a5.62,5.62,0,0,0-2.54.55c-.15-.71-.31-1.42-.39-2.14a1.69,1.69,0,0,0,1.11.4c.87,0,.87-3.17,0-3.17a1.76,1.76,0,0,0-1.35.72v-.32l-.08-.4c-.24-1.9-1.34-4.19-5.46-3.72a.6.6,0,0,0,.08,1.19c3.4-.32,4,1.35,4.12,2.69l.07.4a.69.69,0,0,0,.08.39h-9.5l-.39-.79h.39a.87.87,0,1,0,0-1.74h-2.53a.87.87,0,0,0,0,1.74h.79v.08l.64,1.35-1.67,3.24a6,6,0,0,0-2.37-.47,6.17,6.17,0,1,0,0,12.34,6.28,6.28,0,0,0,6.17-5.06h2.38a.84.84,0,0,0,.63.16A1.23,1.23,0,0,0,519.4,198a1,1,0,0,0-.08-.48l4.59-7c.24.79.32,1.58.55,2.37a6.16,6.16,0,0,0-2.69,5,6.26,6.26,0,1,0,6.26-6.17Zm-14.17-1.35,3.48,7a1.05,1.05,0,0,0-.16.47h-1.74a6,6,0,0,0-2.85-5.07Zm-.48,7.44H510l1.66-3.24A4.19,4.19,0,0,1,513.38,197.87Zm-4.27,4.28a4.2,4.2,0,1,1,0-8.39,4.54,4.54,0,0,1,1.5.23l-2.13,4.12a.66.66,0,0,0,0,.55.62.62,0,0,0,.47.32h4.27A4.16,4.16,0,0,1,509.11,202.15Zm9.34-5.23h0l-3.72-7.28h8.55Zm9.58,5.23a4.24,4.24,0,0,1-4.28-4.2,4.19,4.19,0,0,1,1.27-3,9.28,9.28,0,0,0,2.61,4,.61.61,0,0,0,.4.16.58.58,0,0,0,.39-.16.62.62,0,0,0,0-.87,9,9,0,0,1-2.37-3.8,4.22,4.22,0,1,1,2,7.92Z"/>
          </g>
        </g>
      </g>
    </g>
  </g>
</svg>
