<svg id="Layer_1" data-name="Layer 1" xmlns="http://www.w3.org/2000/svg" width="841.89" height="595.28" viewBox="0 0 841.89 595.28">
  <defs>
    <style>
      .cls-1, .cls-6 {
        fill: #fff;
      }

      .cls-1 {
        stroke: #000;
      }

      .cls-2 {
        writing-mode: tb;
        text-orientation: upright;
        glyph-orientation-vertical: 0deg;
        font-size: 15px;
      }

      .cls-2, .cls-3, .cls-5 {
        font-family: Georgia, Georgia;
      }

      .cls-3 {
        font-size: 17.64px;
      }

      .cls-4 {
        fill: red;
      }

      .cls-5 {
        font-size: 17.64px;
      }
    </style>
  </defs>
  <title>yndlingskort</title>
  <g>
    <rect class="cls-1" x="41.89" y="14.15" width="184.25" height="266.46" rx="10.01" ry="10.01"/>
    <rect class="cls-1" x="233.46" y="14.15" width="184.25" height="266.46" rx="10.01" ry="10.01"/>
    <rect class="cls-1" x="427.11" y="14.15" width="184.25" height="266.46" rx="10.01" ry="10.01"/>
    <rect class="cls-1" x="617.48" y="14.15" width="184.25" height="266.46" rx="10.01" ry="10.01"/>
    <rect class="cls-1" x="41.02" y="297.64" width="184.25" height="266.46" rx="10.01" ry="10.01"/>
    <rect class="cls-1" x="232.6" y="297.64" width="184.25" height="266.46" rx="10.01" ry="10.01"/>
    <rect class="cls-1" x="426.24" y="297.64" width="184.25" height="266.46" rx="10.01" ry="10.01"/>
    <rect class="cls-1" x="616.62" y="297.64" width="184.25" height="266.46" rx="10.01" ry="10.01"/>
  </g>
  <g>
    <text class="cls-2" transform="translate(67.92 309.99)">JOKER</text>
    <text class="cls-2" transform="translate(200.11 552.94) rotate(180)">JOKER</text>
  </g>
  <g>
    <text class="cls-3" transform="translate(448.54 40.68)"><tspan class="cls-4"> </tspan><tspan x="4.26" y="0">3</tspan></text>
    <text class="cls-5" transform="translate(590.63 254.48) rotate(-179.88)"><tspan class="cls-4"> </tspan><tspan x="4.26" y="0">3</tspan></text>
    <path d="M458.93,45.25a87,87,0,0,1-7.66,9.17s-2.23,2.66-2.12,5.37c0,0,.06,3.47,4.23,4.2a7.05,7.05,0,0,0,4.74-1.07s.35,1.3-2.34,5.35h6.53s-2.63-3.59-2.57-5.32a7.4,7.4,0,0,0,3.53.95s5.06.17,5.14-5c0,0,.17-2.38-2.53-5.34C465.88,53.59,459.9,46.79,458.93,45.25Z"/>
    <path d="M579.74,249.79a85.6,85.6,0,0,1,7.65-9.18s2.22-2.66,2.1-5.38c0,0-.06-3.47-4.23-4.18a7.05,7.05,0,0,0-4.74,1.07s-.35-1.3,2.34-5.35h-6.54s2.64,3.58,2.58,5.32a7.45,7.45,0,0,0-3.53-.95s-5.06-.17-5.14,5c0,0-.16,2.37,2.54,5.34C572.77,241.47,578.76,248.26,579.74,249.79Z"/>
    <g>
      <g id="Page-1">
        <g id="Atoms">
          <g id="Group-6-Copy">
            <g id="Group-5">
              <path id="Combined-Shape" d="M530.16,117.53h3.09v.61h0a2.19,2.19,0,0,1-2.19,2.19h-24.4a2.19,2.19,0,0,1-2.2-2.19v-.61h3.06V103.44h0a.87.87,0,0,1,.87-.87h20.89a.87.87,0,0,1,.88.87Zm-21.56-13v13h20.54v-13Z"/>
            </g>
            <path id="Rectangle-6" d="M514.39,106.36h0a.44.44,0,0,1,0,.62l-3.73,3.72a.44.44,0,0,1-.62,0h0a.44.44,0,0,1,0-.62l3.73-3.72A.44.44,0,0,1,514.39,106.36Z"/>
            <path id="Rectangle-6-Copy" d="M512,105.91h0a.42.42,0,0,1,0,.62l-1.55,1.55a.44.44,0,0,1-.62,0h0a.44.44,0,0,1,0-.62l1.55-1.55A.44.44,0,0,1,512,105.91Z"/>
          </g>
        </g>
      </g>
      <g id="Page-1-2" data-name="Page-1">
        <g id="Atoms-2" data-name="Atoms">
          <g id="Group-6-Copy-2" data-name="Group-6-Copy">
            <g id="Group-5-2" data-name="Group-5">
              <path id="Combined-Shape-2" data-name="Combined-Shape" d="M530,156.82h3.09v.62h0a2.2,2.2,0,0,1-2.2,2.19h-24.4a2.2,2.2,0,0,1-2.2-2.19v-.62h3.06V142.74h0a.87.87,0,0,1,.88-.87h20.89a.88.88,0,0,1,.88.87Zm-21.56-13v13H529v-13Z"/>
            </g>
            <path id="Rectangle-6-2" data-name="Rectangle-6" d="M514.19,145.66h0a.44.44,0,0,1,0,.62L510.47,150a.45.45,0,0,1-.63,0h0a.44.44,0,0,1,0-.62l3.73-3.72A.42.42,0,0,1,514.19,145.66Z"/>
            <path id="Rectangle-6-Copy-2" data-name="Rectangle-6-Copy" d="M511.79,145.21h0a.44.44,0,0,1,0,.62l-1.56,1.55a.44.44,0,0,1-.62,0h0a.44.44,0,0,1,0-.62l1.56-1.55A.42.42,0,0,1,511.79,145.21Z"/>
          </g>
        </g>
      </g>
      <g id="Page-1-3" data-name="Page-1">
        <g id="Atoms-3" data-name="Atoms">
          <g id="Group-6-Copy-3" data-name="Group-6-Copy">
            <g id="Group-5-3" data-name="Group-5">
              <path id="Combined-Shape-3" data-name="Combined-Shape" d="M530.18,196.12h3.09v.62h0a2.19,2.19,0,0,1-2.19,2.19H506.67a2.19,2.19,0,0,1-2.19-2.19v-.62h3V182h0a.89.89,0,0,1,.88-.88H529.3a.88.88,0,0,1,.88.88Zm-21.56-13v13h20.54v-13Z"/>
            </g>
            <path id="Rectangle-6-3" data-name="Rectangle-6" d="M514.41,185h0a.44.44,0,0,1,0,.62l-3.73,3.72a.44.44,0,0,1-.62,0h0a.44.44,0,0,1,0-.62l3.72-3.72A.44.44,0,0,1,514.41,185Z"/>
            <path id="Rectangle-6-Copy-3" data-name="Rectangle-6-Copy" d="M512,184.51h0a.44.44,0,0,1,0,.62l-1.55,1.55a.44.44,0,0,1-.62,0h0a.44.44,0,0,1,0-.62l1.55-1.55A.42.42,0,0,1,512,184.51Z"/>
          </g>
        </g>
      </g>
    </g>
  </g>
  <g>
    <text class="cls-3" transform="translate(63.84 40.43)"><tspan class="cls-4"> </tspan><tspan x="4.26" y="0">A</tspan></text>
    <text class="cls-5" transform="translate(205.93 254.23) rotate(-179.88)"><tspan class="cls-4"> </tspan><tspan x="4.26" y="0">A</tspan></text>
    <path d="M74.22,45a84.93,84.93,0,0,1-7.66,9.16s-2.23,2.66-2.11,5.38c0,0,.06,3.47,4.22,4.19a7,7,0,0,0,4.74-1.07S73.76,64,71.07,68h6.54S75,64.43,75,62.69a7.4,7.4,0,0,0,3.53,1s5.06.17,5.15-5c0,0,.17-2.37-2.53-5.34C81.18,53.33,75.19,46.53,74.22,45Z"/>
    <path d="M134.55,107.22a320,320,0,0,1-28.81,34.47s-8.37,10-7.94,20.22c0,0,.22,13.05,15.88,15.77a26.48,26.48,0,0,0,17.83-4s1.3,4.89-8.81,20.11h24.58s-9.9-13.48-9.68-20c0,0,6.41,3.8,13.26,3.58,0,0,19,.66,19.36-18.7,0,0,.64-8.93-9.52-20.08C160.7,138.57,138.2,113,134.55,107.22Z"/>
    <path d="M195,249.54a85.6,85.6,0,0,1,7.65-9.18s2.22-2.66,2.1-5.38c0,0-.06-3.47-4.22-4.19a7,7,0,0,0-4.74,1.08s-.35-1.3,2.33-5.35h-6.54s2.64,3.58,2.59,5.31a7.37,7.37,0,0,0-3.53-.94s-5.06-.17-5.14,5c0,0-.17,2.37,2.54,5.33C188.07,241.21,194.06,248,195,249.54Z"/>
    <g id="Page-1-4" data-name="Page-1">
      <g id="Atoms-4" data-name="Atoms">
        <g id="Group-6-Copy-4" data-name="Group-6-Copy">
          <g id="Group-5-4" data-name="Group-5">
            <path id="Combined-Shape-4" data-name="Combined-Shape" class="cls-6" d="M145.37,156.57h3.09v.62h0a2.2,2.2,0,0,1-2.2,2.19h-24.4a2.19,2.19,0,0,1-2.19-2.19v-.62h3V142.49h0a.88.88,0,0,1,.88-.88h20.89a.89.89,0,0,1,.88.88Zm-21.56-13v13h20.54v-13Z"/>
          </g>
          <path id="Rectangle-6-4" data-name="Rectangle-6" class="cls-6" d="M129.59,145.4h0a.44.44,0,0,1,0,.62l-3.72,3.73a.44.44,0,0,1-.62,0h0a.42.42,0,0,1,0-.62L129,145.4A.44.44,0,0,1,129.59,145.4Z"/>
          <path id="Rectangle-6-Copy-4" data-name="Rectangle-6-Copy" class="cls-6" d="M127.19,145h0a.44.44,0,0,1,0,.62l-1.55,1.56a.44.44,0,0,1-.62,0h0a.42.42,0,0,1,0-.62l1.55-1.56A.44.44,0,0,1,127.19,145Z"/>
        </g>
      </g>
    </g>
  </g>
  <g>
    <text class="cls-3" transform="translate(253.71 40.71)"><tspan class="cls-4"> </tspan><tspan x="4.26" y="0">2</tspan></text>
    <text class="cls-5" transform="translate(395.8 254.5) rotate(-179.88)"><tspan class="cls-4"> </tspan><tspan x="4.26" y="0">2</tspan></text>
    <path d="M264.1,45.27a84.43,84.43,0,0,1-7.66,9.17s-2.23,2.66-2.11,5.38c0,0,0,3.47,4.22,4.19a7.05,7.05,0,0,0,4.74-1.07s.35,1.3-2.34,5.35h6.53s-2.63-3.59-2.57-5.32a7.45,7.45,0,0,0,3.53,1s5.06.18,5.14-5c0,0,.17-2.38-2.53-5.34C271.05,53.61,265.07,46.81,264.1,45.27Z"/>
    <path d="M384.91,249.82a85.6,85.6,0,0,1,7.65-9.18s2.22-2.67,2.1-5.38c0,0-.06-3.47-4.23-4.19a7,7,0,0,0-4.74,1.08s-.35-1.3,2.34-5.36h-6.54s2.64,3.58,2.58,5.32a7.4,7.4,0,0,0-3.53-1s-5.06-.16-5.14,5c0,0-.16,2.38,2.54,5.34C377.94,241.49,383.94,248.28,384.91,249.82Z"/>
    <g id="Page-1-5" data-name="Page-1">
      <g id="Atoms-5" data-name="Atoms">
        <g id="Group-6-Copy-5" data-name="Group-6-Copy">
          <g id="Group-5-5" data-name="Group-5">
            <path id="Combined-Shape-5" data-name="Combined-Shape" d="M311.43,177.88h3.09v.62h0a2.19,2.19,0,0,1-2.19,2.19H287.92a2.19,2.19,0,0,1-2.19-2.19v-.62h3V163.8h0a.89.89,0,0,1,.88-.88h20.89a.88.88,0,0,1,.88.88Zm-21.56-13v13h20.54v-13Z"/>
          </g>
          <path id="Rectangle-6-5" data-name="Rectangle-6" d="M295.66,166.71h0a.44.44,0,0,1,0,.62l-3.73,3.73a.44.44,0,0,1-.62,0h0a.44.44,0,0,1,0-.62l3.72-3.73A.45.45,0,0,1,295.66,166.71Z"/>
          <path id="Rectangle-6-Copy-5" data-name="Rectangle-6-Copy" d="M293.25,166.26h0a.44.44,0,0,1,0,.62l-1.55,1.56a.44.44,0,0,1-.62,0h0a.44.44,0,0,1,0-.62l1.55-1.56A.44.44,0,0,1,293.25,166.26Z"/>
        </g>
      </g>
    </g>
    <g id="Page-1-6" data-name="Page-1">
      <g id="Atoms-6" data-name="Atoms">
        <g id="Group-6-Copy-6" data-name="Group-6-Copy">
          <g id="Group-5-6" data-name="Group-5">
            <path id="Combined-Shape-6" data-name="Combined-Shape" d="M358.3,137.94h3.09v.62h0a2.2,2.2,0,0,1-2.2,2.19h-24.4a2.19,2.19,0,0,1-2.19-2.19v-.62h3V123.86h0a.88.88,0,0,1,.88-.88h20.89a.89.89,0,0,1,.88.88Zm-21.56-13v13h20.54V125Z"/>
          </g>
          <path id="Rectangle-6-6" data-name="Rectangle-6" d="M342.52,126.77h0a.44.44,0,0,1,0,.62l-3.72,3.73a.44.44,0,0,1-.62,0h0a.42.42,0,0,1,0-.62l3.72-3.73A.44.44,0,0,1,342.52,126.77Z"/>
          <path id="Rectangle-6-Copy-6" data-name="Rectangle-6-Copy" d="M340.12,126.32h0a.44.44,0,0,1,0,.62l-1.55,1.56a.44.44,0,0,1-.62,0h0a.42.42,0,0,1,0-.62l1.55-1.56A.44.44,0,0,1,340.12,126.32Z"/>
        </g>
      </g>
    </g>
  </g>
  <g>
    <text class="cls-3" transform="translate(638.6 39.48)"><tspan class="cls-4"> </tspan><tspan x="4.26" y="0">4</tspan></text>
    <text class="cls-5" transform="translate(780.69 253.28) rotate(-179.88)"><tspan class="cls-4"> </tspan><tspan x="4.26" y="0">4</tspan></text>
    <path d="M649,44.05a85.82,85.82,0,0,1-7.67,9.16s-2.22,2.66-2.11,5.38c0,0,.06,3.47,4.23,4.19a7,7,0,0,0,4.74-1.07s.34,1.31-2.34,5.35h6.53s-2.63-3.58-2.57-5.32a7.34,7.34,0,0,0,3.52,1s5.06.17,5.15-5c0,0,.17-2.37-2.53-5.34C655.94,52.38,650,45.58,649,44.05Z"/>
    <path d="M769.8,248.59a84.17,84.17,0,0,1,7.65-9.18s2.22-2.66,2.1-5.38c0,0-.06-3.47-4.23-4.19a7,7,0,0,0-4.74,1.08s-.35-1.3,2.33-5.35h-6.53s2.64,3.58,2.58,5.31a7.37,7.37,0,0,0-3.53-.94s-5.06-.17-5.14,5c0,0-.17,2.37,2.54,5.33C762.83,240.26,768.82,247.05,769.8,248.59Z"/>
    <g>
      <g id="Page-1-7" data-name="Page-1">
        <g id="Atoms-7" data-name="Atoms">
          <g id="Group-6-Copy-7" data-name="Group-6-Copy">
            <g id="Group-5-7" data-name="Group-5">
              <path id="Combined-Shape-7" data-name="Combined-Shape" d="M683.62,152.8h3.09v.61h0a2.2,2.2,0,0,1-2.2,2.2h-24.4a2.2,2.2,0,0,1-2.19-2.2v-.61H661V138.72h0a.88.88,0,0,1,.88-.88h20.89a.87.87,0,0,1,.88.88Zm-21.56-13v13H682.6v-13Z"/>
            </g>
            <path id="Rectangle-6-7" data-name="Rectangle-6" d="M667.84,141.63h0a.42.42,0,0,1,0,.62L664.12,146a.42.42,0,0,1-.62,0h0a.44.44,0,0,1,0-.62l3.72-3.72A.44.44,0,0,1,667.84,141.63Z"/>
            <path id="Rectangle-6-Copy-7" data-name="Rectangle-6-Copy" d="M665.44,141.18h0a.44.44,0,0,1,0,.62l-1.55,1.55a.44.44,0,0,1-.62,0h0a.44.44,0,0,1,0-.62l1.55-1.55A.44.44,0,0,1,665.44,141.18Z"/>
          </g>
        </g>
      </g>
      <g id="Page-1-8" data-name="Page-1">
        <g id="Atoms-8" data-name="Atoms">
          <g id="Group-6-Copy-8" data-name="Group-6-Copy">
            <g id="Group-5-8" data-name="Group-5">
              <path id="Combined-Shape-8" data-name="Combined-Shape" d="M756.64,152.6h3.09v.61h0a2.19,2.19,0,0,1-2.19,2.2h-24.4a2.2,2.2,0,0,1-2.2-2.2v-.61H734V138.52h0a.87.87,0,0,1,.88-.88h20.89a.87.87,0,0,1,.87.88Zm-21.55-13v13h20.54v-13Z"/>
            </g>
            <path id="Rectangle-6-8" data-name="Rectangle-6" d="M740.87,141.43h0a.44.44,0,0,1,0,.62l-3.73,3.73a.44.44,0,0,1-.62,0h0a.44.44,0,0,1,0-.62l3.73-3.73A.44.44,0,0,1,740.87,141.43Z"/>
            <path id="Rectangle-6-Copy-8" data-name="Rectangle-6-Copy" d="M738.46,141h0a.42.42,0,0,1,0,.62l-1.55,1.55a.42.42,0,0,1-.62,0h0a.44.44,0,0,1,0-.62l1.55-1.55A.44.44,0,0,1,738.46,141Z"/>
          </g>
        </g>
      </g>
      <g id="Page-1-9" data-name="Page-1">
        <g id="Atoms-9" data-name="Atoms">
          <g id="Group-6-Copy-9" data-name="Group-6-Copy">
            <g id="Group-5-9" data-name="Group-5">
              <path id="Combined-Shape-9" data-name="Combined-Shape" d="M719.58,117.88h3.09v.62h0a2.2,2.2,0,0,1-2.2,2.19h-24.4a2.2,2.2,0,0,1-2.2-2.19v-.62h3.06V103.8h0a.88.88,0,0,1,.88-.88H718.7a.89.89,0,0,1,.88.88Zm-21.56-13v13h20.54v-13Z"/>
            </g>
            <path id="Rectangle-6-9" data-name="Rectangle-6" d="M703.8,106.71h0a.44.44,0,0,1,0,.62l-3.72,3.73a.45.45,0,0,1-.63,0h0a.44.44,0,0,1,0-.62l3.73-3.73A.44.44,0,0,1,703.8,106.71Z"/>
            <path id="Rectangle-6-Copy-9" data-name="Rectangle-6-Copy" d="M701.4,106.26h0a.44.44,0,0,1,0,.62l-1.56,1.56a.44.44,0,0,1-.62,0h0a.44.44,0,0,1,0-.62l1.56-1.56A.44.44,0,0,1,701.4,106.26Z"/>
          </g>
        </g>
      </g>
      <g id="Page-1-10" data-name="Page-1">
        <g id="Atoms-10" data-name="Atoms">
          <g id="Group-6-Copy-10" data-name="Group-6-Copy">
            <g id="Group-5-10" data-name="Group-5">
              <path id="Combined-Shape-10" data-name="Combined-Shape" d="M720.93,193.36H724V194h0a2.19,2.19,0,0,1-2.2,2.2h-24.4a2.19,2.19,0,0,1-2.19-2.2v-.61h3V179.28h0a.88.88,0,0,1,.88-.88h20.89a.87.87,0,0,1,.88.88Zm-21.56-13v13h20.54v-13Z"/>
            </g>
            <path id="Rectangle-6-10" data-name="Rectangle-6" d="M705.15,182.19h0a.44.44,0,0,1,0,.62l-3.72,3.73a.44.44,0,0,1-.62,0h0a.44.44,0,0,1,0-.62l3.72-3.73A.44.44,0,0,1,705.15,182.19Z"/>
            <path id="Rectangle-6-Copy-10" data-name="Rectangle-6-Copy" d="M702.75,181.74h0a.44.44,0,0,1,0,.62l-1.55,1.55a.42.42,0,0,1-.62,0h0a.44.44,0,0,1,0-.62l1.55-1.55A.44.44,0,0,1,702.75,181.74Z"/>
          </g>
        </g>
      </g>
    </g>
  </g>
</svg>
