<svg id="Layer_1" data-name="Layer 1" xmlns="http://www.w3.org/2000/svg" width="841.89" height="595.28" viewBox="0 0 841.89 595.28">
  <defs>
    <style>
      .cls-1 {
        fill: #fff;
        stroke: #000;
      }

      .cls-2 {
        font-size: 17.64px;
      }

      .cls-2, .cls-4 {
        font-family: Georgia, Georgia;
      }

      .cls-3 {
        fill: red;
      }

      .cls-4 {
        font-size: 17.64px;
      }
    </style>
  </defs>
  <title>yndlingskort</title>
  <g>
    <rect class="cls-1" x="41.89" y="14.15" width="184.25" height="266.46" rx="10.01" ry="10.01"/>
    <rect class="cls-1" x="233.46" y="14.15" width="184.25" height="266.46" rx="10.01" ry="10.01"/>
    <rect class="cls-1" x="427.11" y="14.15" width="184.25" height="266.46" rx="10.01" ry="10.01"/>
    <rect class="cls-1" x="617.48" y="14.15" width="184.25" height="266.46" rx="10.01" ry="10.01"/>
    <rect class="cls-1" x="41.02" y="297.64" width="184.25" height="266.46" rx="10.01" ry="10.01"/>
    <rect class="cls-1" x="232.6" y="297.64" width="184.25" height="266.46" rx="10.01" ry="10.01"/>
    <rect class="cls-1" x="426.24" y="297.64" width="184.25" height="266.46" rx="10.01" ry="10.01"/>
    <rect class="cls-1" x="616.62" y="297.64" width="184.25" height="266.46" rx="10.01" ry="10.01"/>
  </g>
  <g>
    <text class="cls-2" transform="translate(252.84 324.79)"><tspan class="cls-3"> </tspan><tspan x="4.26" y="0">K</tspan></text>
    <text class="cls-4" transform="translate(396.68 538.59) rotate(-179.88)"><tspan class="cls-3"> </tspan><tspan x="4.26" y="0">K</tspan></text>
    <path d="M264.22,329.35a84.43,84.43,0,0,1-7.66,9.17s-2.22,2.66-2.11,5.38c0,0,.06,3.47,4.22,4.19a7,7,0,0,0,4.74-1.07s.35,1.3-2.34,5.35h6.54s-2.63-3.58-2.58-5.32a7.53,7.53,0,0,0,3.53,1s5.06.17,5.15-5c0,0,.17-2.37-2.53-5.34C271.18,337.69,265.2,330.89,264.22,329.35Z"/>
    <path d="M385,533.9a85.6,85.6,0,0,1,7.65-9.18s2.23-2.66,2.11-5.38c0,0-.07-3.47-4.23-4.19a7,7,0,0,0-4.74,1.08s-.35-1.3,2.33-5.35h-6.53s2.63,3.58,2.58,5.31a7.45,7.45,0,0,0-3.53-1s-5.06-.16-5.14,5c0,0-.17,2.38,2.54,5.34C378.07,525.57,384.06,532.36,385,533.9Z"/>
  </g>
  <g>
    <text class="cls-2" transform="translate(635.47 323.95)"><tspan class="cls-3" xml:space="preserve">  </tspan><tspan x="8.51" y="0">J</tspan></text>
    <text class="cls-4" transform="translate(780.56 537.75) rotate(-179.88)"><tspan class="cls-3" xml:space="preserve">  </tspan><tspan x="8.51" y="0">J</tspan></text>
    <path d="M647.61,328.52a86.45,86.45,0,0,1-7.67,9.17s-2.22,2.66-2.11,5.37c0,0,.06,3.47,4.23,4.2a7.05,7.05,0,0,0,4.74-1.07s.34,1.3-2.34,5.35H651s-2.63-3.59-2.57-5.32a7.39,7.39,0,0,0,3.52.95s5.07.17,5.15-5c0,0,.17-2.38-2.53-5.34C654.56,336.86,648.58,330.06,647.61,328.52Z"/>
    <path d="M768.42,533.06a84.17,84.17,0,0,1,7.65-9.18s2.22-2.66,2.1-5.38c0,0-.06-3.47-4.23-4.18a7.05,7.05,0,0,0-4.74,1.07s-.35-1.3,2.33-5.35H765s2.64,3.58,2.58,5.32a7.45,7.45,0,0,0-3.53-1s-5.06-.17-5.14,5c0,0-.17,2.37,2.54,5.34C761.45,524.74,767.44,531.53,768.42,533.06Z"/>
  </g>
  <g>
    <text class="cls-2" transform="translate(444.97 324.74)"><tspan class="cls-3"> </tspan><tspan x="4.26" y="0">Q</tspan></text>
    <text class="cls-4" transform="translate(588.81 538.54) rotate(-179.88)"><tspan class="cls-3"> </tspan><tspan x="4.26" y="0">Q</tspan></text>
    <path d="M456.36,329.31a85.3,85.3,0,0,1-7.67,9.17s-2.22,2.66-2.11,5.38c0,0,.06,3.47,4.23,4.19a7.05,7.05,0,0,0,4.74-1.07s.34,1.3-2.34,5.35h6.53s-2.63-3.59-2.57-5.32a7.39,7.39,0,0,0,3.52.95s5.07.18,5.15-5c0,0,.17-2.38-2.53-5.34C463.31,337.65,457.33,330.85,456.36,329.31Z"/>
    <path d="M577.17,533.85a84.67,84.67,0,0,1,7.65-9.17s2.22-2.67,2.1-5.39c0,0-.06-3.47-4.23-4.18a7,7,0,0,0-4.74,1.08s-.35-1.31,2.33-5.36h-6.53s2.64,3.58,2.58,5.32a7.45,7.45,0,0,0-3.53-.95s-5.06-.17-5.14,5c0,0-.17,2.38,2.54,5.34C570.2,525.53,576.19,532.32,577.17,533.85Z"/>
  </g>
  <g>
    <text class="cls-2" transform="translate(637.75 41.77)"><tspan class="cls-3"> </tspan><tspan x="4.26" y="0">6</tspan></text>
    <text class="cls-4" transform="translate(779.84 255.56) rotate(-179.88)"><tspan class="cls-3"> </tspan><tspan x="4.26" y="0">6</tspan></text>
    <path d="M648.13,46.34a84.93,84.93,0,0,1-7.66,9.16s-2.23,2.66-2.11,5.38c0,0,.06,3.47,4.22,4.19A7,7,0,0,0,647.32,64s.35,1.3-2.34,5.35h6.54s-2.63-3.58-2.58-5.32a7.53,7.53,0,0,0,3.53,1s5.06.17,5.15-5c0,0,.17-2.37-2.53-5.34C655.09,54.67,649.1,47.87,648.13,46.34Z"/>
    <path d="M768.94,250.88a85.6,85.6,0,0,1,7.65-9.18s2.22-2.66,2.11-5.38c0,0-.07-3.47-4.23-4.19a7,7,0,0,0-4.74,1.08s-.35-1.3,2.33-5.35h-6.53s2.63,3.58,2.58,5.31a7.45,7.45,0,0,0-3.53-1s-5.06-.16-5.14,5c0,0-.17,2.38,2.54,5.34C762,242.55,768,249.34,768.94,250.88Z"/>
    <g>
      <g>
        <g id="Page-1">
          <g id="Atoms">
            <g id="Group-6-Copy">
              <g id="Group-5">
                <path id="Combined-Shape" d="M756.33,117.57h3.09v.61h0a2.19,2.19,0,0,1-2.2,2.2h-24.4a2.19,2.19,0,0,1-2.19-2.2v-.61h3V103.49h0a.88.88,0,0,1,.88-.88h20.89a.87.87,0,0,1,.88.88Zm-21.56-13v13h20.54v-13Z"/>
              </g>
              <path id="Rectangle-6" d="M740.55,106.4h0a.42.42,0,0,1,0,.62l-3.72,3.73a.44.44,0,0,1-.62,0h0a.44.44,0,0,1,0-.62l3.72-3.73A.44.44,0,0,1,740.55,106.4Z"/>
              <path id="Rectangle-6-Copy" d="M738.15,106h0a.44.44,0,0,1,0,.62l-1.55,1.55a.42.42,0,0,1-.62,0h0a.44.44,0,0,1,0-.62l1.55-1.55A.44.44,0,0,1,738.15,106Z"/>
            </g>
          </g>
        </g>
        <g id="Page-1-2" data-name="Page-1">
          <g id="Atoms-2" data-name="Atoms">
            <g id="Group-6-Copy-2" data-name="Group-6-Copy">
              <g id="Group-5-2" data-name="Group-5">
                <path id="Combined-Shape-2" data-name="Combined-Shape" d="M756.13,156.87h3.09v.61h0a2.19,2.19,0,0,1-2.19,2.2h-24.4a2.19,2.19,0,0,1-2.2-2.2v-.61h3.06V142.79h0a.87.87,0,0,1,.87-.88h20.89a.87.87,0,0,1,.88.88Zm-21.56-13v13h20.54v-13Z"/>
              </g>
              <path id="Rectangle-6-2" data-name="Rectangle-6" d="M740.36,145.7h0a.44.44,0,0,1,0,.62l-3.73,3.73a.44.44,0,0,1-.62,0h0a.44.44,0,0,1,0-.62l3.73-3.73A.44.44,0,0,1,740.36,145.7Z"/>
              <path id="Rectangle-6-Copy-2" data-name="Rectangle-6-Copy" d="M738,145.25h0a.44.44,0,0,1,0,.62l-1.55,1.55a.42.42,0,0,1-.62,0h0a.44.44,0,0,1,0-.62l1.55-1.55A.44.44,0,0,1,738,145.25Z"/>
            </g>
          </g>
        </g>
        <g id="Page-1-3" data-name="Page-1">
          <g id="Atoms-3" data-name="Atoms">
            <g id="Group-6-Copy-3" data-name="Group-6-Copy">
              <g id="Group-5-3" data-name="Group-5">
                <path id="Combined-Shape-3" data-name="Combined-Shape" d="M756.35,196.17h3.09v.61h0a2.2,2.2,0,0,1-2.2,2.2h-24.4a2.19,2.19,0,0,1-2.19-2.2v-.61h3.05V182.09h0a.87.87,0,0,1,.88-.88h20.89a.88.88,0,0,1,.88.88Zm-21.56-13v13h20.54v-13Z"/>
              </g>
              <path id="Rectangle-6-3" data-name="Rectangle-6" d="M740.57,185h0a.44.44,0,0,1,0,.62l-3.72,3.73a.44.44,0,0,1-.62,0h0a.42.42,0,0,1,0-.62L740,185A.44.44,0,0,1,740.57,185Z"/>
              <path id="Rectangle-6-Copy-3" data-name="Rectangle-6-Copy" d="M738.17,184.55h0a.44.44,0,0,1,0,.62l-1.55,1.55a.43.43,0,0,1-.63,0h0a.44.44,0,0,1,0-.62l1.56-1.55A.44.44,0,0,1,738.17,184.55Z"/>
            </g>
          </g>
        </g>
      </g>
      <g>
        <g id="Page-1-4" data-name="Page-1">
          <g id="Atoms-4" data-name="Atoms">
            <g id="Group-6-Copy-4" data-name="Group-6-Copy">
              <g id="Group-5-4" data-name="Group-5">
                <path id="Combined-Shape-4" data-name="Combined-Shape" d="M683.52,117.15h3.09v.61h0a2.19,2.19,0,0,1-2.2,2.2H660a2.19,2.19,0,0,1-2.19-2.2v-.61h3V103.07h0a.88.88,0,0,1,.88-.88h20.89a.87.87,0,0,1,.88.88Zm-21.56-13v13H682.5v-13Z"/>
              </g>
              <path id="Rectangle-6-4" data-name="Rectangle-6" d="M667.74,106h0a.42.42,0,0,1,0,.62L664,110.33a.44.44,0,0,1-.62,0h0a.44.44,0,0,1,0-.62l3.72-3.73A.44.44,0,0,1,667.74,106Z"/>
              <path id="Rectangle-6-Copy-4" data-name="Rectangle-6-Copy" d="M665.34,105.53h0a.44.44,0,0,1,0,.62l-1.55,1.55a.44.44,0,0,1-.62,0h0a.44.44,0,0,1,0-.62l1.55-1.55A.44.44,0,0,1,665.34,105.53Z"/>
            </g>
          </g>
        </g>
        <g id="Page-1-5" data-name="Page-1">
          <g id="Atoms-5" data-name="Atoms">
            <g id="Group-6-Copy-5" data-name="Group-6-Copy">
              <g id="Group-5-5" data-name="Group-5">
                <path id="Combined-Shape-5" data-name="Combined-Shape" d="M683.32,156.45h3.09v.61h0a2.2,2.2,0,0,1-2.19,2.2h-24.4a2.2,2.2,0,0,1-2.2-2.2v-.61h3.06V142.37h0a.87.87,0,0,1,.87-.88h20.89a.87.87,0,0,1,.88.88Zm-21.56-13v13H682.3v-13Z"/>
              </g>
              <path id="Rectangle-6-5" data-name="Rectangle-6" d="M667.55,145.28h0a.44.44,0,0,1,0,.62l-3.73,3.73a.44.44,0,0,1-.62,0h0a.44.44,0,0,1,0-.62l3.73-3.73A.44.44,0,0,1,667.55,145.28Z"/>
              <path id="Rectangle-6-Copy-5" data-name="Rectangle-6-Copy" d="M665.14,144.83h0a.44.44,0,0,1,0,.62L663.59,147a.44.44,0,0,1-.62,0h0a.44.44,0,0,1,0-.62l1.55-1.55A.44.44,0,0,1,665.14,144.83Z"/>
            </g>
          </g>
        </g>
        <g id="Page-1-6" data-name="Page-1">
          <g id="Atoms-6" data-name="Atoms">
            <g id="Group-6-Copy-6" data-name="Group-6-Copy">
              <g id="Group-5-6" data-name="Group-5">
                <path id="Combined-Shape-6" data-name="Combined-Shape" d="M683.54,195.75h3.09v.61h0a2.21,2.21,0,0,1-2.2,2.2H660a2.2,2.2,0,0,1-2.19-2.2v-.61h3V181.67h0a.87.87,0,0,1,.88-.88h20.89a.88.88,0,0,1,.88.88Zm-21.56-13v13h20.54v-13Z"/>
              </g>
              <path id="Rectangle-6-6" data-name="Rectangle-6" d="M667.76,184.58h0a.44.44,0,0,1,0,.62L664,188.93a.44.44,0,0,1-.62,0h0a.43.43,0,0,1,0-.63l3.72-3.72A.44.44,0,0,1,667.76,184.58Z"/>
              <path id="Rectangle-6-Copy-6" data-name="Rectangle-6-Copy" d="M665.36,184.13h0a.44.44,0,0,1,0,.62l-1.55,1.55a.45.45,0,0,1-.63,0h0a.44.44,0,0,1,0-.62l1.56-1.55A.44.44,0,0,1,665.36,184.13Z"/>
            </g>
          </g>
        </g>
      </g>
    </g>
  </g>
  <g>
    <text class="cls-2" transform="translate(257.58 41.68)"><tspan class="cls-3"> </tspan><tspan x="4.26" y="0">8</tspan></text>
    <text class="cls-4" transform="translate(399.67 255.48) rotate(-179.88)"><tspan class="cls-3"> </tspan><tspan x="4.26" y="0">8</tspan></text>
    <path d="M268,46.25a86.45,86.45,0,0,1-7.67,9.17s-2.22,2.66-2.11,5.37c0,0,.06,3.47,4.23,4.2a7.05,7.05,0,0,0,4.74-1.07s.34,1.3-2.34,5.35h6.53s-2.63-3.59-2.57-5.32a7.39,7.39,0,0,0,3.52,1s5.07.17,5.15-5c0,0,.17-2.38-2.53-5.34C274.92,54.59,268.94,47.79,268,46.25Z"/>
    <path d="M388.78,250.79a83.57,83.57,0,0,1,7.65-9.17s2.22-2.67,2.1-5.39c0,0-.06-3.47-4.23-4.18a7.05,7.05,0,0,0-4.74,1.07s-.35-1.3,2.33-5.35h-6.53s2.64,3.58,2.58,5.32a7.45,7.45,0,0,0-3.53-.95s-5.06-.17-5.14,5c0,0-.17,2.37,2.54,5.34C381.81,242.47,387.8,249.26,388.78,250.79Z"/>
    <g>
      <g id="Page-1-7" data-name="Page-1">
        <g id="Atoms-7" data-name="Atoms">
          <g id="Group-6-Copy-7" data-name="Group-6-Copy">
            <g id="Group-5-7" data-name="Group-5">
              <path id="Combined-Shape-7" data-name="Combined-Shape" d="M375.61,98.88h3.09v.61h0a2.2,2.2,0,0,1-2.2,2.19H352.1a2.19,2.19,0,0,1-2.19-2.19v-.61h3V84.79h0a.87.87,0,0,1,.88-.87h20.89a.88.88,0,0,1,.88.87Zm-21.56-13v13h20.54v-13Z"/>
            </g>
            <path id="Rectangle-6-7" data-name="Rectangle-6" d="M359.83,87.71h0a.44.44,0,0,1,0,.62l-3.72,3.72a.44.44,0,0,1-.62,0h0a.42.42,0,0,1,0-.62l3.72-3.72A.44.44,0,0,1,359.83,87.71Z"/>
            <path id="Rectangle-6-Copy-7" data-name="Rectangle-6-Copy" d="M357.43,87.26h0a.44.44,0,0,1,0,.62l-1.55,1.55a.45.45,0,0,1-.63,0h0a.44.44,0,0,1,0-.62l1.56-1.55A.44.44,0,0,1,357.43,87.26Z"/>
          </g>
        </g>
      </g>
      <g id="Page-1-8" data-name="Page-1">
        <g id="Atoms-8" data-name="Atoms">
          <g id="Group-6-Copy-8" data-name="Group-6-Copy">
            <g id="Group-5-8" data-name="Group-5">
              <path id="Combined-Shape-8" data-name="Combined-Shape" d="M375.41,138.18h3.09v.61h0a2.19,2.19,0,0,1-2.2,2.19H351.9a2.19,2.19,0,0,1-2.19-2.19v-.61h3.05V124.09h0a.88.88,0,0,1,.88-.87h20.89a.87.87,0,0,1,.88.87Zm-21.56-13v13h20.54v-13Z"/>
            </g>
            <path id="Rectangle-6-8" data-name="Rectangle-6" d="M359.63,127h0a.42.42,0,0,1,0,.62l-3.72,3.72a.44.44,0,0,1-.62,0h0a.44.44,0,0,1,0-.62L359,127A.44.44,0,0,1,359.63,127Z"/>
            <path id="Rectangle-6-Copy-8" data-name="Rectangle-6-Copy" d="M357.23,126.56h0a.44.44,0,0,1,0,.62l-1.55,1.55a.44.44,0,0,1-.62,0h0a.44.44,0,0,1,0-.62l1.55-1.55A.44.44,0,0,1,357.23,126.56Z"/>
          </g>
        </g>
      </g>
      <g id="Page-1-9" data-name="Page-1">
        <g id="Atoms-9" data-name="Atoms">
          <g id="Group-6-Copy-9" data-name="Group-6-Copy">
            <g id="Group-5-9" data-name="Group-5">
              <path id="Combined-Shape-9" data-name="Combined-Shape" d="M375.62,177.47h3.09v.62h0a2.19,2.19,0,0,1-2.19,2.19h-24.4a2.2,2.2,0,0,1-2.2-2.19v-.62H353V163.39h0a.87.87,0,0,1,.88-.87h20.89a.87.87,0,0,1,.87.87Zm-21.55-13v13h20.54v-13Z"/>
            </g>
            <path id="Rectangle-6-9" data-name="Rectangle-6" d="M359.85,166.31h0a.44.44,0,0,1,0,.62l-3.73,3.72a.44.44,0,0,1-.62,0h0a.44.44,0,0,1,0-.62l3.73-3.72A.42.42,0,0,1,359.85,166.31Z"/>
            <path id="Rectangle-6-Copy-9" data-name="Rectangle-6-Copy" d="M357.45,165.86h0a.44.44,0,0,1,0,.62L355.89,168a.44.44,0,0,1-.62,0h0a.44.44,0,0,1,0-.62l1.55-1.55A.43.43,0,0,1,357.45,165.86Z"/>
          </g>
        </g>
      </g>
      <g id="Page-1-10" data-name="Page-1">
        <g id="Atoms-10" data-name="Atoms">
          <g id="Group-6-Copy-10" data-name="Group-6-Copy">
            <g id="Group-5-10" data-name="Group-5">
              <path id="Combined-Shape-10" data-name="Combined-Shape" d="M302.8,98.45h3.09v.62h0a2.2,2.2,0,0,1-2.2,2.19h-24.4a2.19,2.19,0,0,1-2.19-2.19v-.62h3V84.37h0a.88.88,0,0,1,.88-.88h20.89a.89.89,0,0,1,.88.88Zm-21.56-13v13h20.54v-13Z"/>
            </g>
            <path id="Rectangle-6-10" data-name="Rectangle-6" d="M287,87.29h0a.44.44,0,0,1,0,.62l-3.72,3.72a.44.44,0,0,1-.62,0h0a.42.42,0,0,1,0-.62l3.72-3.72A.42.42,0,0,1,287,87.29Z"/>
            <path id="Rectangle-6-Copy-10" data-name="Rectangle-6-Copy" d="M284.62,86.84h0a.44.44,0,0,1,0,.62L283.07,89a.45.45,0,0,1-.63,0h0a.44.44,0,0,1,0-.62L284,86.84A.42.42,0,0,1,284.62,86.84Z"/>
          </g>
        </g>
      </g>
      <g id="Page-1-11" data-name="Page-1">
        <g id="Atoms-11" data-name="Atoms">
          <g id="Group-6-Copy-11" data-name="Group-6-Copy">
            <g id="Group-5-11" data-name="Group-5">
              <path id="Combined-Shape-11" data-name="Combined-Shape" d="M302.6,137.75h3.09v.62h0a2.19,2.19,0,0,1-2.2,2.19h-24.4a2.19,2.19,0,0,1-2.19-2.19v-.62H280V123.67h0a.89.89,0,0,1,.88-.88h20.89a.88.88,0,0,1,.88.88Zm-21.56-13v13h20.54v-13Z"/>
            </g>
            <path id="Rectangle-6-11" data-name="Rectangle-6" d="M286.82,126.59h0a.42.42,0,0,1,0,.62l-3.72,3.72a.44.44,0,0,1-.62,0h0a.44.44,0,0,1,0-.62l3.72-3.72A.42.42,0,0,1,286.82,126.59Z"/>
            <path id="Rectangle-6-Copy-11" data-name="Rectangle-6-Copy" d="M284.42,126.14h0a.44.44,0,0,1,0,.62l-1.55,1.55a.44.44,0,0,1-.62,0h0a.44.44,0,0,1,0-.62l1.55-1.55A.42.42,0,0,1,284.42,126.14Z"/>
          </g>
        </g>
      </g>
      <g id="Page-1-12" data-name="Page-1">
        <g id="Atoms-12" data-name="Atoms">
          <g id="Group-6-Copy-12" data-name="Group-6-Copy">
            <g id="Group-5-12" data-name="Group-5">
              <path id="Combined-Shape-12" data-name="Combined-Shape" d="M302.81,177.05h3.09v.62h0a2.19,2.19,0,0,1-2.19,2.19h-24.4a2.2,2.2,0,0,1-2.2-2.19v-.62h3.06V163h0a.88.88,0,0,1,.88-.88h20.89a.88.88,0,0,1,.87.88Zm-21.55-13v13H301.8v-13Z"/>
            </g>
            <path id="Rectangle-6-12" data-name="Rectangle-6" d="M287,165.88h0a.45.45,0,0,1,0,.63l-3.73,3.72a.44.44,0,0,1-.62,0h0a.44.44,0,0,1,0-.62l3.73-3.73A.44.44,0,0,1,287,165.88Z"/>
            <path id="Rectangle-6-Copy-12" data-name="Rectangle-6-Copy" d="M284.64,165.43h0a.45.45,0,0,1,0,.63l-1.56,1.55a.44.44,0,0,1-.62,0h0a.44.44,0,0,1,0-.62l1.55-1.56A.45.45,0,0,1,284.64,165.43Z"/>
          </g>
        </g>
      </g>
      <g id="Page-1-13" data-name="Page-1">
        <g id="Atoms-13" data-name="Atoms">
          <g id="Group-6-Copy-13" data-name="Group-6-Copy">
            <g id="Group-5-13" data-name="Group-5">
              <path id="Combined-Shape-13" data-name="Combined-Shape" d="M375.57,217.2h3.09v.61h0a2.19,2.19,0,0,1-2.19,2.19h-24.4a2.19,2.19,0,0,1-2.2-2.19v-.61h3.06V203.11h0a.87.87,0,0,1,.87-.87h20.9a.87.87,0,0,1,.87.87ZM354,204.2v13h20.54v-13Z"/>
            </g>
            <path id="Rectangle-6-13" data-name="Rectangle-6" d="M359.8,206h0a.44.44,0,0,1,0,.62l-3.73,3.72a.44.44,0,0,1-.62,0h0a.44.44,0,0,1,0-.62l3.73-3.72A.44.44,0,0,1,359.8,206Z"/>
            <path id="Rectangle-6-Copy-13" data-name="Rectangle-6-Copy" d="M357.39,205.58h0a.42.42,0,0,1,0,.62l-1.55,1.55a.44.44,0,0,1-.62,0h0a.44.44,0,0,1,0-.62l1.55-1.55A.44.44,0,0,1,357.39,205.58Z"/>
          </g>
        </g>
      </g>
      <g id="Page-1-14" data-name="Page-1">
        <g id="Atoms-14" data-name="Atoms">
          <g id="Group-6-Copy-14" data-name="Group-6-Copy">
            <g id="Group-5-14" data-name="Group-5">
              <path id="Combined-Shape-14" data-name="Combined-Shape" d="M302.76,216.77h3.09v.62h0a2.19,2.19,0,0,1-2.19,2.19h-24.4a2.19,2.19,0,0,1-2.2-2.19v-.62h3.06V202.69h0a.88.88,0,0,1,.87-.88h20.9a.88.88,0,0,1,.87.88Zm-21.56-13v13h20.54v-13Z"/>
            </g>
            <path id="Rectangle-6-14" data-name="Rectangle-6" d="M287,205.61h0a.44.44,0,0,1,0,.62L283.26,210a.44.44,0,0,1-.62,0h0a.44.44,0,0,1,0-.62l3.73-3.72A.42.42,0,0,1,287,205.61Z"/>
            <path id="Rectangle-6-Copy-14" data-name="Rectangle-6-Copy" d="M284.58,205.16h0a.42.42,0,0,1,0,.62L283,207.33a.44.44,0,0,1-.62,0h0a.44.44,0,0,1,0-.62l1.55-1.55A.42.42,0,0,1,284.58,205.16Z"/>
          </g>
        </g>
      </g>
    </g>
  </g>
  <g>
    <text class="cls-2" transform="translate(62.41 326.34)"><tspan class="cls-3"> </tspan><tspan x="4.26" y="0">5</tspan></text>
    <text class="cls-4" transform="translate(204.5 540.14) rotate(-179.88)"><tspan xml:space="preserve"> 5</tspan></text>
    <path d="M72.8,330.91a85.82,85.82,0,0,1-7.67,9.16s-2.22,2.66-2.11,5.38c0,0,.06,3.47,4.22,4.2A7.08,7.08,0,0,0,72,348.58s.34,1.3-2.35,5.34h6.54s-2.63-3.58-2.57-5.32a7.34,7.34,0,0,0,3.52,1s5.06.17,5.15-5c0,0,.17-2.37-2.53-5.34C79.75,339.24,73.77,332.44,72.8,330.91Z"/>
    <path d="M193.61,535.45a84.72,84.72,0,0,1,7.64-9.18s2.23-2.66,2.11-5.38c0,0-.07-3.47-4.23-4.19a7.09,7.09,0,0,0-4.74,1.08s-.35-1.3,2.33-5.35h-6.53s2.63,3.58,2.58,5.32a7.45,7.45,0,0,0-3.53-1s-5.06-.17-5.14,5c0,0-.17,2.37,2.54,5.34C186.64,527.13,192.63,533.91,193.61,535.45Z"/>
    <g>
      <g id="Page-1-15" data-name="Page-1">
        <g id="Atoms-15" data-name="Atoms">
          <g id="Group-6-Copy-15" data-name="Group-6-Copy">
            <g id="Group-5-15" data-name="Group-5">
              <path id="Combined-Shape-15" data-name="Combined-Shape" d="M180.48,403.18h3.09v.62h0a2.19,2.19,0,0,1-2.19,2.19H157a2.2,2.2,0,0,1-2.2-2.19v-.62h3.06V389.1h0a.88.88,0,0,1,.88-.88h20.89a.88.88,0,0,1,.87.88Zm-21.55-13v13h20.54v-13Z"/>
            </g>
            <path id="Rectangle-6-15" data-name="Rectangle-6" d="M164.71,392h0a.45.45,0,0,1,0,.63L161,396.36a.44.44,0,0,1-.62,0h0a.44.44,0,0,1,0-.62l3.73-3.73A.44.44,0,0,1,164.71,392Z"/>
            <path id="Rectangle-6-Copy-15" data-name="Rectangle-6-Copy" d="M162.31,391.56h0a.45.45,0,0,1,0,.63l-1.56,1.55a.44.44,0,0,1-.62,0h0a.44.44,0,0,1,0-.62l1.55-1.56A.45.45,0,0,1,162.31,391.56Z"/>
          </g>
        </g>
      </g>
      <g id="Page-1-16" data-name="Page-1">
        <g id="Atoms-16" data-name="Atoms">
          <g id="Group-6-Copy-16" data-name="Group-6-Copy">
            <g id="Group-5-16" data-name="Group-5">
              <path id="Combined-Shape-16" data-name="Combined-Shape" d="M143.33,441.86h3.09v.62h0a2.2,2.2,0,0,1-2.2,2.19h-24.4a2.19,2.19,0,0,1-2.19-2.19v-.62h3.05V427.78h0a.88.88,0,0,1,.88-.88h20.89a.89.89,0,0,1,.88.88Zm-21.56-13v13h20.54v-13Z"/>
            </g>
            <path id="Rectangle-6-16" data-name="Rectangle-6" d="M127.55,430.7h0a.44.44,0,0,1,0,.62L123.83,435a.44.44,0,0,1-.62,0h0a.42.42,0,0,1,0-.62l3.72-3.72A.42.42,0,0,1,127.55,430.7Z"/>
            <path id="Rectangle-6-Copy-16" data-name="Rectangle-6-Copy" d="M125.15,430.25h0a.44.44,0,0,1,0,.62l-1.55,1.55a.45.45,0,0,1-.63,0h0a.44.44,0,0,1,0-.62l1.56-1.55A.42.42,0,0,1,125.15,430.25Z"/>
          </g>
        </g>
      </g>
      <g id="Page-1-17" data-name="Page-1">
        <g id="Atoms-17" data-name="Atoms">
          <g id="Group-6-Copy-17" data-name="Group-6-Copy">
            <g id="Group-5-17" data-name="Group-5">
              <path id="Combined-Shape-17" data-name="Combined-Shape" d="M180.5,481.78h3.09v.62h0a2.19,2.19,0,0,1-2.19,2.19H157a2.19,2.19,0,0,1-2.2-2.19v-.62h3.06V467.7h0a.88.88,0,0,1,.87-.88h20.89a.88.88,0,0,1,.88.88Zm-21.56-13v13h20.54v-13Z"/>
            </g>
            <path id="Rectangle-6-17" data-name="Rectangle-6" d="M164.73,470.61h0a.44.44,0,0,1,0,.62L161,475a.44.44,0,0,1-.62,0h0a.44.44,0,0,1,0-.62l3.73-3.73A.44.44,0,0,1,164.73,470.61Z"/>
            <path id="Rectangle-6-Copy-17" data-name="Rectangle-6-Copy" d="M162.32,470.16h0a.44.44,0,0,1,0,.62l-1.55,1.56a.44.44,0,0,1-.62,0h0a.44.44,0,0,1,0-.62l1.55-1.56A.44.44,0,0,1,162.32,470.16Z"/>
          </g>
        </g>
      </g>
      <g id="Page-1-18" data-name="Page-1">
        <g id="Atoms-18" data-name="Atoms">
          <g id="Group-6-Copy-18" data-name="Group-6-Copy">
            <g id="Group-5-18" data-name="Group-5">
              <path id="Combined-Shape-18" data-name="Combined-Shape" d="M107.4,403.18h3.09v.62h0a2.2,2.2,0,0,1-2.2,2.19H83.89a2.19,2.19,0,0,1-2.19-2.19v-.62h3V389.1h0a.88.88,0,0,1,.88-.88h20.89a.89.89,0,0,1,.88.88Zm-21.56-13v13h20.54v-13Z"/>
            </g>
            <path id="Rectangle-6-18" data-name="Rectangle-6" d="M91.62,392h0a.45.45,0,0,1,0,.63l-3.72,3.72a.45.45,0,0,1-.63,0h0a.44.44,0,0,1,0-.62L91,392A.44.44,0,0,1,91.62,392Z"/>
            <path id="Rectangle-6-Copy-18" data-name="Rectangle-6-Copy" d="M89.22,391.56h0a.45.45,0,0,1,0,.63l-1.55,1.55a.45.45,0,0,1-.63,0h0a.44.44,0,0,1,0-.62l1.56-1.56A.44.44,0,0,1,89.22,391.56Z"/>
          </g>
        </g>
      </g>
      <g id="Page-1-19" data-name="Page-1">
        <g id="Atoms-19" data-name="Atoms">
          <g id="Group-6-Copy-19" data-name="Group-6-Copy">
            <g id="Group-5-19" data-name="Group-5">
              <path id="Combined-Shape-19" data-name="Combined-Shape" d="M107.38,481.78h3.09v.62h0a2.19,2.19,0,0,1-2.2,2.19H83.87a2.19,2.19,0,0,1-2.19-2.19v-.62h3V467.7h0a.89.89,0,0,1,.88-.88H106.5a.88.88,0,0,1,.88.88Zm-21.56-13v13h20.54v-13Z"/>
            </g>
            <path id="Rectangle-6-19" data-name="Rectangle-6" d="M91.6,470.61h0a.44.44,0,0,1,0,.62L87.88,475a.44.44,0,0,1-.62,0h0a.44.44,0,0,1,0-.62L91,470.61A.44.44,0,0,1,91.6,470.61Z"/>
            <path id="Rectangle-6-Copy-19" data-name="Rectangle-6-Copy" d="M89.2,470.16h0a.44.44,0,0,1,0,.62l-1.55,1.56a.44.44,0,0,1-.62,0h0a.44.44,0,0,1,0-.62l1.55-1.56A.44.44,0,0,1,89.2,470.16Z"/>
          </g>
        </g>
      </g>
    </g>
  </g>
  <g>
    <text class="cls-2" transform="translate(64.22 40.68)"><tspan class="cls-3"> </tspan><tspan x="4.26" y="0">9</tspan></text>
    <text class="cls-4" transform="translate(206.3 254.48) rotate(-179.88)"><tspan class="cls-3"> </tspan><tspan x="4.26" y="0">9</tspan></text>
    <path d="M74.6,45.25a85.55,85.55,0,0,1-7.66,9.17s-2.23,2.66-2.11,5.37c0,0,.06,3.47,4.22,4.2a7.05,7.05,0,0,0,4.74-1.07s.35,1.3-2.34,5.35H78S75.35,64.68,75.41,63a7.45,7.45,0,0,0,3.53.95s5.06.17,5.15-5c0,0,.17-2.38-2.53-5.34C81.56,53.59,75.57,46.79,74.6,45.25Z"/>
    <path d="M195.41,249.79a85.6,85.6,0,0,1,7.65-9.18s2.22-2.66,2.1-5.38c0,0-.06-3.47-4.22-4.18a7.08,7.08,0,0,0-4.75,1.07s-.34-1.3,2.34-5.35H192s2.64,3.58,2.59,5.32a7.45,7.45,0,0,0-3.53-.95s-5.06-.17-5.14,5c0,0-.17,2.37,2.53,5.34C188.44,241.47,194.44,248.26,195.41,249.79Z"/>
    <g>
      <g id="Page-1-20" data-name="Page-1">
        <g id="Atoms-20" data-name="Atoms">
          <g id="Group-6-Copy-20" data-name="Group-6-Copy">
            <g id="Group-5-20" data-name="Group-5">
              <path id="Combined-Shape-20" data-name="Combined-Shape" d="M182.24,97.88h3.09v.61h0a2.19,2.19,0,0,1-2.19,2.19h-24.4a2.19,2.19,0,0,1-2.2-2.19v-.61h3.05V83.79h0a.88.88,0,0,1,.88-.87h20.89a.87.87,0,0,1,.88.87Zm-21.56-13v13h20.54v-13Z"/>
            </g>
            <path id="Rectangle-6-20" data-name="Rectangle-6" d="M166.47,86.71h0a.44.44,0,0,1,0,.62l-3.73,3.72a.44.44,0,0,1-.62,0h0a.44.44,0,0,1,0-.62l3.73-3.72A.44.44,0,0,1,166.47,86.71Z"/>
            <path id="Rectangle-6-Copy-20" data-name="Rectangle-6-Copy" d="M164.06,86.26h0a.44.44,0,0,1,0,.62l-1.55,1.55a.44.44,0,0,1-.62,0h0a.44.44,0,0,1,0-.62l1.55-1.55A.44.44,0,0,1,164.06,86.26Z"/>
          </g>
        </g>
      </g>
      <g id="Page-1-21" data-name="Page-1">
        <g id="Atoms-21" data-name="Atoms">
          <g id="Group-6-Copy-21" data-name="Group-6-Copy">
            <g id="Group-5-21" data-name="Group-5">
              <path id="Combined-Shape-21" data-name="Combined-Shape" d="M182,137.17h3.09v.62h0a2.19,2.19,0,0,1-2.19,2.19h-24.4a2.2,2.2,0,0,1-2.2-2.19v-.62h3.06V123.09h0a.87.87,0,0,1,.88-.87h20.89a.87.87,0,0,1,.87.87Zm-21.55-13v13H181v-13Z"/>
            </g>
            <path id="Rectangle-6-21" data-name="Rectangle-6" d="M166.27,126h0a.44.44,0,0,1,0,.62l-3.73,3.72a.44.44,0,0,1-.62,0h0a.44.44,0,0,1,0-.62l3.73-3.72A.42.42,0,0,1,166.27,126Z"/>
            <path id="Rectangle-6-Copy-21" data-name="Rectangle-6-Copy" d="M163.87,125.56h0a.44.44,0,0,1,0,.62l-1.56,1.55a.44.44,0,0,1-.62,0h0a.44.44,0,0,1,0-.62l1.55-1.55A.44.44,0,0,1,163.87,125.56Z"/>
          </g>
        </g>
      </g>
      <g id="Page-1-22" data-name="Page-1">
        <g id="Atoms-22" data-name="Atoms">
          <g id="Group-6-Copy-22" data-name="Group-6-Copy">
            <g id="Group-5-22" data-name="Group-5">
              <path id="Combined-Shape-22" data-name="Combined-Shape" d="M182.26,176.47h3.09v.62h0a2.19,2.19,0,0,1-2.2,2.19h-24.4a2.19,2.19,0,0,1-2.19-2.19v-.62h3.05V162.39h0a.89.89,0,0,1,.88-.88h20.89a.88.88,0,0,1,.88.88Zm-21.56-13v13h20.54v-13Z"/>
            </g>
            <path id="Rectangle-6-22" data-name="Rectangle-6" d="M166.48,165.31h0a.42.42,0,0,1,0,.62l-3.72,3.72a.44.44,0,0,1-.62,0h0a.44.44,0,0,1,0-.62l3.72-3.72A.42.42,0,0,1,166.48,165.31Z"/>
            <path id="Rectangle-6-Copy-22" data-name="Rectangle-6-Copy" d="M164.08,164.86h0a.44.44,0,0,1,0,.62L162.53,167a.44.44,0,0,1-.62,0h0a.44.44,0,0,1,0-.62l1.55-1.55A.42.42,0,0,1,164.08,164.86Z"/>
          </g>
        </g>
      </g>
      <g id="Page-1-23" data-name="Page-1">
        <g id="Atoms-23" data-name="Atoms">
          <g id="Group-6-Copy-23" data-name="Group-6-Copy">
            <g id="Group-5-23" data-name="Group-5">
              <path id="Combined-Shape-23" data-name="Combined-Shape" d="M109.43,97.45h3.09v.62h0a2.19,2.19,0,0,1-2.19,2.19H85.93a2.19,2.19,0,0,1-2.2-2.19v-.62h3V83.37h0a.89.89,0,0,1,.88-.88h20.89a.88.88,0,0,1,.88.88Zm-21.56-13v13h20.54v-13Z"/>
            </g>
            <path id="Rectangle-6-23" data-name="Rectangle-6" d="M93.66,86.29h0a.44.44,0,0,1,0,.62l-3.73,3.72a.44.44,0,0,1-.62,0h0a.44.44,0,0,1,0-.62L93,86.29A.42.42,0,0,1,93.66,86.29Z"/>
            <path id="Rectangle-6-Copy-23" data-name="Rectangle-6-Copy" d="M91.25,85.84h0a.44.44,0,0,1,0,.62L89.7,88a.44.44,0,0,1-.62,0h0a.44.44,0,0,1,0-.62l1.55-1.55A.42.42,0,0,1,91.25,85.84Z"/>
          </g>
        </g>
      </g>
      <g id="Page-1-24" data-name="Page-1">
        <g id="Atoms-24" data-name="Atoms">
          <g id="Group-6-Copy-24" data-name="Group-6-Copy">
            <g id="Group-5-24" data-name="Group-5">
              <path id="Combined-Shape-24" data-name="Combined-Shape" d="M109.23,136.75h3.09v.62h0a2.19,2.19,0,0,1-2.19,2.19H85.73a2.2,2.2,0,0,1-2.2-2.19v-.62h3.06V122.67h0a.88.88,0,0,1,.88-.88h20.89a.88.88,0,0,1,.87.88Zm-21.55-13v13h20.54v-13Z"/>
            </g>
            <path id="Rectangle-6-24" data-name="Rectangle-6" d="M93.46,125.58h0a.45.45,0,0,1,0,.63l-3.73,3.72a.44.44,0,0,1-.62,0h0a.44.44,0,0,1,0-.62l3.73-3.73A.44.44,0,0,1,93.46,125.58Z"/>
            <path id="Rectangle-6-Copy-24" data-name="Rectangle-6-Copy" d="M91.06,125.13h0a.45.45,0,0,1,0,.63l-1.56,1.55a.44.44,0,0,1-.62,0h0a.44.44,0,0,1,0-.62l1.55-1.56A.45.45,0,0,1,91.06,125.13Z"/>
          </g>
        </g>
      </g>
      <g id="Page-1-25" data-name="Page-1">
        <g id="Atoms-25" data-name="Atoms">
          <g id="Group-6-Copy-25" data-name="Group-6-Copy">
            <g id="Group-5-25" data-name="Group-5">
              <path id="Combined-Shape-25" data-name="Combined-Shape" d="M109.45,176.05h3.09v.62h0a2.19,2.19,0,0,1-2.2,2.19H85.94a2.19,2.19,0,0,1-2.19-2.19v-.62h3V162h0a.89.89,0,0,1,.88-.88h20.89a.88.88,0,0,1,.88.88Zm-21.56-13v13h20.54v-13Z"/>
            </g>
            <path id="Rectangle-6-25" data-name="Rectangle-6" d="M93.67,164.88h0a.44.44,0,0,1,0,.63L90,169.23a.44.44,0,0,1-.62,0h0a.44.44,0,0,1,0-.62l3.72-3.73A.44.44,0,0,1,93.67,164.88Z"/>
            <path id="Rectangle-6-Copy-25" data-name="Rectangle-6-Copy" d="M91.27,164.43h0a.45.45,0,0,1,0,.63l-1.55,1.55a.44.44,0,0,1-.62,0h0a.44.44,0,0,1,0-.62l1.55-1.56A.44.44,0,0,1,91.27,164.43Z"/>
          </g>
        </g>
      </g>
      <g id="Page-1-26" data-name="Page-1">
        <g id="Atoms-26" data-name="Atoms">
          <g id="Group-6-Copy-26" data-name="Group-6-Copy">
            <g id="Group-5-26" data-name="Group-5">
              <path id="Combined-Shape-26" data-name="Combined-Shape" d="M182.21,216.2h3.09v.61h0a2.2,2.2,0,0,1-2.2,2.19H158.7a2.19,2.19,0,0,1-2.19-2.19v-.61h3.05V202.11h0a.87.87,0,0,1,.88-.87h20.89a.88.88,0,0,1,.88.87Zm-21.56-13v13h20.54v-13Z"/>
            </g>
            <path id="Rectangle-6-26" data-name="Rectangle-6" d="M166.43,205h0a.44.44,0,0,1,0,.62l-3.72,3.72a.44.44,0,0,1-.62,0h0a.42.42,0,0,1,0-.62l3.72-3.72A.44.44,0,0,1,166.43,205Z"/>
            <path id="Rectangle-6-Copy-26" data-name="Rectangle-6-Copy" d="M164,204.58h0a.44.44,0,0,1,0,.62l-1.55,1.55a.44.44,0,0,1-.62,0h0a.42.42,0,0,1,0-.62l1.55-1.55A.44.44,0,0,1,164,204.58Z"/>
          </g>
        </g>
      </g>
      <g id="Page-1-27" data-name="Page-1">
        <g id="Atoms-27" data-name="Atoms">
          <g id="Group-6-Copy-27" data-name="Group-6-Copy">
            <g id="Group-5-27" data-name="Group-5">
              <path id="Combined-Shape-27" data-name="Combined-Shape" d="M109.4,215.77h3.09v.62h0a2.2,2.2,0,0,1-2.2,2.19H85.89a2.19,2.19,0,0,1-2.19-2.19v-.62h3V201.69h0a.88.88,0,0,1,.88-.88h20.89a.89.89,0,0,1,.88.88Zm-21.56-13v13h20.54v-13Z"/>
            </g>
            <path id="Rectangle-6-27" data-name="Rectangle-6" d="M93.62,204.61h0a.44.44,0,0,1,0,.62L89.9,209a.44.44,0,0,1-.62,0h0a.42.42,0,0,1,0-.62L93,204.61A.42.42,0,0,1,93.62,204.61Z"/>
            <path id="Rectangle-6-Copy-27" data-name="Rectangle-6-Copy" d="M91.22,204.16h0a.44.44,0,0,1,0,.62l-1.55,1.55a.44.44,0,0,1-.62,0h0a.42.42,0,0,1,0-.62l1.55-1.55A.42.42,0,0,1,91.22,204.16Z"/>
          </g>
        </g>
      </g>
    </g>
    <g id="Page-1-28" data-name="Page-1">
      <g id="Atoms-28" data-name="Atoms">
        <g id="Group-6-Copy-28" data-name="Group-6-Copy">
          <g id="Group-5-28" data-name="Group-5">
            <path id="Combined-Shape-28" data-name="Combined-Shape" d="M145.75,156.82h3.09v.62h0a2.2,2.2,0,0,1-2.2,2.19h-24.4a2.19,2.19,0,0,1-2.19-2.19v-.62h3V142.74h0a.87.87,0,0,1,.88-.87h20.89a.88.88,0,0,1,.88.87Zm-21.56-13v13h20.54v-13Z"/>
          </g>
          <path id="Rectangle-6-28" data-name="Rectangle-6" d="M130,145.66h0a.44.44,0,0,1,0,.62L126.25,150a.44.44,0,0,1-.62,0h0a.42.42,0,0,1,0-.62l3.72-3.72A.42.42,0,0,1,130,145.66Z"/>
          <path id="Rectangle-6-Copy-28" data-name="Rectangle-6-Copy" d="M127.57,145.21h0a.44.44,0,0,1,0,.62L126,147.38a.45.45,0,0,1-.63,0h0a.44.44,0,0,1,0-.62l1.56-1.55A.42.42,0,0,1,127.57,145.21Z"/>
        </g>
      </g>
    </g>
  </g>
  <g>
    <text class="cls-2" transform="translate(448.94 42.02)"><tspan class="cls-3"> </tspan><tspan x="4.26" y="0">7</tspan></text>
    <text class="cls-4" transform="translate(591.03 255.82) rotate(-179.88)"><tspan class="cls-3"> </tspan><tspan x="4.26" y="0">7</tspan></text>
    <path d="M459.33,46.59a85.3,85.3,0,0,1-7.67,9.17s-2.22,2.66-2.11,5.38c0,0,.06,3.47,4.22,4.19a7.08,7.08,0,0,0,4.75-1.07s.34,1.3-2.35,5.35h6.54s-2.63-3.59-2.58-5.32a7.45,7.45,0,0,0,3.53.95s5.06.18,5.15-5c0,0,.17-2.38-2.53-5.34C466.28,54.93,460.3,48.13,459.33,46.59Z"/>
    <path d="M580.13,251.13a86.12,86.12,0,0,1,7.65-9.17s2.23-2.67,2.11-5.39c0,0-.07-3.46-4.23-4.18a7,7,0,0,0-4.74,1.08s-.35-1.31,2.33-5.36h-6.53s2.63,3.58,2.58,5.32a7.45,7.45,0,0,0-3.53-.95s-5.06-.17-5.14,5c0,0-.17,2.38,2.54,5.34C573.17,242.81,579.16,249.6,580.13,251.13Z"/>
    <g>
      <g>
        <g>
          <g id="Page-1-29" data-name="Page-1">
            <g id="Atoms-29" data-name="Atoms">
              <g id="Group-6-Copy-29" data-name="Group-6-Copy">
                <g id="Group-5-29" data-name="Group-5">
                  <path id="Combined-Shape-29" data-name="Combined-Shape" d="M567,119.08h3.09v.61h0a2.2,2.2,0,0,1-2.19,2.2h-24.4a2.21,2.21,0,0,1-2.2-2.2v-.61h3.06V105h0a.87.87,0,0,1,.88-.88h20.89a.87.87,0,0,1,.87.88Zm-21.55-13v13H566v-13Z"/>
                </g>
                <path id="Rectangle-6-29" data-name="Rectangle-6" d="M551.19,107.91h0a.44.44,0,0,1,0,.62l-3.73,3.73a.44.44,0,0,1-.62,0h0a.45.45,0,0,1,0-.63l3.73-3.72A.44.44,0,0,1,551.19,107.91Z"/>
                <path id="Rectangle-6-Copy-29" data-name="Rectangle-6-Copy" d="M548.79,107.46h0a.44.44,0,0,1,0,.62l-1.56,1.55a.44.44,0,0,1-.62,0h0a.44.44,0,0,1,0-.62l1.55-1.55A.45.45,0,0,1,548.79,107.46Z"/>
              </g>
            </g>
          </g>
          <g id="Page-1-30" data-name="Page-1">
            <g id="Atoms-30" data-name="Atoms">
              <g id="Group-6-Copy-30" data-name="Group-6-Copy">
                <g id="Group-5-30" data-name="Group-5">
                  <path id="Combined-Shape-30" data-name="Combined-Shape" d="M566.77,158.38h3.09V159h0a2.21,2.21,0,0,1-2.2,2.2h-24.4a2.2,2.2,0,0,1-2.19-2.2v-.61h3V144.3h0a.87.87,0,0,1,.88-.88h20.89a.88.88,0,0,1,.88.88Zm-21.56-13v13h20.54v-13Z"/>
                </g>
                <path id="Rectangle-6-30" data-name="Rectangle-6" d="M551,147.21h0a.44.44,0,0,1,0,.62l-3.72,3.72a.42.42,0,0,1-.62,0h0a.42.42,0,0,1,0-.62l3.72-3.72A.44.44,0,0,1,551,147.21Z"/>
                <path id="Rectangle-6-Copy-30" data-name="Rectangle-6-Copy" d="M548.59,146.76h0a.44.44,0,0,1,0,.62L547,148.93a.44.44,0,0,1-.62,0h0a.42.42,0,0,1,0-.62l1.55-1.55A.44.44,0,0,1,548.59,146.76Z"/>
              </g>
            </g>
          </g>
          <g id="Page-1-31" data-name="Page-1">
            <g id="Atoms-31" data-name="Atoms">
              <g id="Group-6-Copy-31" data-name="Group-6-Copy">
                <g id="Group-5-31" data-name="Group-5">
                  <path id="Combined-Shape-31" data-name="Combined-Shape" d="M567,197.68h3.09v.61h0a2.2,2.2,0,0,1-2.19,2.2h-24.4a2.2,2.2,0,0,1-2.2-2.2v-.61h3.06V183.6h0a.87.87,0,0,1,.87-.88H566.1a.87.87,0,0,1,.88.88Zm-21.56-13v13H566v-13Z"/>
                </g>
                <path id="Rectangle-6-31" data-name="Rectangle-6" d="M551.21,186.51h0a.44.44,0,0,1,0,.62l-3.73,3.72a.42.42,0,0,1-.62,0h0a.44.44,0,0,1,0-.62l3.73-3.72A.44.44,0,0,1,551.21,186.51Z"/>
                <path id="Rectangle-6-Copy-31" data-name="Rectangle-6-Copy" d="M548.8,186.06h0a.44.44,0,0,1,0,.62l-1.55,1.55a.44.44,0,0,1-.62,0h0a.44.44,0,0,1,0-.62l1.55-1.55A.44.44,0,0,1,548.8,186.06Z"/>
              </g>
            </g>
          </g>
        </g>
        <g>
          <g id="Page-1-32" data-name="Page-1">
            <g id="Atoms-32" data-name="Atoms">
              <g id="Group-6-Copy-32" data-name="Group-6-Copy">
                <g id="Group-5-32" data-name="Group-5">
                  <path id="Combined-Shape-32" data-name="Combined-Shape" d="M494.15,118.66h3.09v.61h0a2.2,2.2,0,0,1-2.19,2.2h-24.4a2.21,2.21,0,0,1-2.2-2.2v-.61h3.06V104.57h0a.87.87,0,0,1,.88-.87h20.89a.87.87,0,0,1,.87.87Zm-21.55-13v13h20.54v-13Z"/>
                </g>
                <path id="Rectangle-6-32" data-name="Rectangle-6" d="M478.38,107.49h0a.44.44,0,0,1,0,.62l-3.73,3.72a.42.42,0,0,1-.62,0h0a.44.44,0,0,1,0-.62l3.73-3.72A.44.44,0,0,1,478.38,107.49Z"/>
                <path id="Rectangle-6-Copy-32" data-name="Rectangle-6-Copy" d="M476,107h0a.44.44,0,0,1,0,.62l-1.56,1.55a.44.44,0,0,1-.62,0h0a.44.44,0,0,1,0-.62l1.55-1.55A.45.45,0,0,1,476,107Z"/>
              </g>
            </g>
          </g>
          <g id="Page-1-33" data-name="Page-1">
            <g id="Atoms-33" data-name="Atoms">
              <g id="Group-6-Copy-33" data-name="Group-6-Copy">
                <g id="Group-5-33" data-name="Group-5">
                  <path id="Combined-Shape-33" data-name="Combined-Shape" d="M494,158h3.09v.61h0a2.2,2.2,0,0,1-2.2,2.19h-24.4a2.19,2.19,0,0,1-2.19-2.19V158h3.05V143.87h0a.87.87,0,0,1,.88-.87h20.89a.88.88,0,0,1,.88.87ZM472.4,145v13h20.54V145Z"/>
                </g>
                <path id="Rectangle-6-33" data-name="Rectangle-6" d="M478.18,146.79h0a.44.44,0,0,1,0,.62l-3.72,3.72a.44.44,0,0,1-.62,0h0a.42.42,0,0,1,0-.62l3.72-3.72A.44.44,0,0,1,478.18,146.79Z"/>
                <path id="Rectangle-6-Copy-33" data-name="Rectangle-6-Copy" d="M475.78,146.34h0a.44.44,0,0,1,0,.62l-1.55,1.55a.44.44,0,0,1-.62,0h0a.42.42,0,0,1,0-.62l1.55-1.55A.44.44,0,0,1,475.78,146.34Z"/>
              </g>
            </g>
          </g>
          <g id="Page-1-34" data-name="Page-1">
            <g id="Atoms-34" data-name="Atoms">
              <g id="Group-6-Copy-34" data-name="Group-6-Copy">
                <g id="Group-5-34" data-name="Group-5">
                  <path id="Combined-Shape-34" data-name="Combined-Shape" d="M494.17,197.26h3.09v.61h0a2.19,2.19,0,0,1-2.19,2.19h-24.4a2.19,2.19,0,0,1-2.2-2.19v-.61h3.06V183.17h0a.87.87,0,0,1,.87-.87h20.89a.87.87,0,0,1,.88.87Zm-21.56-13v13h20.54v-13Z"/>
                </g>
                <path id="Rectangle-6-34" data-name="Rectangle-6" d="M478.4,186.09h0a.44.44,0,0,1,0,.62l-3.73,3.72a.44.44,0,0,1-.62,0h0a.44.44,0,0,1,0-.62l3.73-3.72A.42.42,0,0,1,478.4,186.09Z"/>
                <path id="Rectangle-6-Copy-34" data-name="Rectangle-6-Copy" d="M476,185.64h0a.44.44,0,0,1,0,.62l-1.55,1.55a.44.44,0,0,1-.62,0h0a.44.44,0,0,1,0-.62l1.55-1.55A.42.42,0,0,1,476,185.64Z"/>
              </g>
            </g>
          </g>
        </g>
      </g>
      <g id="Page-1-35" data-name="Page-1">
        <g id="Atoms-35" data-name="Atoms">
          <g id="Group-6-Copy-35" data-name="Group-6-Copy">
            <g id="Group-5-35" data-name="Group-5">
              <path id="Combined-Shape-35" data-name="Combined-Shape" d="M530.41,158.38h3.09V159h0a2.2,2.2,0,0,1-2.19,2.2h-24.4a2.2,2.2,0,0,1-2.2-2.2v-.61h3.06V144.3h0a.87.87,0,0,1,.87-.88h20.9a.87.87,0,0,1,.87.88Zm-21.55-13v13H529.4v-13Z"/>
            </g>
            <path id="Rectangle-6-35" data-name="Rectangle-6" d="M514.64,147.21h0a.44.44,0,0,1,0,.62l-3.73,3.72a.42.42,0,0,1-.62,0h0a.44.44,0,0,1,0-.62l3.73-3.72A.44.44,0,0,1,514.64,147.21Z"/>
            <path id="Rectangle-6-Copy-35" data-name="Rectangle-6-Copy" d="M512.23,146.76h0a.42.42,0,0,1,0,.62l-1.55,1.55a.44.44,0,0,1-.62,0h0a.44.44,0,0,1,0-.62l1.55-1.55A.44.44,0,0,1,512.23,146.76Z"/>
          </g>
        </g>
      </g>
    </g>
  </g>
</svg>
