<svg id="Layer_1" data-name="Layer 1" xmlns="http://www.w3.org/2000/svg" width="841.89" height="595.28" viewBox="0 0 841.89 595.28">
  <defs>
    <style>
      .cls-1, .cls-7 {
        fill: #fff;
      }

      .cls-1 {
        stroke: #000;
      }

      .cls-2, .cls-3, .cls-4 {
        fill: red;
      }

      .cls-3, .cls-5 {
        font-size: 17.64px;
      }

      .cls-3, .cls-4, .cls-5, .cls-6 {
        font-family: Georgia, Georgia;
      }

      .cls-4, .cls-6 {
        font-size: 17.64px;
      }
    </style>
  </defs>
  <title>yndlingskort</title>
  <g>
    <rect class="cls-1" x="41.89" y="14.15" width="184.25" height="266.46" rx="10.01" ry="10.01"/>
    <rect class="cls-1" x="233.46" y="14.15" width="184.25" height="266.46" rx="10.01" ry="10.01"/>
    <rect class="cls-1" x="427.11" y="14.15" width="184.25" height="266.46" rx="10.01" ry="10.01"/>
    <rect class="cls-1" x="617.48" y="14.15" width="184.25" height="266.46" rx="10.01" ry="10.01"/>
    <rect class="cls-1" x="41.02" y="297.64" width="184.25" height="266.46" rx="10.01" ry="10.01"/>
    <rect class="cls-1" x="232.6" y="297.64" width="184.25" height="266.46" rx="10.01" ry="10.01"/>
    <rect class="cls-1" x="426.24" y="297.64" width="184.25" height="266.46" rx="10.01" ry="10.01"/>
    <rect class="cls-1" x="616.62" y="297.64" width="184.25" height="266.46" rx="10.01" ry="10.01"/>
  </g>
  <g>
    <g id="Mobile">
      <g id="iPhone-8-Copy-4">
        <g id="Group-4">
          <g id="Group">
            <path id="Combined-Shape" class="cls-2" d="M701.63,392.22h13.73a2.29,2.29,0,0,1,2.29,2.29v29a2.3,2.3,0,0,1-2.29,2.29H701.63a2.29,2.29,0,0,1-2.29-2.29v-29h0a2.28,2.28,0,0,1,2.29-2.29Zm-.57,4.58v22.31h14.87V396.8Zm7.55-1.39a.86.86,0,1,0-.86-.86A.86.86,0,0,0,708.61,395.41ZM706.78,422a.58.58,0,0,0,0,1.15h3.43a.58.58,0,0,0,0-1.15Z"/>
          </g>
        </g>
      </g>
    </g>
    <g id="Mobile-2" data-name="Mobile">
      <g id="iPhone-8-Copy-4-2" data-name="iPhone-8-Copy-4">
        <g id="Group-4-2" data-name="Group-4">
          <g id="Group-2" data-name="Group">
            <path id="Combined-Shape-2" data-name="Combined-Shape" class="cls-2" d="M732.33,368.38h13.74a2.29,2.29,0,0,1,2.29,2.29v29a2.3,2.3,0,0,1-2.29,2.29H732.33a2.29,2.29,0,0,1-2.28-2.29v-29h0a2.28,2.28,0,0,1,2.28-2.29Zm-.57,4.58v22.31h14.88V373Zm7.55-1.39a.86.86,0,1,0-.85-.86A.85.85,0,0,0,739.31,371.57Zm-1.83,26.56a.58.58,0,0,0,0,1.15h3.44a.58.58,0,0,0,0-1.15Z"/>
          </g>
        </g>
      </g>
    </g>
    <g id="Mobile-3" data-name="Mobile">
      <g id="iPhone-8-Copy-4-3" data-name="iPhone-8-Copy-4">
        <g id="Group-4-3" data-name="Group-4">
          <g id="Group-3" data-name="Group">
            <path id="Combined-Shape-3" data-name="Combined-Shape" class="cls-2" d="M670.06,367.32h13.73a2.3,2.3,0,0,1,2.29,2.29v29a2.3,2.3,0,0,1-2.29,2.29H670.06a2.29,2.29,0,0,1-2.29-2.29v-29h0a2.29,2.29,0,0,1,2.29-2.29Zm-.58,4.58v22.31h14.88V371.9Zm7.56-1.39a.86.86,0,1,0-.86-.86A.86.86,0,0,0,677,370.51Zm-1.83,26.56a.58.58,0,1,0,0,1.15h3.43a.58.58,0,0,0,0-1.15Z"/>
          </g>
        </g>
      </g>
    </g>
    <g id="Mobile-4" data-name="Mobile">
      <g id="iPhone-8-Copy-4-4" data-name="iPhone-8-Copy-4">
        <g id="Group-4-4" data-name="Group-4">
          <g id="Group-4-5" data-name="Group">
            <path id="Combined-Shape-4" data-name="Combined-Shape" class="cls-2" d="M701.77,443h13.74a2.3,2.3,0,0,1,2.29,2.29v29a2.3,2.3,0,0,1-2.29,2.29H701.77a2.29,2.29,0,0,1-2.28-2.29v-29h0a2.29,2.29,0,0,1,2.28-2.29Zm-.57,4.58v22.31h14.88V447.62Zm7.56-1.39a.86.86,0,1,0-.86-.85A.85.85,0,0,0,708.76,446.23Zm-1.84,26.57a.57.57,0,0,0-.57.57.58.58,0,0,0,.57.57h3.44a.58.58,0,0,0,.57-.57.57.57,0,0,0-.57-.57Z"/>
          </g>
        </g>
      </g>
    </g>
    <g id="Mobile-5" data-name="Mobile">
      <g id="iPhone-8-Copy-4-5" data-name="iPhone-8-Copy-4">
        <g id="Group-4-6" data-name="Group-4">
          <g id="Group-5" data-name="Group">
            <path id="Combined-Shape-5" data-name="Combined-Shape" class="cls-2" d="M732.63,417.21h13.73a2.29,2.29,0,0,1,2.29,2.29v29a2.29,2.29,0,0,1-2.29,2.28H732.63a2.28,2.28,0,0,1-2.29-2.28v-29h0a2.28,2.28,0,0,1,2.29-2.29Zm-.57,4.57V444.1h14.87V421.78Zm7.55-1.38a.86.86,0,1,0-.86-.86A.86.86,0,0,0,739.61,420.4ZM737.78,447a.58.58,0,1,0,0,1.15h3.43a.58.58,0,0,0,0-1.15Z"/>
          </g>
        </g>
      </g>
    </g>
    <g id="Mobile-6" data-name="Mobile">
      <g id="iPhone-8-Copy-4-6" data-name="iPhone-8-Copy-4">
        <g id="Group-4-7" data-name="Group-4">
          <g id="Group-6" data-name="Group">
            <path id="Combined-Shape-6" data-name="Combined-Shape" class="cls-2" d="M732.63,466h13.73a2.29,2.29,0,0,1,2.29,2.28v29a2.29,2.29,0,0,1-2.29,2.29H732.63a2.28,2.28,0,0,1-2.29-2.29v-29h0a2.28,2.28,0,0,1,2.29-2.28Zm-.57,4.57v22.32h14.87V470.61Zm7.55-1.38a.86.86,0,1,0-.86-.86A.87.87,0,0,0,739.61,469.23Zm-1.83,26.56a.58.58,0,0,0-.58.57.57.57,0,0,0,.58.57h3.43a.56.56,0,0,0,.57-.57.57.57,0,0,0-.57-.57Z"/>
          </g>
        </g>
      </g>
    </g>
    <g id="Mobile-7" data-name="Mobile">
      <g id="iPhone-8-Copy-4-7" data-name="iPhone-8-Copy-4">
        <g id="Group-4-8" data-name="Group-4">
          <g id="Group-7" data-name="Group">
            <path id="Combined-Shape-7" data-name="Combined-Shape" class="cls-2" d="M670.35,465h13.73a2.28,2.28,0,0,1,2.29,2.29v29a2.28,2.28,0,0,1-2.29,2.28H670.35a2.29,2.29,0,0,1-2.29-2.28v-29h0a2.29,2.29,0,0,1,2.29-2.29Zm-.57,4.57v22.32h14.87V469.55Zm7.55-1.38a.86.86,0,1,0-.86-.86A.87.87,0,0,0,677.33,468.17Zm-1.83,26.56a.57.57,0,0,0-.57.57.56.56,0,0,0,.57.57h3.43a.56.56,0,0,0,.57-.57.57.57,0,0,0-.57-.57Z"/>
          </g>
        </g>
      </g>
    </g>
    <g id="Mobile-8" data-name="Mobile">
      <g id="iPhone-8-Copy-4-8" data-name="iPhone-8-Copy-4">
        <g id="Group-4-9" data-name="Group-4">
          <g id="Group-8" data-name="Group">
            <path id="Combined-Shape-8" data-name="Combined-Shape" class="cls-2" d="M670.92,417.21h13.73a2.28,2.28,0,0,1,2.29,2.29v29a2.28,2.28,0,0,1-2.29,2.28H670.92a2.29,2.29,0,0,1-2.29-2.28v-29h0a2.29,2.29,0,0,1,2.29-2.29Zm-.57,4.57V444.1h14.88V421.78Zm7.55-1.38a.86.86,0,1,0,0-1.72.86.86,0,0,0,0,1.72ZM676.07,447a.58.58,0,0,0,0,1.15h3.43a.58.58,0,1,0,0-1.15Z"/>
          </g>
        </g>
      </g>
    </g>
    <path class="cls-2" d="M648.26,347.53s-8-8.57-8.58-14.13c0,0-.38-4.67,4.29-5,0,0,2.43-.27,4.19,3.29,0,0,1.41-3.25,4.28-3.3s4.37,3.14,4.23,4.52S657.05,337,648.26,347.53Z"/>
    <text class="cls-3" transform="translate(638.73 323.41)"><tspan xml:space="preserve"> 8</tspan></text>
    <path class="cls-2" d="M769.27,513s8,8.58,8.54,14.15c0,0,.37,4.67-4.3,5,0,0-2.42.26-4.18-3.3,0,0-1.42,3.25-4.29,3.29s-4.36-3.14-4.22-4.53S760.45,523.56,769.27,513Z"/>
    <text class="cls-4" transform="translate(778.83 537.19) rotate(-179.88)"><tspan xml:space="preserve"> 8</tspan></text>
  </g>
  <g>
    <g id="Mobile-9" data-name="Mobile">
      <g id="iPhone-8-Copy-4-9" data-name="iPhone-8-Copy-4">
        <g id="Group-4-10" data-name="Group-4">
          <g id="Group-9" data-name="Group">
            <path id="Combined-Shape-9" data-name="Combined-Shape" class="cls-2" d="M512.46,415.94h13.73a2.29,2.29,0,0,1,2.29,2.29v29a2.29,2.29,0,0,1-2.29,2.29H512.46a2.3,2.3,0,0,1-2.29-2.29v-29h0a2.3,2.3,0,0,1,2.29-2.29Zm-.57,4.58v22.31h14.88V420.52Zm7.55-1.39a.86.86,0,1,0-.86-.85A.85.85,0,0,0,519.44,419.13Zm-1.83,26.56a.58.58,0,0,0,0,1.15H521a.58.58,0,1,0,0-1.15Z"/>
          </g>
        </g>
      </g>
    </g>
    <g id="Mobile-10" data-name="Mobile">
      <g id="iPhone-8-Copy-4-10" data-name="iPhone-8-Copy-4">
        <g id="Group-4-11" data-name="Group-4">
          <g id="Group-10" data-name="Group">
            <path id="Combined-Shape-10" data-name="Combined-Shape" class="cls-2" d="M541.13,342.21h13.74a2.29,2.29,0,0,1,2.28,2.29v29a2.28,2.28,0,0,1-2.28,2.29H541.13a2.29,2.29,0,0,1-2.29-2.29v-29h0a2.3,2.3,0,0,1,2.29-2.29Zm-.57,4.58v22.32h14.88V346.79Zm7.55-1.38a.86.86,0,1,0-.85-.86A.86.86,0,0,0,548.11,345.41ZM546.28,372a.57.57,0,0,0,0,1.14h3.44a.57.57,0,1,0,0-1.14Z"/>
          </g>
        </g>
      </g>
    </g>
    <g id="Mobile-11" data-name="Mobile">
      <g id="iPhone-8-Copy-4-11" data-name="iPhone-8-Copy-4">
        <g id="Group-4-12" data-name="Group-4">
          <g id="Group-11" data-name="Group">
            <path id="Combined-Shape-11" data-name="Combined-Shape" class="cls-2" d="M541.13,391h13.74a2.29,2.29,0,0,1,2.28,2.29v29a2.28,2.28,0,0,1-2.28,2.29H541.13a2.29,2.29,0,0,1-2.29-2.29v-29h0a2.3,2.3,0,0,1,2.29-2.29Zm-.57,4.58v22.32h14.88V395.62Zm7.55-1.39a.86.86,0,1,0-.85-.85A.85.85,0,0,0,548.11,394.23Zm-1.83,26.57a.57.57,0,0,0-.57.57.58.58,0,0,0,.57.57h3.44a.58.58,0,0,0,.57-.57.57.57,0,0,0-.57-.57Z"/>
          </g>
        </g>
      </g>
    </g>
    <g id="Mobile-12" data-name="Mobile">
      <g id="iPhone-8-Copy-4-12" data-name="iPhone-8-Copy-4">
        <g id="Group-4-13" data-name="Group-4">
          <g id="Group-12" data-name="Group">
            <path id="Combined-Shape-12" data-name="Combined-Shape" class="cls-2" d="M478.86,390h13.73a2.3,2.3,0,0,1,2.29,2.29v29a2.29,2.29,0,0,1-2.29,2.29H478.86a2.28,2.28,0,0,1-2.29-2.29v-29h0a2.29,2.29,0,0,1,2.29-2.29Zm-.58,4.58v22.32h14.88V394.56Zm7.56-1.38a.86.86,0,1,0-.86-.86A.86.86,0,0,0,485.84,393.18ZM484,419.74a.57.57,0,0,0,0,1.14h3.44a.57.57,0,0,0,0-1.14Z"/>
          </g>
        </g>
      </g>
    </g>
    <g id="Mobile-13" data-name="Mobile">
      <g id="iPhone-8-Copy-4-13" data-name="iPhone-8-Copy-4">
        <g id="Group-4-14" data-name="Group-4">
          <g id="Group-13" data-name="Group">
            <path id="Combined-Shape-13" data-name="Combined-Shape" class="cls-2" d="M479.43,342.21h13.73a2.3,2.3,0,0,1,2.29,2.29v29a2.29,2.29,0,0,1-2.29,2.29H479.43a2.28,2.28,0,0,1-2.29-2.29v-29h0a2.29,2.29,0,0,1,2.29-2.29Zm-.57,4.58v22.32h14.87V346.79Zm7.55-1.38a.86.86,0,1,0,0-1.72.86.86,0,0,0,0,1.72ZM484.58,372a.57.57,0,1,0,0,1.14H488a.57.57,0,0,0,0-1.14Z"/>
          </g>
        </g>
      </g>
    </g>
    <g id="Mobile-14" data-name="Mobile">
      <g id="iPhone-8-Copy-4-14" data-name="iPhone-8-Copy-4">
        <g id="Group-4-15" data-name="Group-4">
          <g id="Group-14" data-name="Group">
            <path id="Combined-Shape-14" data-name="Combined-Shape" class="cls-2" d="M541.43,439.87h13.73a2.3,2.3,0,0,1,2.29,2.29v29a2.3,2.3,0,0,1-2.29,2.29H541.43a2.29,2.29,0,0,1-2.29-2.29v-29h0a2.29,2.29,0,0,1,2.29-2.29Zm-.58,4.58v22.31h14.88V444.45Zm7.56-1.39a.86.86,0,1,0-.86-.86A.86.86,0,0,0,548.41,443.06Zm-1.83,26.56a.58.58,0,1,0,0,1.15H550a.58.58,0,0,0,0-1.15Z"/>
          </g>
        </g>
      </g>
    </g>
    <g id="Mobile-15" data-name="Mobile">
      <g id="iPhone-8-Copy-4-15" data-name="iPhone-8-Copy-4">
        <g id="Group-4-16" data-name="Group-4">
          <g id="Group-15" data-name="Group">
            <path id="Combined-Shape-15" data-name="Combined-Shape" class="cls-2" d="M541.43,488.7h13.73a2.29,2.29,0,0,1,2.29,2.29v29a2.3,2.3,0,0,1-2.29,2.29H541.43a2.29,2.29,0,0,1-2.29-2.29V491h0a2.28,2.28,0,0,1,2.29-2.29Zm-.58,4.58v22.31h14.88V493.28Zm7.56-1.39a.86.86,0,1,0-.86-.86A.86.86,0,0,0,548.41,491.89Zm-1.83,26.56a.58.58,0,1,0,0,1.15H550a.58.58,0,0,0,0-1.15Z"/>
          </g>
        </g>
      </g>
    </g>
    <g id="Mobile-16" data-name="Mobile">
      <g id="iPhone-8-Copy-4-16" data-name="iPhone-8-Copy-4">
        <g id="Group-4-17" data-name="Group-4">
          <g id="Group-16" data-name="Group">
            <path id="Combined-Shape-16" data-name="Combined-Shape" class="cls-2" d="M479.15,487.64h13.73a2.29,2.29,0,0,1,2.29,2.29v29a2.3,2.3,0,0,1-2.29,2.29H479.15a2.29,2.29,0,0,1-2.29-2.29v-29h0a2.28,2.28,0,0,1,2.29-2.29Zm-.57,4.58v22.31h14.87V492.22Zm7.55-1.39a.86.86,0,1,0-.86-.86A.86.86,0,0,0,486.13,490.83Zm-1.83,26.56a.58.58,0,0,0,0,1.15h3.43a.58.58,0,0,0,0-1.15Z"/>
          </g>
        </g>
      </g>
    </g>
    <g id="Mobile-17" data-name="Mobile">
      <g id="iPhone-8-Copy-4-17" data-name="iPhone-8-Copy-4">
        <g id="Group-4-18" data-name="Group-4">
          <g id="Group-17" data-name="Group">
            <path id="Combined-Shape-17" data-name="Combined-Shape" class="cls-2" d="M479.72,439.87h13.73a2.29,2.29,0,0,1,2.29,2.29v29a2.29,2.29,0,0,1-2.29,2.29H479.72a2.3,2.3,0,0,1-2.29-2.29v-29h0a2.3,2.3,0,0,1,2.29-2.29Zm-.57,4.58v22.31H494V444.45Zm7.55-1.39a.86.86,0,1,0-.86-.86A.85.85,0,0,0,486.7,443.06Zm-1.83,26.56a.58.58,0,0,0,0,1.15h3.43a.58.58,0,1,0,0-1.15Z"/>
          </g>
        </g>
      </g>
    </g>
    <path class="cls-2" d="M457,346.79s-8-8.56-8.58-14.13c0,0-.38-4.67,4.29-5,0,0,2.42-.26,4.19,3.3,0,0,1.41-3.26,4.28-3.3s4.37,3.13,4.23,4.52S465.77,336.21,457,346.79Z"/>
    <text class="cls-3" transform="translate(447.45 322.67)"><tspan xml:space="preserve"> 9</tspan></text>
    <path class="cls-2" d="M578,512.26s8,8.59,8.55,14.15c0,0,.37,4.67-4.3,5,0,0-2.43.25-4.19-3.31,0,0-1.41,3.25-4.28,3.29s-4.37-3.14-4.22-4.53S569.17,522.82,578,512.26Z"/>
    <text class="cls-4" transform="translate(587.54 536.46) rotate(-179.88)"><tspan xml:space="preserve"> 9</tspan></text>
  </g>
  <g>
    <g id="Mobile-18" data-name="Mobile">
      <g id="iPhone-8-Copy-4-18" data-name="iPhone-8-Copy-4">
        <g id="Group-4-19" data-name="Group-4">
          <g id="Group-18" data-name="Group">
            <path id="Combined-Shape-18" data-name="Combined-Shape" class="cls-2" d="M316.22,365H330a2.29,2.29,0,0,1,2.28,2.29v29a2.29,2.29,0,0,1-2.28,2.29H316.22a2.3,2.3,0,0,1-2.29-2.29v-29h0a2.3,2.3,0,0,1,2.29-2.29Zm-.57,4.58v22.31h14.88V369.55Zm7.55-1.39a.86.86,0,1,0-.85-.86A.85.85,0,0,0,323.2,368.16Zm-1.83,26.56a.58.58,0,0,0,0,1.15h3.44a.58.58,0,0,0,0-1.15Z"/>
          </g>
        </g>
      </g>
    </g>
    <g id="Mobile-19" data-name="Mobile">
      <g id="iPhone-8-Copy-4-19" data-name="iPhone-8-Copy-4">
        <g id="Group-4-20" data-name="Group-4">
          <g id="Group-19" data-name="Group">
            <path id="Combined-Shape-19" data-name="Combined-Shape" class="cls-2" d="M347.18,343h13.74a2.28,2.28,0,0,1,2.28,2.28v29a2.28,2.28,0,0,1-2.28,2.29H347.18a2.29,2.29,0,0,1-2.29-2.29v-29h0a2.29,2.29,0,0,1,2.29-2.28Zm-.57,4.57v22.32h14.88V347.61Zm7.55-1.38a.86.86,0,1,0-.85-.86A.86.86,0,0,0,354.16,346.23Zm-1.83,26.56a.58.58,0,0,0-.57.57.57.57,0,0,0,.57.57h3.44a.57.57,0,0,0,.57-.57.58.58,0,0,0-.57-.57Z"/>
          </g>
        </g>
      </g>
    </g>
    <g id="Mobile-20" data-name="Mobile">
      <g id="iPhone-8-Copy-4-20" data-name="iPhone-8-Copy-4">
        <g id="Group-4-21" data-name="Group-4">
          <g id="Group-20" data-name="Group">
            <path id="Combined-Shape-20" data-name="Combined-Shape" class="cls-2" d="M347.18,391.86h13.74a2.29,2.29,0,0,1,2.28,2.29v29a2.28,2.28,0,0,1-2.28,2.29H347.18a2.29,2.29,0,0,1-2.29-2.29v-29h0a2.3,2.3,0,0,1,2.29-2.29Zm-.57,4.58v22.32h14.88V396.44Zm7.55-1.38a.86.86,0,1,0-.85-.86A.86.86,0,0,0,354.16,395.06Zm-1.83,26.56a.57.57,0,0,0,0,1.14h3.44a.57.57,0,0,0,0-1.14Z"/>
          </g>
        </g>
      </g>
    </g>
    <g id="Mobile-21" data-name="Mobile">
      <g id="iPhone-8-Copy-4-21" data-name="iPhone-8-Copy-4">
        <g id="Group-4-22" data-name="Group-4">
          <g id="Group-21" data-name="Group">
            <path id="Combined-Shape-21" data-name="Combined-Shape" class="cls-2" d="M284.91,390.8h13.73a2.3,2.3,0,0,1,2.29,2.29v29a2.29,2.29,0,0,1-2.29,2.29H284.91a2.28,2.28,0,0,1-2.29-2.29v-29h0a2.29,2.29,0,0,1,2.29-2.29Zm-.58,4.58V417.7h14.88V395.38Zm7.56-1.38a.86.86,0,1,0-.86-.86A.86.86,0,0,0,291.89,394Zm-1.84,26.56a.57.57,0,1,0,0,1.14h3.44a.57.57,0,0,0,0-1.14Z"/>
          </g>
        </g>
      </g>
    </g>
    <g id="Mobile-22" data-name="Mobile">
      <g id="iPhone-8-Copy-4-22" data-name="iPhone-8-Copy-4">
        <g id="Group-4-23" data-name="Group-4">
          <g id="Group-22" data-name="Group">
            <path id="Combined-Shape-22" data-name="Combined-Shape" class="cls-2" d="M285.48,343h13.73a2.29,2.29,0,0,1,2.29,2.28v29a2.29,2.29,0,0,1-2.29,2.29H285.48a2.28,2.28,0,0,1-2.29-2.29v-29h0a2.28,2.28,0,0,1,2.29-2.28Zm-.57,4.57v22.32h14.87V347.61Zm7.55-1.38a.86.86,0,1,0-.86-.86A.87.87,0,0,0,292.46,346.23Zm-1.83,26.56a.58.58,0,0,0-.58.57.57.57,0,0,0,.58.57h3.43a.56.56,0,0,0,.57-.57.57.57,0,0,0-.57-.57Z"/>
          </g>
        </g>
      </g>
    </g>
    <g id="Mobile-23" data-name="Mobile">
      <g id="iPhone-8-Copy-4-23" data-name="iPhone-8-Copy-4">
        <g id="Group-4-24" data-name="Group-4">
          <g id="Group-23" data-name="Group">
            <path id="Combined-Shape-23" data-name="Combined-Shape" class="cls-2" d="M316.52,462.63h13.73a2.29,2.29,0,0,1,2.29,2.29v29a2.29,2.29,0,0,1-2.29,2.28H316.52a2.28,2.28,0,0,1-2.29-2.28v-29h0a2.28,2.28,0,0,1,2.29-2.29Zm-.58,4.57v22.32h14.88V467.2Zm7.56-1.38a.86.86,0,1,0-.86-.86A.87.87,0,0,0,323.5,465.82Zm-1.83,26.56a.58.58,0,0,0-.58.57.57.57,0,0,0,.58.57h3.43a.57.57,0,0,0,.57-.57.58.58,0,0,0-.57-.57Z"/>
          </g>
        </g>
      </g>
    </g>
    <g id="Mobile-24" data-name="Mobile">
      <g id="iPhone-8-Copy-4-24" data-name="iPhone-8-Copy-4">
        <g id="Group-4-25" data-name="Group-4">
          <g id="Group-24" data-name="Group">
            <path id="Combined-Shape-24" data-name="Combined-Shape" class="cls-2" d="M347.48,440.69h13.73A2.3,2.3,0,0,1,363.5,443v29a2.3,2.3,0,0,1-2.29,2.29H347.48a2.29,2.29,0,0,1-2.29-2.29V443h0a2.29,2.29,0,0,1,2.29-2.29Zm-.58,4.58v22.31h14.88V445.27Zm7.56-1.39a.86.86,0,1,0-.86-.85A.86.86,0,0,0,354.46,443.88Zm-1.83,26.56a.58.58,0,1,0,0,1.15h3.43a.58.58,0,0,0,0-1.15Z"/>
          </g>
        </g>
      </g>
    </g>
    <g id="Mobile-25" data-name="Mobile">
      <g id="iPhone-8-Copy-4-25" data-name="iPhone-8-Copy-4">
        <g id="Group-4-26" data-name="Group-4">
          <g id="Group-25" data-name="Group">
            <path id="Combined-Shape-25" data-name="Combined-Shape" class="cls-2" d="M347.48,489.52h13.73a2.29,2.29,0,0,1,2.29,2.29v29a2.3,2.3,0,0,1-2.29,2.29H347.48a2.29,2.29,0,0,1-2.29-2.29v-29h0a2.28,2.28,0,0,1,2.29-2.29Zm-.58,4.58v22.31h14.88V494.1Zm7.56-1.39a.86.86,0,1,0-.86-.86A.86.86,0,0,0,354.46,492.71Zm-1.83,26.56a.58.58,0,1,0,0,1.15h3.43a.58.58,0,0,0,0-1.15Z"/>
          </g>
        </g>
      </g>
    </g>
    <g id="Mobile-26" data-name="Mobile">
      <g id="iPhone-8-Copy-4-26" data-name="iPhone-8-Copy-4">
        <g id="Group-4-27" data-name="Group-4">
          <g id="Group-26" data-name="Group">
            <path id="Combined-Shape-26" data-name="Combined-Shape" class="cls-2" d="M285.2,488.46h13.73a2.3,2.3,0,0,1,2.29,2.29v29a2.3,2.3,0,0,1-2.29,2.29H285.2a2.29,2.29,0,0,1-2.29-2.29v-29h0a2.29,2.29,0,0,1,2.29-2.29Zm-.57,4.58v22.31H299.5V493Zm7.55-1.39a.86.86,0,1,0-.86-.86A.86.86,0,0,0,292.18,491.65Zm-1.83,26.56a.58.58,0,0,0,0,1.15h3.43a.58.58,0,0,0,0-1.15Z"/>
          </g>
        </g>
      </g>
    </g>
    <g id="Mobile-27" data-name="Mobile">
      <g id="iPhone-8-Copy-4-27" data-name="iPhone-8-Copy-4">
        <g id="Group-4-28" data-name="Group-4">
          <g id="Group-27" data-name="Group">
            <path id="Combined-Shape-27" data-name="Combined-Shape" class="cls-2" d="M285.77,440.69H299.5a2.29,2.29,0,0,1,2.29,2.29v29a2.29,2.29,0,0,1-2.29,2.29H285.77a2.3,2.3,0,0,1-2.29-2.29V443h0a2.3,2.3,0,0,1,2.29-2.29Zm-.57,4.58v22.31h14.88V445.27Zm7.55-1.39a.86.86,0,1,0-.86-.85A.85.85,0,0,0,292.75,443.88Zm-1.83,26.56a.58.58,0,0,0,0,1.15h3.43a.58.58,0,1,0,0-1.15Z"/>
          </g>
        </g>
      </g>
    </g>
    <path class="cls-2" d="M263,347.61s-8-8.56-8.58-14.13c0,0-.38-4.67,4.29-5,0,0,2.42-.26,4.19,3.3,0,0,1.41-3.26,4.28-3.3s4.37,3.13,4.23,4.52S271.82,337,263,347.61Z"/>
    <text class="cls-3" transform="translate(253.5 323.49)">10</text>
    <path class="cls-2" d="M384,513.09s8,8.58,8.55,14.14c0,0,.37,4.67-4.3,5,0,0-2.43.25-4.19-3.31,0,0-1.41,3.26-4.28,3.29s-4.37-3.14-4.22-4.53S375.22,523.65,384,513.09Z"/>
    <text class="cls-4" transform="translate(393.59 537.28) rotate(-179.88)">10</text>
  </g>
  <g>
    <text class="cls-5" transform="translate(61.88 40.51)"><tspan class="cls-2"> </tspan><tspan x="4.26" y="0">J</tspan></text>
    <text class="cls-6" transform="translate(206.22 254.29) rotate(-179.88)"><tspan class="cls-2"> </tspan><tspan x="4.26" y="0">J</tspan></text>
    <path d="M68.79,53.71a5,5,0,0,1-1.63-3.9,5.07,5.07,0,0,1,5-4.73,4.93,4.93,0,0,1,5,4.83,5.24,5.24,0,0,1-1.59,3.8,5,5,0,0,1,1.93-.19,4.84,4.84,0,0,1,3.2,8.17,4.86,4.86,0,0,1-3.31,1.53s-3.52.08-4.83-3a8.37,8.37,0,0,0,1.8,5,9.67,9.67,0,0,0,4.39,2.69l0,.23h-13v-.23a8.61,8.61,0,0,0,4.22-2.61s1.74-1.29,2-5a4.94,4.94,0,0,1-4.88,3A5.09,5.09,0,0,1,62.41,59a5,5,0,0,1,3.18-5.27A5.11,5.11,0,0,1,68.79,53.71Z"/>
    <path d="M199,241a5,5,0,0,1,1.64,3.91,5.08,5.08,0,0,1-5,4.73,4.93,4.93,0,0,1-5-4.84,5.24,5.24,0,0,1,1.59-3.8,5,5,0,0,1-1.93.19,4.84,4.84,0,0,1-3.2-8.17,4.86,4.86,0,0,1,3.31-1.53s3.52-.08,4.84,3a8.37,8.37,0,0,0-1.8-5,9.72,9.72,0,0,0-4.39-2.69l0-.23h13v.22a8.76,8.76,0,0,0-4.23,2.61s-1.74,1.29-2,5a4.94,4.94,0,0,1,4.88-3,5.09,5.09,0,0,1,4.51,4.18,5,5,0,0,1-3.18,5.26A5.05,5.05,0,0,1,199,241Z"/>
  </g>
  <g>
    <text class="cls-5" transform="translate(251.98 40.51)"><tspan class="cls-2"> </tspan><tspan x="4.26" y="0">A</tspan></text>
    <text class="cls-6" transform="translate(396.33 254.29) rotate(-179.88)"><tspan class="cls-2"> </tspan><tspan x="4.26" y="0">A</tspan></text>
    <path d="M258.9,53.71a5,5,0,0,1-1.64-3.9,5.07,5.07,0,0,1,5-4.73,4.92,4.92,0,0,1,5,4.83,5.24,5.24,0,0,1-1.59,3.8,5,5,0,0,1,1.93-.19,4.84,4.84,0,0,1,3.21,8.17,4.9,4.9,0,0,1-3.31,1.53s-3.53.08-4.84-3a8.37,8.37,0,0,0,1.8,5,9.73,9.73,0,0,0,4.4,2.69l-.05.23h-13v-.23a8.67,8.67,0,0,0,4.23-2.61s1.74-1.29,2-5a4.94,4.94,0,0,1-4.88,3A5.09,5.09,0,0,1,252.51,59a5,5,0,0,1,3.18-5.27A5.15,5.15,0,0,1,258.9,53.71Z"/>
    <path d="M306.8,136.23a24.78,24.78,0,0,1-8.16-19.51s1-22,24.74-23.63c0,0,22.85-.54,24.87,24.16a26.2,26.2,0,0,1-7.95,19,25.39,25.39,0,0,1,9.64-1s17-.42,22.05,18.76c0,0,3.61,12.94-6,22.05a24.35,24.35,0,0,1-16.54,7.63s-17.59.43-24.16-15.05c0,0,0,14.63,9,24.81s21.94,13.46,21.94,13.46l-.21,1.14H290.9v-1.14s12.93-3.08,21.1-13c0,0,8.69-6.47,9.85-25.12,0,0-6.14,15.9-24.38,14.84,0,0-19.4-1.59-22.57-20.88,0,0-2.65-19.3,15.9-26.29A25.43,25.43,0,0,1,306.8,136.23Z"/>
    <path d="M389.09,241a5,5,0,0,1,1.63,3.91,5.08,5.08,0,0,1-5,4.73,4.93,4.93,0,0,1-5-4.84,5.24,5.24,0,0,1,1.59-3.8,5,5,0,0,1-1.93.19,4.84,4.84,0,0,1-3.2-8.17,4.9,4.9,0,0,1,3.31-1.53s3.53-.08,4.84,3a8.37,8.37,0,0,0-1.8-5,9.67,9.67,0,0,0-4.39-2.69l0-.23h13v.22a8.76,8.76,0,0,0-4.23,2.61s-1.74,1.29-2,5a4.94,4.94,0,0,1,4.88-3,5.09,5.09,0,0,1,4.52,4.18,4.89,4.89,0,0,1-6.39,5.3Z"/>
    <g id="Mobile-28" data-name="Mobile">
      <g id="iPhone-8-Copy-4-28" data-name="iPhone-8-Copy-4">
        <g id="Group-28" data-name="Group">
          <path id="Combined-Shape-28" data-name="Combined-Shape" class="cls-7" d="M312,133.87h23.5a2.28,2.28,0,0,1,2.28,2.28V165a2.28,2.28,0,0,1-2.28,2.28H312a2.28,2.28,0,0,1-2.28-2.28V136.15h0a2.28,2.28,0,0,1,2.28-2.28Zm-.57,3.42v24.87H336V137.29ZM322.2,164a.57.57,0,0,0-.57.57.58.58,0,0,0,.57.57h4a.57.57,0,0,0,.57-.57.56.56,0,0,0-.57-.57Zm1.85-27.72a.72.72,0,1,0-.71-.71A.71.71,0,0,0,324.05,136.32Z"/>
        </g>
      </g>
    </g>
  </g>
  <g>
    <text class="cls-5" transform="translate(636.3 40.51)"><tspan class="cls-2"> </tspan><tspan x="4.26" y="0">3</tspan></text>
    <text class="cls-6" transform="translate(780.64 254.29) rotate(-179.88)"><tspan class="cls-2"> </tspan><tspan x="4.26" y="0">3</tspan></text>
    <path d="M643.21,53.71a4.94,4.94,0,0,1-1.63-3.9,5.07,5.07,0,0,1,4.95-4.73,4.93,4.93,0,0,1,5,4.83,5.24,5.24,0,0,1-1.59,3.8,5,5,0,0,1,1.93-.19,4.84,4.84,0,0,1,3.2,8.17,4.86,4.86,0,0,1-3.31,1.53s-3.52.08-4.83-3a8.37,8.37,0,0,0,1.8,5,9.67,9.67,0,0,0,4.39,2.69l0,.23H640v-.23a8.61,8.61,0,0,0,4.22-2.61s1.74-1.29,2-5a4.94,4.94,0,0,1-4.88,3A5.09,5.09,0,0,1,636.83,59,5,5,0,0,1,640,53.75,5.11,5.11,0,0,1,643.21,53.71Z"/>
    <path d="M773.4,241a5,5,0,0,1,1.64,3.91,5.08,5.08,0,0,1-5,4.73,4.94,4.94,0,0,1-5-4.84,5.27,5.27,0,0,1,1.6-3.8,5,5,0,0,1-1.93.19,4.84,4.84,0,0,1-3.2-8.17,4.86,4.86,0,0,1,3.31-1.53s3.52-.08,4.84,3a8.37,8.37,0,0,0-1.8-5,9.73,9.73,0,0,0-4.4-2.69l.05-.23h13v.22a8.76,8.76,0,0,0-4.23,2.61s-1.74,1.29-2,5a5,5,0,0,1,4.89-3,5.09,5.09,0,0,1,4.51,4.18,5,5,0,0,1-3.18,5.26A5.07,5.07,0,0,1,773.4,241Z"/>
    <g>
      <g id="Mobile-29" data-name="Mobile">
        <g id="iPhone-8-Copy-4-29" data-name="iPhone-8-Copy-4">
          <g id="Group-29" data-name="Group">
            <path id="Combined-Shape-29" data-name="Combined-Shape" d="M699.16,98.94h18.29a1.77,1.77,0,0,1,1.77,1.77v22.45a1.77,1.77,0,0,1-1.77,1.77H699.16a1.77,1.77,0,0,1-1.77-1.77V100.71h0a1.77,1.77,0,0,1,1.77-1.77Zm-.44,2.65V121h19.17V101.59Zm8.41,20.82a.43.43,0,0,0-.44.44.44.44,0,0,0,.44.44h3.14a.45.45,0,0,0,.45-.44.44.44,0,0,0-.45-.44Zm1.44-21.57a.56.56,0,1,0-.56-.55A.55.55,0,0,0,708.57,100.84Z"/>
          </g>
        </g>
      </g>
      <g id="Mobile-30" data-name="Mobile">
        <g id="iPhone-8-Copy-4-30" data-name="iPhone-8-Copy-4">
          <g id="Group-30" data-name="Group">
            <path id="Combined-Shape-30" data-name="Combined-Shape" d="M698.6,137.58h18.29a1.77,1.77,0,0,1,1.77,1.77V161.8a1.77,1.77,0,0,1-1.77,1.77H698.6a1.77,1.77,0,0,1-1.77-1.77V139.35h0a1.77,1.77,0,0,1,1.77-1.77Zm-.44,2.66v19.35h19.18V140.24Zm8.42,20.81a.45.45,0,0,0-.45.44.44.44,0,0,0,.45.44h3.14a.44.44,0,0,0,.44-.44.44.44,0,0,0-.44-.44ZM708,139.48a.55.55,0,1,0-.55-.55A.55.55,0,0,0,708,139.48Z"/>
          </g>
        </g>
      </g>
      <g id="Mobile-31" data-name="Mobile">
        <g id="iPhone-8-Copy-4-31" data-name="iPhone-8-Copy-4">
          <g id="Group-31" data-name="Group">
            <path id="Combined-Shape-31" data-name="Combined-Shape" d="M699.16,176.22h18.29a1.77,1.77,0,0,1,1.77,1.77v22.45a1.77,1.77,0,0,1-1.77,1.77H699.16a1.77,1.77,0,0,1-1.77-1.77V178h0a1.77,1.77,0,0,1,1.77-1.77Zm-.44,2.66v19.35h19.17V178.88Zm8.41,20.81a.45.45,0,0,0,0,.89h3.14a.45.45,0,1,0,0-.89Zm1.44-21.57a.55.55,0,0,0,.55-.55.56.56,0,1,0-.55.55Z"/>
          </g>
        </g>
      </g>
    </g>
  </g>
  <g>
    <text class="cls-5" transform="translate(446.33 42.71)"><tspan class="cls-2"> </tspan><tspan x="4.26" y="0">2</tspan></text>
    <text class="cls-6" transform="translate(590.67 256.49) rotate(-179.88)"><tspan class="cls-2"> </tspan><tspan x="4.26" y="0">2</tspan></text>
    <path d="M453.24,55.91A5,5,0,0,1,451.6,52a5.08,5.08,0,0,1,5-4.73,4.93,4.93,0,0,1,5,4.84,5.24,5.24,0,0,1-1.59,3.8,5,5,0,0,1,1.93-.19,4.65,4.65,0,0,1,4.42,3.75,4.71,4.71,0,0,1-1.21,4.42,4.86,4.86,0,0,1-3.31,1.52s-3.52.09-4.84-3a8.37,8.37,0,0,0,1.8,5,9.84,9.84,0,0,0,4.4,2.69l-.05.23h-13v-.23a8.67,8.67,0,0,0,4.23-2.61s1.74-1.29,2-5a4.93,4.93,0,0,1-4.88,3,5.1,5.1,0,0,1-4.52-4.18A5,5,0,0,1,450,56,5.15,5.15,0,0,1,453.24,55.91Z"/>
    <path d="M583.43,243.18a5,5,0,0,1,1.63,3.91,5.06,5.06,0,0,1-5,4.72,4.92,4.92,0,0,1-5-4.84,5.21,5.21,0,0,1,1.59-3.79,5.22,5.22,0,0,1-1.93.19,4.84,4.84,0,0,1-3.2-8.17,4.9,4.9,0,0,1,3.31-1.53s3.53-.08,4.84,3a8.37,8.37,0,0,0-1.8-5,9.74,9.74,0,0,0-4.39-2.7l0-.23h13V229a8.61,8.61,0,0,0-4.22,2.61s-1.75,1.29-2,5a4.92,4.92,0,0,1,4.88-3,5.09,5.09,0,0,1,4.52,4.18,5,5,0,0,1-3.19,5.26A5.11,5.11,0,0,1,583.43,243.18Z"/>
    <g>
      <g id="Mobile-32" data-name="Mobile">
        <g id="iPhone-8-Copy-4-32" data-name="iPhone-8-Copy-4">
          <g id="Group-32" data-name="Group">
            <path id="Combined-Shape-32" data-name="Combined-Shape" d="M531.14,119.24h18.29A1.77,1.77,0,0,1,551.2,121v22.45a1.77,1.77,0,0,1-1.77,1.77H531.14a1.77,1.77,0,0,1-1.77-1.77V121h0a1.77,1.77,0,0,1,1.77-1.77Zm-.44,2.66v19.35h19.17V121.9Zm8.41,20.81a.44.44,0,0,0-.44.44.44.44,0,0,0,.44.44h3.14a.44.44,0,0,0,.45-.44.45.45,0,0,0-.45-.44Zm1.44-21.57a.55.55,0,1,0,0-1.1.55.55,0,0,0,0,1.1Z"/>
          </g>
        </g>
      </g>
      <g id="Mobile-33" data-name="Mobile">
        <g id="iPhone-8-Copy-4-33" data-name="iPhone-8-Copy-4">
          <g id="Group-33" data-name="Group">
            <path id="Combined-Shape-33" data-name="Combined-Shape" d="M486.67,160.31H505a1.77,1.77,0,0,1,1.77,1.77v22.45A1.77,1.77,0,0,1,505,186.3H486.67a1.77,1.77,0,0,1-1.77-1.77V162.08h0a1.77,1.77,0,0,1,1.77-1.77Zm-.44,2.66v19.35H505.4V163Zm8.41,20.81a.45.45,0,0,0,0,.89h3.15a.45.45,0,0,0,0-.89Zm1.44-21.57a.55.55,0,0,0,.56-.55.56.56,0,0,0-1.11,0A.55.55,0,0,0,496.08,162.21Z"/>
          </g>
        </g>
      </g>
    </g>
  </g>
  <g>
    <text class="cls-5" transform="translate(61.01 325.44)"><tspan class="cls-2"> </tspan><tspan x="4.26" y="0">4</tspan></text>
    <text class="cls-6" transform="translate(205.36 539.23) rotate(-179.88)"><tspan class="cls-2"> </tspan><tspan x="4.26" y="0">4</tspan></text>
    <path d="M67.93,338.64a4.94,4.94,0,0,1-1.64-3.9A5.07,5.07,0,0,1,71.24,330a4.93,4.93,0,0,1,5,4.84,5.21,5.21,0,0,1-1.59,3.79,5.26,5.26,0,0,1,1.93-.19,4.84,4.84,0,0,1,3.21,8.17,4.9,4.9,0,0,1-3.31,1.53s-3.53.09-4.84-3a8.33,8.33,0,0,0,1.8,5,9.79,9.79,0,0,0,4.39,2.7l0,.23h-13v-.23A8.76,8.76,0,0,0,69,350.19s1.74-1.3,2-5a4.94,4.94,0,0,1-4.88,3A5.09,5.09,0,0,1,61.54,344a5,5,0,0,1,3.18-5.26A5.11,5.11,0,0,1,67.93,338.64Z"/>
    <path d="M198.12,525.92a5,5,0,0,1,1.63,3.9,5.07,5.07,0,0,1-5,4.73,4.92,4.92,0,0,1-5-4.84,5.24,5.24,0,0,1,1.59-3.8,5,5,0,0,1-1.93.19,4.64,4.64,0,0,1-4.41-3.76,4.69,4.69,0,0,1,1.21-4.41,4.86,4.86,0,0,1,3.31-1.52s3.53-.09,4.84,3a8.33,8.33,0,0,0-1.8-5,9.74,9.74,0,0,0-4.39-2.7l0-.23h13v.23a8.69,8.69,0,0,0-4.23,2.6s-1.74,1.3-2,5a4.94,4.94,0,0,1,4.88-3,5.11,5.11,0,0,1,4.52,4.19,5,5,0,0,1-3.19,5.26A5.11,5.11,0,0,1,198.12,525.92Z"/>
    <g id="Mobile-34" data-name="Mobile">
      <g id="iPhone-8-Copy-4-34" data-name="iPhone-8-Copy-4">
        <g id="Group-34" data-name="Group">
          <path id="Combined-Shape-34" data-name="Combined-Shape" d="M123.59,383.52h18.29a1.77,1.77,0,0,1,1.77,1.77v22.45a1.78,1.78,0,0,1-1.77,1.78H123.59a1.78,1.78,0,0,1-1.77-1.78V385.29h0a1.78,1.78,0,0,1,1.77-1.77Zm-.44,2.66v19.35h19.18V386.18ZM131.57,407a.45.45,0,1,0,0,.89h3.14a.45.45,0,0,0,0-.89ZM133,385.43a.56.56,0,1,0-.55-.56A.56.56,0,0,0,133,385.43Z"/>
        </g>
      </g>
    </g>
    <g id="Mobile-35" data-name="Mobile">
      <g id="iPhone-8-Copy-4-35" data-name="iPhone-8-Copy-4">
        <g id="Group-35" data-name="Group">
          <path id="Combined-Shape-35" data-name="Combined-Shape" d="M123.59,461.5h18.29a1.77,1.77,0,0,1,1.77,1.77v22.45a1.77,1.77,0,0,1-1.77,1.77H123.59a1.77,1.77,0,0,1-1.77-1.77V463.27h0a1.77,1.77,0,0,1,1.77-1.77Zm-.44,2.66v19.35h19.18V464.16ZM131.57,485a.45.45,0,1,0,0,.89h3.14a.45.45,0,0,0,0-.89ZM133,463.41a.56.56,0,1,0-.55-.56A.56.56,0,0,0,133,463.41Z"/>
        </g>
      </g>
    </g>
    <g id="Mobile-36" data-name="Mobile">
      <g id="iPhone-8-Copy-4-36" data-name="iPhone-8-Copy-4">
        <g id="Group-36" data-name="Group">
          <path id="Combined-Shape-36" data-name="Combined-Shape" d="M90.68,422.51H109a1.77,1.77,0,0,1,1.77,1.77v22.45a1.78,1.78,0,0,1-1.77,1.78H90.68a1.78,1.78,0,0,1-1.77-1.78V424.28h0a1.78,1.78,0,0,1,1.77-1.77Zm-.44,2.66v19.35h19.18V425.17ZM98.66,446a.45.45,0,1,0,0,.89h3.14a.45.45,0,0,0,0-.89Zm1.43-21.56a.56.56,0,1,0-.55-.56A.56.56,0,0,0,100.09,424.42Z"/>
        </g>
      </g>
    </g>
    <g id="iPhone-8-Copy-4-37" data-name="iPhone-8-Copy-4">
      <g id="Group-37" data-name="Group">
        <path id="Combined-Shape-37" data-name="Combined-Shape" d="M156.5,422.51h18.29a1.77,1.77,0,0,1,1.77,1.77v22.45a1.78,1.78,0,0,1-1.77,1.78H156.5a1.78,1.78,0,0,1-1.77-1.78V424.28h0a1.78,1.78,0,0,1,1.77-1.77Zm-.44,2.66v19.35h19.18V425.17ZM164.48,446a.45.45,0,1,0,0,.89h3.14a.45.45,0,0,0,0-.89Zm1.43-21.56a.56.56,0,1,0-.55-.56A.56.56,0,0,0,165.91,424.42Z"/>
      </g>
    </g>
  </g>
</svg>
