<svg id="Layer_1" data-name="Layer 1" xmlns="http://www.w3.org/2000/svg" width="841.89" height="595.28" viewBox="0 0 841.89 595.28">
  <defs>
    <style>
      .cls-1 {
        fill: #fff;
        stroke: #000;
      }

      .cls-2 {
        font-size: 17.64px;
      }

      .cls-2, .cls-4 {
        font-family: Georgia, Georgia;
      }

      .cls-3 {
        fill: red;
      }

      .cls-4 {
        font-size: 17.64px;
      }
    </style>
  </defs>
  <title>yndlingskort</title>
  <rect class="cls-1" x="45.28" y="26.84" width="184.25" height="266.46" rx="10.01" ry="10.01"/>
  <rect class="cls-1" x="234.31" y="27.76" width="184.25" height="266.46" rx="10.01" ry="10.01"/>
  <rect class="cls-1" x="423.33" y="27.76" width="184.25" height="266.46" rx="10.01" ry="10.01"/>
  <rect class="cls-1" x="612.36" y="27.76" width="184.25" height="266.46" rx="10.01" ry="10.01"/>
  <rect class="cls-1" x="45.28" y="301.06" width="184.25" height="266.46" rx="10.01" ry="10.01"/>
  <rect class="cls-1" x="234.31" y="301.98" width="184.25" height="266.46" rx="10.01" ry="10.01"/>
  <rect class="cls-1" x="423.33" y="301.98" width="184.25" height="266.46" rx="10.01" ry="10.01"/>
  <rect class="cls-1" x="612.36" y="301.98" width="184.25" height="266.46" rx="10.01" ry="10.01"/>
  <g>
    <text class="cls-2" transform="translate(630.27 330.54)"><tspan class="cls-3"> </tspan><tspan x="4.26" y="0">Q</tspan></text>
    <text class="cls-4" transform="translate(774.61 544.32) rotate(-179.88)"><tspan class="cls-3"> </tspan><tspan x="4.26" y="0">Q</tspan></text>
    <path d="M637.18,343.74a5,5,0,0,1-1.63-3.91,5.07,5.07,0,0,1,5-4.73,4.94,4.94,0,0,1,5,4.84,5.24,5.24,0,0,1-1.59,3.8,5,5,0,0,1,1.93-.19,4.63,4.63,0,0,1,4.41,3.75,4.68,4.68,0,0,1-1.21,4.42,4.86,4.86,0,0,1-3.31,1.53s-3.52.08-4.83-3a8.37,8.37,0,0,0,1.8,5,9.78,9.78,0,0,0,4.39,2.69l0,.23H634v-.23a8.61,8.61,0,0,0,4.22-2.61s1.74-1.29,2-5a4.93,4.93,0,0,1-4.88,3A5.08,5.08,0,0,1,630.8,349a5,5,0,0,1,3.18-5.26A5.11,5.11,0,0,1,637.18,343.74Z"/>
    <path d="M767.37,531a5,5,0,0,1,1.64,3.91,5.08,5.08,0,0,1-5,4.73,4.94,4.94,0,0,1-5-4.84,5.27,5.27,0,0,1,1.6-3.8,5,5,0,0,1-1.93.19,4.84,4.84,0,0,1-3.2-8.17,4.86,4.86,0,0,1,3.31-1.53s3.52-.08,4.84,3a8.37,8.37,0,0,0-1.8-5,9.79,9.79,0,0,0-4.39-2.7l0-.23h13v.23a8.67,8.67,0,0,0-4.23,2.61s-1.74,1.29-2,5a4.93,4.93,0,0,1,4.88-3,5.09,5.09,0,0,1,4.51,4.18,5,5,0,0,1-3.18,5.26A5.07,5.07,0,0,1,767.37,531Z"/>
  </g>
  <g>
    <text class="cls-2" transform="translate(443.32 328.34)"><tspan class="cls-3"> </tspan><tspan x="4.26" y="0">K</tspan></text>
    <text class="cls-4" transform="translate(587.66 542.13) rotate(-179.88)"><tspan class="cls-3"> </tspan><tspan x="4.26" y="0">K</tspan></text>
    <path d="M450.24,341.54a5,5,0,0,1-1.64-3.9,5.08,5.08,0,0,1,5-4.73,4.92,4.92,0,0,1,5,4.83,5.24,5.24,0,0,1-1.59,3.8,5,5,0,0,1,1.93-.19,4.84,4.84,0,0,1,3.21,8.17,4.9,4.9,0,0,1-3.31,1.53s-3.52.08-4.84-3a8.35,8.35,0,0,0,1.8,5,9.8,9.8,0,0,0,4.4,2.7l-.05.22h-13v-.22a8.76,8.76,0,0,0,4.23-2.61s1.74-1.3,2-5a4.94,4.94,0,0,1-4.88,3,5.1,5.1,0,0,1-4.52-4.18,5,5,0,0,1,3.18-5.26A5.11,5.11,0,0,1,450.24,341.54Z"/>
    <path d="M580.43,528.82a4.94,4.94,0,0,1,1.63,3.9,5.08,5.08,0,0,1-5,4.73,4.93,4.93,0,0,1-5-4.84,5.24,5.24,0,0,1,1.59-3.8,5,5,0,0,1-1.93.19,4.84,4.84,0,0,1-3.2-8.17,4.9,4.9,0,0,1,3.31-1.53s3.53-.08,4.84,3a8.37,8.37,0,0,0-1.8-5,9.78,9.78,0,0,0-4.39-2.69l0-.23h13v.22a8.7,8.7,0,0,0-4.22,2.61s-1.75,1.3-2,5a4.94,4.94,0,0,1,4.88-3,5.1,5.1,0,0,1,4.52,4.19,5,5,0,0,1-3.19,5.26A5.11,5.11,0,0,1,580.43,528.82Z"/>
  </g>
  <g>
    <text class="cls-2" transform="translate(254.3 54.12)"><tspan class="cls-3"> </tspan><tspan x="4.26" y="0">9</tspan></text>
    <text class="cls-4" transform="translate(398.64 267.9) rotate(-179.88)"><tspan class="cls-3"> </tspan><tspan x="4.26" y="0">9</tspan></text>
    <path d="M261.21,67.32a5,5,0,0,1-1.63-3.91,5.06,5.06,0,0,1,4.95-4.73,5,5,0,0,1,5,4.84,5.24,5.24,0,0,1-1.59,3.8,5,5,0,0,1,1.93-.19,4.64,4.64,0,0,1,4.41,3.75,4.71,4.71,0,0,1-1.21,4.42,4.83,4.83,0,0,1-3.31,1.52s-3.52.09-4.84-3a8.34,8.34,0,0,0,1.81,5,9.78,9.78,0,0,0,4.39,2.69l0,.23H258v-.23a8.61,8.61,0,0,0,4.22-2.61s1.74-1.29,2-5a4.93,4.93,0,0,1-4.88,3,5.09,5.09,0,0,1-4.52-4.18A5,5,0,0,1,258,67.36,5.11,5.11,0,0,1,261.21,67.32Z"/>
    <path d="M391.4,254.59A5,5,0,0,1,393,258.5a5.07,5.07,0,0,1-4.95,4.73,4.94,4.94,0,0,1-5-4.85,5.21,5.21,0,0,1,1.59-3.79,5.22,5.22,0,0,1-1.93.19,4.84,4.84,0,0,1-3.2-8.17,4.9,4.9,0,0,1,3.32-1.53s3.52-.08,4.83,3a8.37,8.37,0,0,0-1.8-5,9.74,9.74,0,0,0-4.39-2.7l0-.23h13v.23a8.61,8.61,0,0,0-4.22,2.61s-1.74,1.29-2,5a4.93,4.93,0,0,1,4.88-3,5.09,5.09,0,0,1,4.52,4.18,5,5,0,0,1-3.19,5.26A5.11,5.11,0,0,1,391.4,254.59Z"/>
    <g id="Mobile">
      <g id="iPhone-8-Copy-4">
        <g id="Group">
          <path id="Combined-Shape" d="M283.69,93.22H302A1.77,1.77,0,0,1,303.75,95v22.46a1.77,1.77,0,0,1-1.77,1.77H283.69a1.77,1.77,0,0,1-1.77-1.77V95h0a1.77,1.77,0,0,1,1.77-1.77Zm-.44,2.66v19.35h19.17V95.88Zm8.41,20.81a.45.45,0,0,0,0,.89h3.15a.45.45,0,0,0,0-.89Zm1.44-21.56a.56.56,0,1,0-.55-.56A.56.56,0,0,0,293.1,95.13Z"/>
        </g>
      </g>
    </g>
    <g id="Mobile-2" data-name="Mobile">
      <g id="iPhone-8-Copy-4-2" data-name="iPhone-8-Copy-4">
        <g id="Group-2" data-name="Group">
          <path id="Combined-Shape-2" data-name="Combined-Shape" d="M349.51,93.22H367.8A1.77,1.77,0,0,1,369.57,95v22.46a1.77,1.77,0,0,1-1.77,1.77H349.51a1.77,1.77,0,0,1-1.77-1.77V95h0a1.77,1.77,0,0,1,1.77-1.77Zm-.44,2.66v19.35h19.17V95.88Zm8.41,20.81a.45.45,0,0,0,0,.89h3.15a.45.45,0,0,0,0-.89Zm1.44-21.56a.56.56,0,1,0-.55-.56A.55.55,0,0,0,358.92,95.13Z"/>
        </g>
      </g>
    </g>
    <g id="Mobile-3" data-name="Mobile">
      <g id="iPhone-8-Copy-4-3" data-name="iPhone-8-Copy-4">
        <g id="Group-3" data-name="Group">
          <path id="Combined-Shape-3" data-name="Combined-Shape" d="M316.59,151.19h18.29a1.77,1.77,0,0,1,1.77,1.77v22.45a1.77,1.77,0,0,1-1.77,1.77H316.59a1.77,1.77,0,0,1-1.77-1.77V153h0a1.77,1.77,0,0,1,1.77-1.77Zm-.44,2.65v19.35h19.17V153.84Zm8.41,20.81a.45.45,0,0,0,0,.89h3.14a.45.45,0,1,0,0-.89ZM326,153.09a.56.56,0,1,0-.55-.55A.55.55,0,0,0,326,153.09Z"/>
        </g>
      </g>
    </g>
    <g id="Mobile-4" data-name="Mobile">
      <g id="iPhone-8-Copy-4-4" data-name="iPhone-8-Copy-4">
        <g id="Group-4" data-name="Group">
          <path id="Combined-Shape-4" data-name="Combined-Shape" d="M284.25,131.86h18.28a1.78,1.78,0,0,1,1.77,1.78v22.45a1.77,1.77,0,0,1-1.77,1.77H284.25a1.78,1.78,0,0,1-1.78-1.77V133.64h0a1.78,1.78,0,0,1,1.78-1.78Zm-.45,2.66v19.35H303V134.52Zm8.42,20.81a.45.45,0,1,0,0,.89h3.14a.45.45,0,0,0,0-.89Zm1.43-21.56a.56.56,0,1,0-.55-.55A.56.56,0,0,0,293.65,133.77Z"/>
        </g>
      </g>
    </g>
    <g id="iPhone-8-Copy-4-5" data-name="iPhone-8-Copy-4">
      <g id="Group-5" data-name="Group">
        <path id="Combined-Shape-5" data-name="Combined-Shape" d="M350.06,131.86h18.29a1.78,1.78,0,0,1,1.77,1.78v22.45a1.77,1.77,0,0,1-1.77,1.77H350.06a1.77,1.77,0,0,1-1.77-1.77V133.64h0a1.78,1.78,0,0,1,1.77-1.78Zm-.44,2.66v19.35H368.8V134.52ZM358,155.33a.45.45,0,1,0,0,.89h3.14a.45.45,0,0,0,0-.89Zm1.43-21.56a.56.56,0,1,0-.55-.55A.56.56,0,0,0,359.47,133.77Z"/>
      </g>
    </g>
    <g id="Mobile-5" data-name="Mobile">
      <g id="iPhone-8-Copy-4-6" data-name="iPhone-8-Copy-4">
        <g id="Group-6" data-name="Group">
          <path id="Combined-Shape-6" data-name="Combined-Shape" d="M283.69,170.51H302a1.77,1.77,0,0,1,1.77,1.77v22.45A1.77,1.77,0,0,1,302,196.5H283.69a1.77,1.77,0,0,1-1.77-1.77V172.28h0a1.77,1.77,0,0,1,1.77-1.77Zm-.44,2.65v19.35h19.17V173.16ZM291.66,194a.44.44,0,0,0-.44.44.44.44,0,0,0,.44.44h3.15a.44.44,0,0,0,.44-.44.44.44,0,0,0-.44-.44Zm1.44-21.57a.56.56,0,0,0,0-1.11.56.56,0,0,0,0,1.11Z"/>
        </g>
      </g>
    </g>
    <g id="Mobile-6" data-name="Mobile">
      <g id="iPhone-8-Copy-4-7" data-name="iPhone-8-Copy-4">
        <g id="Group-7" data-name="Group">
          <path id="Combined-Shape-7" data-name="Combined-Shape" d="M349.51,170.51H367.8a1.77,1.77,0,0,1,1.77,1.77v22.45a1.77,1.77,0,0,1-1.77,1.77H349.51a1.77,1.77,0,0,1-1.77-1.77V172.28h0a1.77,1.77,0,0,1,1.77-1.77Zm-.44,2.65v19.35h19.17V173.16ZM357.48,194a.44.44,0,0,0-.44.44.44.44,0,0,0,.44.44h3.15a.44.44,0,0,0,.44-.44.44.44,0,0,0-.44-.44Zm1.44-21.57a.56.56,0,1,0-.55-.55A.55.55,0,0,0,358.92,172.41Z"/>
        </g>
      </g>
    </g>
    <g id="Mobile-7" data-name="Mobile">
      <g id="iPhone-8-Copy-4-8" data-name="iPhone-8-Copy-4">
        <g id="Group-8" data-name="Group">
          <path id="Combined-Shape-8" data-name="Combined-Shape" d="M284.25,209.15h18.28a1.77,1.77,0,0,1,1.77,1.77v22.45a1.77,1.77,0,0,1-1.77,1.77H284.25a1.78,1.78,0,0,1-1.78-1.77V210.92h0a1.78,1.78,0,0,1,1.78-1.77Zm-.45,2.65v19.36H303V211.8Zm8.42,20.82a.44.44,0,1,0,0,.88h3.14a.44.44,0,1,0,0-.88Zm1.43-21.57a.56.56,0,1,0-.55-.55A.56.56,0,0,0,293.65,211.05Z"/>
        </g>
      </g>
    </g>
    <g id="iPhone-8-Copy-4-9" data-name="iPhone-8-Copy-4">
      <g id="Group-9" data-name="Group">
        <path id="Combined-Shape-9" data-name="Combined-Shape" d="M350.06,209.15h18.29a1.77,1.77,0,0,1,1.77,1.77v22.45a1.77,1.77,0,0,1-1.77,1.77H350.06a1.77,1.77,0,0,1-1.77-1.77V210.92h0a1.77,1.77,0,0,1,1.77-1.77Zm-.44,2.65v19.36H368.8V211.8ZM358,232.62a.44.44,0,1,0,0,.88h3.14a.44.44,0,0,0,0-.88Zm1.43-21.57a.56.56,0,1,0-.55-.55A.56.56,0,0,0,359.47,211.05Z"/>
      </g>
    </g>
  </g>
  <g>
    <text class="cls-2" transform="translate(443.32 56.64)"><tspan class="cls-3"> </tspan><tspan x="4.26" y="0">8</tspan></text>
    <text class="cls-4" transform="translate(587.58 270.38) rotate(-179.88)"><tspan class="cls-3"> </tspan><tspan x="4.26" y="0">8</tspan></text>
    <path d="M450.24,69.84a5,5,0,0,1-1.64-3.91,5.08,5.08,0,0,1,5-4.73,4.93,4.93,0,0,1,5,4.84,5.24,5.24,0,0,1-1.59,3.8,5,5,0,0,1,1.93-.19,4.65,4.65,0,0,1,4.42,3.75,4.71,4.71,0,0,1-1.21,4.42,4.9,4.9,0,0,1-3.31,1.53s-3.52.08-4.84-3a8.37,8.37,0,0,0,1.8,5,9.84,9.84,0,0,0,4.4,2.69l-.05.23h-13V84a8.67,8.67,0,0,0,4.23-2.61s1.74-1.29,2-5a4.93,4.93,0,0,1-4.88,3,5.09,5.09,0,0,1-4.52-4.18A5,5,0,0,1,447,69.88,5.15,5.15,0,0,1,450.24,69.84Z"/>
    <path d="M580.43,257.11a5,5,0,0,1,1.63,3.91,5.08,5.08,0,0,1-5,4.73,4.94,4.94,0,0,1-5-4.85,5.22,5.22,0,0,1,1.59-3.79,5,5,0,0,1-1.93.19,4.84,4.84,0,0,1-3.2-8.17,4.9,4.9,0,0,1,3.31-1.53s3.53-.08,4.84,3a8.37,8.37,0,0,0-1.8-5,9.74,9.74,0,0,0-4.39-2.7l0-.23h13V243a8.61,8.61,0,0,0-4.22,2.61s-1.75,1.29-2,5a4.93,4.93,0,0,1,4.88-3,5.09,5.09,0,0,1,4.52,4.18,5,5,0,0,1-3.19,5.26A5.11,5.11,0,0,1,580.43,257.11Z"/>
    <g id="Mobile-8" data-name="Mobile">
      <g id="iPhone-8-Copy-4-10" data-name="iPhone-8-Copy-4">
        <g id="Group-10" data-name="Group">
          <path id="Combined-Shape-10" data-name="Combined-Shape" d="M472.66,95.08H491a1.77,1.77,0,0,1,1.77,1.77V119.3a1.77,1.77,0,0,1-1.77,1.77H472.66a1.77,1.77,0,0,1-1.77-1.77V96.85h0a1.77,1.77,0,0,1,1.77-1.77Zm-.44,2.66v19.35h19.17V97.74Zm8.41,20.81a.44.44,0,0,0-.44.44.44.44,0,0,0,.44.44h3.15a.44.44,0,0,0,.44-.44.44.44,0,0,0-.44-.44ZM482.07,97a.55.55,0,1,0-.55-.55A.55.55,0,0,0,482.07,97Z"/>
        </g>
      </g>
    </g>
    <g id="Mobile-9" data-name="Mobile">
      <g id="iPhone-8-Copy-4-11" data-name="iPhone-8-Copy-4">
        <g id="Group-11" data-name="Group">
          <path id="Combined-Shape-11" data-name="Combined-Shape" d="M538.48,95.08h18.29a1.77,1.77,0,0,1,1.77,1.77V119.3a1.77,1.77,0,0,1-1.77,1.77H538.48a1.77,1.77,0,0,1-1.77-1.77V96.85h0a1.77,1.77,0,0,1,1.77-1.77ZM538,97.74v19.35h19.17V97.74Zm8.41,20.81a.44.44,0,0,0-.44.44.44.44,0,0,0,.44.44h3.15A.44.44,0,0,0,550,119a.44.44,0,0,0-.44-.44ZM547.89,97a.55.55,0,1,0-.55-.55A.55.55,0,0,0,547.89,97Z"/>
        </g>
      </g>
    </g>
    <g id="Mobile-10" data-name="Mobile">
      <g id="iPhone-8-Copy-4-12" data-name="iPhone-8-Copy-4">
        <g id="Group-12" data-name="Group">
          <path id="Combined-Shape-12" data-name="Combined-Shape" d="M473.22,133.72H491.5a1.78,1.78,0,0,1,1.78,1.77v22.45a1.78,1.78,0,0,1-1.78,1.77H473.22a1.77,1.77,0,0,1-1.77-1.77V135.49h0a1.77,1.77,0,0,1,1.77-1.77Zm-.45,2.66v19.35H492V136.38Zm8.42,20.81a.45.45,0,1,0,0,.89h3.14a.45.45,0,0,0,0-.89Zm1.44-21.56a.56.56,0,1,0-.56-.56A.56.56,0,0,0,482.63,135.63Z"/>
        </g>
      </g>
    </g>
    <g id="iPhone-8-Copy-4-13" data-name="iPhone-8-Copy-4">
      <g id="Group-13" data-name="Group">
        <path id="Combined-Shape-13" data-name="Combined-Shape" d="M539,133.72h18.28a1.78,1.78,0,0,1,1.78,1.77v22.45a1.78,1.78,0,0,1-1.78,1.77H539a1.77,1.77,0,0,1-1.77-1.77V135.49h0a1.77,1.77,0,0,1,1.77-1.77Zm-.45,2.66v19.35h19.18V136.38ZM547,157.19a.45.45,0,1,0,0,.89h3.14a.45.45,0,0,0,0-.89Zm1.44-21.56a.56.56,0,1,0-.56-.56A.56.56,0,0,0,548.45,135.63Z"/>
      </g>
    </g>
    <g id="Mobile-11" data-name="Mobile">
      <g id="iPhone-8-Copy-4-14" data-name="iPhone-8-Copy-4">
        <g id="Group-14" data-name="Group">
          <path id="Combined-Shape-14" data-name="Combined-Shape" d="M472.66,172.36H491a1.77,1.77,0,0,1,1.77,1.77v22.45a1.78,1.78,0,0,1-1.77,1.78H472.66a1.78,1.78,0,0,1-1.77-1.78V174.13h0a1.77,1.77,0,0,1,1.77-1.77Zm-.44,2.66v19.35h19.17V175Zm8.41,20.81a.45.45,0,0,0,0,.89h3.15a.45.45,0,0,0,0-.89Zm1.44-21.56a.56.56,0,1,0-.55-.56A.56.56,0,0,0,482.07,174.27Z"/>
        </g>
      </g>
    </g>
    <g id="Mobile-12" data-name="Mobile">
      <g id="iPhone-8-Copy-4-15" data-name="iPhone-8-Copy-4">
        <g id="Group-15" data-name="Group">
          <path id="Combined-Shape-15" data-name="Combined-Shape" d="M538.48,172.36h18.29a1.77,1.77,0,0,1,1.77,1.77v22.45a1.78,1.78,0,0,1-1.77,1.78H538.48a1.78,1.78,0,0,1-1.77-1.78V174.13h0a1.77,1.77,0,0,1,1.77-1.77ZM538,175v19.35h19.17V175Zm8.41,20.81a.45.45,0,0,0,0,.89h3.15a.45.45,0,0,0,0-.89Zm1.44-21.56a.56.56,0,1,0-.55-.56A.56.56,0,0,0,547.89,174.27Z"/>
        </g>
      </g>
    </g>
    <g id="Mobile-13" data-name="Mobile">
      <g id="iPhone-8-Copy-4-16" data-name="iPhone-8-Copy-4">
        <g id="Group-16" data-name="Group">
          <path id="Combined-Shape-16" data-name="Combined-Shape" d="M473.22,211H491.5a1.78,1.78,0,0,1,1.78,1.78v22.45A1.78,1.78,0,0,1,491.5,237H473.22a1.77,1.77,0,0,1-1.77-1.77V212.78h0a1.78,1.78,0,0,1,1.77-1.78Zm-.45,2.66V233H492V213.66Zm8.42,20.81a.45.45,0,1,0,0,.89h3.14a.45.45,0,0,0,0-.89Zm1.44-21.56a.56.56,0,1,0-.56-.56A.56.56,0,0,0,482.63,212.91Z"/>
        </g>
      </g>
    </g>
    <g id="iPhone-8-Copy-4-17" data-name="iPhone-8-Copy-4">
      <g id="Group-17" data-name="Group">
        <path id="Combined-Shape-17" data-name="Combined-Shape" d="M539,211h18.28a1.78,1.78,0,0,1,1.78,1.78v22.45a1.78,1.78,0,0,1-1.78,1.77H539a1.77,1.77,0,0,1-1.77-1.77V212.78h0A1.78,1.78,0,0,1,539,211Zm-.45,2.66V233h19.18V213.66ZM547,234.47a.45.45,0,1,0,0,.89h3.14a.45.45,0,0,0,0-.89Zm1.44-21.56a.56.56,0,1,0-.56-.56A.56.56,0,0,0,548.45,212.91Z"/>
      </g>
    </g>
  </g>
  <g>
    <text class="cls-2" transform="translate(63.08 328.34)"><tspan class="cls-3"> </tspan><tspan x="4.26" y="0">6</tspan></text>
    <text class="cls-4" transform="translate(207.43 542.12) rotate(-179.88)"><tspan class="cls-3"> </tspan><tspan x="4.26" y="0">6</tspan></text>
    <path d="M70,341.54a5,5,0,0,1-1.64-3.9,5.08,5.08,0,0,1,5-4.73,4.92,4.92,0,0,1,5,4.83,5.24,5.24,0,0,1-1.59,3.8,5,5,0,0,1,1.93-.19,4.84,4.84,0,0,1,3.21,8.17,4.9,4.9,0,0,1-3.31,1.53s-3.52.08-4.84-3a8.35,8.35,0,0,0,1.8,5,9.8,9.8,0,0,0,4.4,2.7l0,.22h-13v-.22A8.75,8.75,0,0,0,71,353.09s1.74-1.3,2-5a4.94,4.94,0,0,1-4.88,3,5.1,5.1,0,0,1-4.52-4.18,5,5,0,0,1,3.18-5.26A5.11,5.11,0,0,1,70,341.54Z"/>
    <path d="M200.19,528.82a4.94,4.94,0,0,1,1.63,3.9,5.08,5.08,0,0,1-5,4.73,4.93,4.93,0,0,1-5-4.84,5.24,5.24,0,0,1,1.59-3.8,5,5,0,0,1-1.93.19,4.84,4.84,0,0,1-3.2-8.17,4.9,4.9,0,0,1,3.31-1.53s3.53-.08,4.84,3a8.37,8.37,0,0,0-1.8-5,9.78,9.78,0,0,0-4.39-2.69l0-.23h13v.22a8.7,8.7,0,0,0-4.22,2.61s-1.74,1.3-2,5a4.94,4.94,0,0,1,4.88-3,5.1,5.1,0,0,1,4.52,4.19,5,5,0,0,1-3.19,5.26A5.11,5.11,0,0,1,200.19,528.82Z"/>
    <g id="Mobile-14" data-name="Mobile">
      <g id="iPhone-8-Copy-4-18" data-name="iPhone-8-Copy-4">
        <g id="Group-18" data-name="Group">
          <path id="Combined-Shape-18" data-name="Combined-Shape" d="M93,386.77h18.29a1.77,1.77,0,0,1,1.77,1.77V411a1.77,1.77,0,0,1-1.77,1.77H93A1.77,1.77,0,0,1,91.26,411V388.54h0A1.77,1.77,0,0,1,93,386.77Zm-.44,2.66v19.35h19.17V389.43ZM101,410.24a.44.44,0,0,0-.44.44.44.44,0,0,0,.44.44h3.15a.44.44,0,0,0,.44-.44.44.44,0,0,0-.44-.44Zm1.44-21.57a.55.55,0,1,0-.55-.55A.55.55,0,0,0,102.44,388.67Z"/>
        </g>
      </g>
    </g>
    <g id="iPhone-8-Copy-4-19" data-name="iPhone-8-Copy-4">
      <g id="Group-19" data-name="Group">
        <path id="Combined-Shape-19" data-name="Combined-Shape" d="M158.85,386.77h18.29a1.77,1.77,0,0,1,1.77,1.77V411a1.77,1.77,0,0,1-1.77,1.77H158.85a1.77,1.77,0,0,1-1.77-1.77V388.54h0a1.77,1.77,0,0,1,1.77-1.77Zm-.44,2.66v19.35h19.17V389.43Zm8.41,20.81a.44.44,0,0,0-.44.44.44.44,0,0,0,.44.44H170a.44.44,0,0,0,.44-.44.44.44,0,0,0-.44-.44Zm1.44-21.57a.55.55,0,1,0-.55-.55A.55.55,0,0,0,168.26,388.67Z"/>
      </g>
    </g>
    <g id="Mobile-15" data-name="Mobile">
      <g id="iPhone-8-Copy-4-20" data-name="iPhone-8-Copy-4">
        <g id="Group-20" data-name="Group">
          <path id="Combined-Shape-20" data-name="Combined-Shape" d="M92.48,425.41h18.29a1.77,1.77,0,0,1,1.77,1.77v22.45a1.77,1.77,0,0,1-1.77,1.77H92.48a1.77,1.77,0,0,1-1.77-1.77V427.18h0a1.77,1.77,0,0,1,1.77-1.77ZM92,428.07v19.35h19.17V428.07Zm8.41,20.81a.44.44,0,0,0-.44.44.44.44,0,0,0,.44.44h3.14a.44.44,0,0,0,.45-.44.45.45,0,0,0-.45-.44Zm1.44-21.57a.55.55,0,0,0,.55-.55.55.55,0,0,0-.55-.55.55.55,0,0,0-.55.55A.54.54,0,0,0,101.89,427.31Z"/>
        </g>
      </g>
    </g>
    <g id="Mobile-16" data-name="Mobile">
      <g id="iPhone-8-Copy-4-21" data-name="iPhone-8-Copy-4">
        <g id="Group-21" data-name="Group">
          <path id="Combined-Shape-21" data-name="Combined-Shape" d="M158.3,425.41h18.29a1.77,1.77,0,0,1,1.77,1.77v22.45a1.77,1.77,0,0,1-1.77,1.77H158.3a1.77,1.77,0,0,1-1.77-1.77V427.18h0a1.77,1.77,0,0,1,1.77-1.77Zm-.44,2.66v19.35H177V428.07Zm8.41,20.81a.44.44,0,0,0-.44.44.43.43,0,0,0,.44.44h3.14a.44.44,0,0,0,.45-.44.45.45,0,0,0-.45-.44Zm1.44-21.57a.55.55,0,0,0,.55-.55.55.55,0,0,0-.55-.55.55.55,0,0,0-.55.55A.54.54,0,0,0,167.71,427.31Z"/>
        </g>
      </g>
    </g>
    <g id="Mobile-17" data-name="Mobile">
      <g id="iPhone-8-Copy-4-22" data-name="iPhone-8-Copy-4">
        <g id="Group-22" data-name="Group">
          <path id="Combined-Shape-22" data-name="Combined-Shape" d="M93,464.05h18.29a1.77,1.77,0,0,1,1.77,1.77v22.45a1.77,1.77,0,0,1-1.77,1.77H93a1.77,1.77,0,0,1-1.77-1.77V465.82h0A1.77,1.77,0,0,1,93,464.05Zm-.44,2.66v19.35h19.17V466.71ZM101,487.52a.45.45,0,0,0,0,.89h3.15a.45.45,0,0,0,0-.89ZM102.44,466a.56.56,0,1,0-.55-.56A.56.56,0,0,0,102.44,466Z"/>
        </g>
      </g>
    </g>
    <g id="iPhone-8-Copy-4-23" data-name="iPhone-8-Copy-4">
      <g id="Group-23" data-name="Group">
        <path id="Combined-Shape-23" data-name="Combined-Shape" d="M158.85,464.05h18.29a1.77,1.77,0,0,1,1.77,1.77v22.45a1.77,1.77,0,0,1-1.77,1.77H158.85a1.77,1.77,0,0,1-1.77-1.77V465.82h0a1.77,1.77,0,0,1,1.77-1.77Zm-.44,2.66v19.35h19.17V466.71Zm8.41,20.81a.45.45,0,0,0,0,.89H170a.45.45,0,0,0,0-.89ZM168.26,466a.56.56,0,1,0-.55-.56A.56.56,0,0,0,168.26,466Z"/>
      </g>
    </g>
  </g>
  <g>
    <text class="cls-2" transform="translate(251.98 328.34)"><tspan class="cls-3"> </tspan><tspan x="4.26" y="0">5</tspan></text>
    <text class="cls-4" transform="translate(396.33 542.12) rotate(-179.88)"><tspan class="cls-3"> </tspan><tspan x="4.26" y="0">5</tspan></text>
    <path d="M258.9,341.54a5,5,0,0,1-1.64-3.9,5.08,5.08,0,0,1,5-4.73,4.92,4.92,0,0,1,5,4.83,5.24,5.24,0,0,1-1.59,3.8,5,5,0,0,1,1.93-.19,4.84,4.84,0,0,1,3.21,8.17,4.9,4.9,0,0,1-3.31,1.53s-3.53.08-4.84-3a8.35,8.35,0,0,0,1.8,5,9.8,9.8,0,0,0,4.4,2.7l-.05.22h-13v-.22a8.76,8.76,0,0,0,4.23-2.61s1.74-1.3,2-5a4.94,4.94,0,0,1-4.88,3,5.09,5.09,0,0,1-4.52-4.18,5,5,0,0,1,3.18-5.26A5.11,5.11,0,0,1,258.9,341.54Z"/>
    <path d="M389.09,528.82a5,5,0,0,1,1.63,3.9,5.08,5.08,0,0,1-5,4.73,4.93,4.93,0,0,1-5-4.84,5.24,5.24,0,0,1,1.59-3.8,5,5,0,0,1-1.93.19,4.84,4.84,0,0,1-3.2-8.17,4.9,4.9,0,0,1,3.31-1.53s3.53-.08,4.84,3a8.37,8.37,0,0,0-1.8-5,9.78,9.78,0,0,0-4.39-2.69l0-.23h13v.22a8.76,8.76,0,0,0-4.23,2.61s-1.74,1.3-2,5a4.94,4.94,0,0,1,4.88-3,5.1,5.1,0,0,1,4.52,4.19,5,5,0,0,1-3.19,5.26A5.11,5.11,0,0,1,389.09,528.82Z"/>
    <g id="Mobile-18" data-name="Mobile">
      <g id="iPhone-8-Copy-4-24" data-name="iPhone-8-Copy-4">
        <g id="Group-24" data-name="Group">
          <path id="Combined-Shape-24" data-name="Combined-Shape" d="M281.32,405.43h18.29a1.77,1.77,0,0,1,1.77,1.77v22.45a1.77,1.77,0,0,1-1.77,1.77H281.32a1.77,1.77,0,0,1-1.77-1.77V407.2h0a1.77,1.77,0,0,1,1.77-1.77Zm-.44,2.65v19.35h19.17V408.08Zm8.41,20.81a.45.45,0,0,0,0,.89h3.15a.45.45,0,0,0,0-.89Zm1.44-21.56a.56.56,0,0,0,0-1.11.56.56,0,0,0,0,1.11Z"/>
        </g>
      </g>
    </g>
    <g id="Mobile-19" data-name="Mobile">
      <g id="iPhone-8-Copy-4-25" data-name="iPhone-8-Copy-4">
        <g id="Group-25" data-name="Group">
          <path id="Combined-Shape-25" data-name="Combined-Shape" d="M347.14,405.43h18.29a1.77,1.77,0,0,1,1.77,1.77v22.45a1.77,1.77,0,0,1-1.77,1.77H347.14a1.77,1.77,0,0,1-1.77-1.77V407.2h0a1.77,1.77,0,0,1,1.77-1.77Zm-.44,2.65v19.35h19.17V408.08Zm8.41,20.81a.45.45,0,0,0,0,.89h3.15a.45.45,0,0,0,0-.89Zm1.44-21.56a.56.56,0,0,0,0-1.11.56.56,0,0,0,0,1.11Z"/>
        </g>
      </g>
    </g>
    <g id="Mobile-20" data-name="Mobile">
      <g id="iPhone-8-Copy-4-26" data-name="iPhone-8-Copy-4">
        <g id="Group-26" data-name="Group">
          <path id="Combined-Shape-26" data-name="Combined-Shape" d="M316.63,425.41h18.29a1.77,1.77,0,0,1,1.77,1.77v22.45a1.77,1.77,0,0,1-1.77,1.77H316.63a1.77,1.77,0,0,1-1.77-1.77V427.18h0a1.77,1.77,0,0,1,1.77-1.77Zm-.45,2.66v19.35h19.18V428.07Zm8.42,20.81a.45.45,0,0,0-.45.44.44.44,0,0,0,.45.44h3.14a.43.43,0,0,0,.44-.44.44.44,0,0,0-.44-.44ZM326,427.31a.55.55,0,0,0,.55-.55.56.56,0,1,0-.55.55Z"/>
        </g>
      </g>
    </g>
    <g id="Mobile-21" data-name="Mobile">
      <g id="iPhone-8-Copy-4-27" data-name="iPhone-8-Copy-4">
        <g id="Group-27" data-name="Group">
          <path id="Combined-Shape-27" data-name="Combined-Shape" d="M281.88,444.07h18.28a1.78,1.78,0,0,1,1.78,1.77v22.45a1.78,1.78,0,0,1-1.78,1.77H281.88a1.78,1.78,0,0,1-1.78-1.77V445.84h0a1.78,1.78,0,0,1,1.78-1.77Zm-.45,2.65v19.35h19.18V446.72Zm8.42,20.82a.44.44,0,0,0-.45.44.45.45,0,0,0,.45.44H293a.44.44,0,0,0,.44-.44.44.44,0,0,0-.44-.44ZM291.29,446a.56.56,0,1,0-.56-.55A.55.55,0,0,0,291.29,446Z"/>
        </g>
      </g>
    </g>
    <g id="iPhone-8-Copy-4-28" data-name="iPhone-8-Copy-4">
      <g id="Group-28" data-name="Group">
        <path id="Combined-Shape-28" data-name="Combined-Shape" d="M347.7,444.07H366a1.77,1.77,0,0,1,1.77,1.77v22.45a1.77,1.77,0,0,1-1.77,1.77H347.7a1.78,1.78,0,0,1-1.78-1.77V445.84h0a1.78,1.78,0,0,1,1.78-1.77Zm-.45,2.65v19.35h19.18V446.72Zm8.42,20.82a.44.44,0,0,0-.45.44.45.45,0,0,0,.45.44h3.14a.44.44,0,0,0,.44-.44.44.44,0,0,0-.44-.44ZM357.11,446a.56.56,0,1,0-.56-.55A.55.55,0,0,0,357.11,446Z"/>
      </g>
    </g>
  </g>
  <g>
    <text class="cls-2" transform="translate(632.35 56.84)"><tspan class="cls-3"> </tspan><tspan x="4.26" y="0">7</tspan></text>
    <text class="cls-4" transform="translate(776.69 270.63) rotate(-179.88)"><tspan class="cls-3"> </tspan><tspan x="4.26" y="0">7</tspan></text>
    <path d="M639.27,70.05a5,5,0,0,1-1.64-3.91,5.07,5.07,0,0,1,5-4.73,4.93,4.93,0,0,1,5,4.84,5.24,5.24,0,0,1-1.59,3.8,5,5,0,0,1,1.93-.19,4.65,4.65,0,0,1,4.42,3.75A4.71,4.71,0,0,1,651.11,78a4.91,4.91,0,0,1-3.31,1.52s-3.53.09-4.84-3a8.37,8.37,0,0,0,1.8,5,9.78,9.78,0,0,0,4.39,2.69l0,.23h-13V84.2a8.76,8.76,0,0,0,4.23-2.61s1.74-1.29,2-5a4.94,4.94,0,0,1-4.88,3,5.09,5.09,0,0,1-4.52-4.18,5,5,0,0,1,3.18-5.26A5.14,5.14,0,0,1,639.27,70.05Z"/>
    <path d="M769.46,257.32a5,5,0,0,1,1.63,3.91,5.06,5.06,0,0,1-5,4.72,4.92,4.92,0,0,1-5-4.84,5.21,5.21,0,0,1,1.59-3.79,5.26,5.26,0,0,1-1.93.19,4.65,4.65,0,0,1-4.41-3.76,4.71,4.71,0,0,1,1.21-4.42,4.91,4.91,0,0,1,3.31-1.52s3.52-.08,4.84,3a8.35,8.35,0,0,0-1.8-5,9.79,9.79,0,0,0-4.39-2.7l0-.23h13v.23a8.67,8.67,0,0,0-4.23,2.61s-1.74,1.29-2,5a4.92,4.92,0,0,1,4.88-3,5.1,5.1,0,0,1,4.52,4.18,5,5,0,0,1-3.19,5.26A5.11,5.11,0,0,1,769.46,257.32Z"/>
    <g id="Mobile-22" data-name="Mobile">
      <g id="iPhone-8-Copy-4-29" data-name="iPhone-8-Copy-4">
        <g id="Group-29" data-name="Group">
          <path id="Combined-Shape-29" data-name="Combined-Shape" d="M662.24,114.61h18.29a1.77,1.77,0,0,1,1.77,1.77v22.45a1.77,1.77,0,0,1-1.77,1.77H662.24a1.77,1.77,0,0,1-1.77-1.77V116.38h0a1.77,1.77,0,0,1,1.77-1.77Zm-.44,2.66v19.35H681V117.27Zm8.41,20.81a.44.44,0,0,0,0,.88h3.15a.44.44,0,0,0,0-.88Zm1.44-21.57a.56.56,0,0,0,.56-.55.56.56,0,1,0-.56.55Z"/>
        </g>
      </g>
    </g>
    <g id="iPhone-8-Copy-4-30" data-name="iPhone-8-Copy-4">
      <g id="Group-30" data-name="Group">
        <path id="Combined-Shape-30" data-name="Combined-Shape" d="M728.06,114.61h18.29a1.77,1.77,0,0,1,1.77,1.77v22.45a1.77,1.77,0,0,1-1.77,1.77H728.06a1.77,1.77,0,0,1-1.77-1.77V116.38h0a1.77,1.77,0,0,1,1.77-1.77Zm-.44,2.66v19.35H746.8V117.27ZM736,138.08a.44.44,0,1,0,0,.88h3.15a.44.44,0,1,0,0-.88Zm1.44-21.57A.56.56,0,0,0,738,116a.56.56,0,1,0-.56.55Z"/>
      </g>
    </g>
    <g id="Mobile-23" data-name="Mobile">
      <g id="iPhone-8-Copy-4-31" data-name="iPhone-8-Copy-4">
        <g id="Group-31" data-name="Group">
          <path id="Combined-Shape-31" data-name="Combined-Shape" d="M661.69,153.25H680a1.77,1.77,0,0,1,1.77,1.77v22.45a1.77,1.77,0,0,1-1.77,1.77H661.69a1.77,1.77,0,0,1-1.77-1.77V155h0a1.77,1.77,0,0,1,1.77-1.77Zm-.44,2.66v19.35h19.17V155.91Zm8.41,20.81a.44.44,0,0,0-.44.44.44.44,0,0,0,.44.44h3.14a.44.44,0,0,0,.45-.44.45.45,0,0,0-.45-.44Zm1.44-21.57a.55.55,0,1,0-.55-.55A.54.54,0,0,0,671.1,155.15Z"/>
        </g>
      </g>
    </g>
    <g id="Mobile-24" data-name="Mobile">
      <g id="iPhone-8-Copy-4-32" data-name="iPhone-8-Copy-4">
        <g id="Group-32" data-name="Group">
          <path id="Combined-Shape-32" data-name="Combined-Shape" d="M727.51,153.25H745.8a1.77,1.77,0,0,1,1.77,1.77v22.45a1.77,1.77,0,0,1-1.77,1.77H727.51a1.77,1.77,0,0,1-1.77-1.77V155h0a1.77,1.77,0,0,1,1.77-1.77Zm-.44,2.66v19.35h19.17V155.91Zm8.41,20.81a.44.44,0,0,0-.44.44.44.44,0,0,0,.44.44h3.14a.44.44,0,0,0,.45-.44.45.45,0,0,0-.45-.44Zm1.44-21.57a.55.55,0,1,0-.55-.55A.54.54,0,0,0,736.92,155.15Z"/>
        </g>
      </g>
    </g>
    <g id="Mobile-25" data-name="Mobile">
      <g id="iPhone-8-Copy-4-33" data-name="iPhone-8-Copy-4">
        <g id="Group-33" data-name="Group">
          <path id="Combined-Shape-33" data-name="Combined-Shape" d="M662.24,191.89h18.29a1.77,1.77,0,0,1,1.77,1.77v22.45a1.77,1.77,0,0,1-1.77,1.77H662.24a1.77,1.77,0,0,1-1.77-1.77V193.66h0a1.77,1.77,0,0,1,1.77-1.77Zm-.44,2.66V213.9H681V194.55Zm8.41,20.81a.45.45,0,0,0,0,.89h3.15a.45.45,0,0,0,0-.89Zm1.44-21.56a.56.56,0,1,0-.55-.56A.56.56,0,0,0,671.65,193.8Z"/>
        </g>
      </g>
    </g>
    <g id="iPhone-8-Copy-4-34" data-name="iPhone-8-Copy-4">
      <g id="Group-34" data-name="Group">
        <path id="Combined-Shape-34" data-name="Combined-Shape" d="M728.06,191.89h18.29a1.77,1.77,0,0,1,1.77,1.77v22.45a1.77,1.77,0,0,1-1.77,1.77H728.06a1.77,1.77,0,0,1-1.77-1.77V193.66h0a1.77,1.77,0,0,1,1.77-1.77Zm-.44,2.66V213.9H746.8V194.55ZM736,215.36a.45.45,0,0,0,0,.89h3.15a.45.45,0,0,0,0-.89Zm1.44-21.56a.56.56,0,1,0-.55-.56A.56.56,0,0,0,737.47,193.8Z"/>
      </g>
    </g>
    <g id="iPhone-8-Copy-4-35" data-name="iPhone-8-Copy-4">
      <g id="Group-35" data-name="Group">
        <path id="Combined-Shape-35" data-name="Combined-Shape" d="M694.88,152.59h18.29a1.77,1.77,0,0,1,1.77,1.77v22.45a1.77,1.77,0,0,1-1.77,1.77H694.88a1.77,1.77,0,0,1-1.77-1.77V154.36h0a1.77,1.77,0,0,1,1.77-1.77Zm-.45,2.65v19.35h19.18V155.24Zm8.42,20.81a.45.45,0,1,0,0,.89H706a.45.45,0,0,0,0-.89Zm1.44-21.56a.56.56,0,1,0-.56-.55A.55.55,0,0,0,704.29,154.49Z"/>
      </g>
    </g>
  </g>
  <g>
    <text class="cls-2" transform="translate(62.77 53.2)"><tspan class="cls-3"> </tspan><tspan x="4.26" y="0">10</tspan></text>
    <text class="cls-4" transform="translate(212.03 266.93) rotate(-179.88)"><tspan class="cls-3"> </tspan><tspan x="4.26" y="0">10</tspan></text>
    <path d="M72.68,66.4a5,5,0,0,1-1.63-3.91,5.07,5.07,0,0,1,5-4.73,4.94,4.94,0,0,1,5,4.84,5.24,5.24,0,0,1-1.59,3.8,5,5,0,0,1,1.93-.19A4.64,4.64,0,0,1,85.73,70a4.71,4.71,0,0,1-1.21,4.42,4.83,4.83,0,0,1-3.31,1.52s-3.52.09-4.84-3a8.34,8.34,0,0,0,1.81,5,9.78,9.78,0,0,0,4.39,2.69l0,.23h-13v-.23a8.61,8.61,0,0,0,4.22-2.61s1.74-1.29,2-5a5,5,0,0,1-4.88,3A5.09,5.09,0,0,1,66.3,71.7a5,5,0,0,1,3.18-5.26A5.11,5.11,0,0,1,72.68,66.4Z"/>
    <path d="M202.87,253.67a5,5,0,0,1,1.63,3.91,5.06,5.06,0,0,1-4.95,4.72,4.93,4.93,0,0,1-5-4.84,5.25,5.25,0,0,1,1.6-3.79,5.26,5.26,0,0,1-1.93.19,4.66,4.66,0,0,1-4.42-3.76,4.73,4.73,0,0,1,1.22-4.42,4.88,4.88,0,0,1,3.31-1.52s3.52-.08,4.83,3a8.3,8.3,0,0,0-1.8-5,9.74,9.74,0,0,0-4.39-2.7l0-.23h13v.23a8.66,8.66,0,0,0-4.22,2.61s-1.74,1.29-2,5a4.94,4.94,0,0,1,4.89-3,5.09,5.09,0,0,1,4.51,4.18,5,5,0,0,1-3.18,5.26A5.15,5.15,0,0,1,202.87,253.67Z"/>
    <g id="Mobile-26" data-name="Mobile">
      <g id="iPhone-8-Copy-4-36" data-name="iPhone-8-Copy-4">
        <g id="Group-36" data-name="Group">
          <path id="Combined-Shape-36" data-name="Combined-Shape" d="M96,79h18.29a1.77,1.77,0,0,1,1.77,1.77v22.45a1.77,1.77,0,0,1-1.77,1.77H96a1.77,1.77,0,0,1-1.77-1.77V80.73h0A1.77,1.77,0,0,1,96,79Zm-.44,2.65V101h19.17V81.61ZM104,102.43a.44.44,0,1,0,0,.88h3.15a.44.44,0,1,0,0-.88Zm1.44-21.57a.56.56,0,1,0-.55-.55A.56.56,0,0,0,105.4,80.86Z"/>
        </g>
      </g>
    </g>
    <g id="Mobile-27" data-name="Mobile">
      <g id="iPhone-8-Copy-4-37" data-name="iPhone-8-Copy-4">
        <g id="Group-37" data-name="Group">
          <path id="Combined-Shape-37" data-name="Combined-Shape" d="M161.81,79H180.1a1.77,1.77,0,0,1,1.77,1.77v22.45A1.77,1.77,0,0,1,180.1,105H161.81a1.77,1.77,0,0,1-1.77-1.77V80.73h0A1.77,1.77,0,0,1,161.81,79Zm-.44,2.65V101h19.17V81.61Zm8.41,20.82a.44.44,0,1,0,0,.88h3.15a.44.44,0,0,0,0-.88Zm1.44-21.57a.56.56,0,0,0,0-1.11.56.56,0,0,0,0,1.11Z"/>
        </g>
      </g>
    </g>
    <g id="Mobile-28" data-name="Mobile">
      <g id="iPhone-8-Copy-4-38" data-name="iPhone-8-Copy-4">
        <g id="Group-38" data-name="Group">
          <path id="Combined-Shape-38" data-name="Combined-Shape" d="M96.28,130.94h18.29a1.78,1.78,0,0,1,1.77,1.78v22.45a1.77,1.77,0,0,1-1.77,1.77H96.28a1.77,1.77,0,0,1-1.77-1.77V132.72h0a1.78,1.78,0,0,1,1.77-1.78Zm-.44,2.66V153H115V133.6Zm8.41,20.81a.45.45,0,0,0,0,.89h3.14a.45.45,0,1,0,0-.89Zm1.44-21.56a.56.56,0,1,0-.55-.56A.55.55,0,0,0,105.69,132.85Z"/>
        </g>
      </g>
    </g>
    <g id="Mobile-29" data-name="Mobile">
      <g id="iPhone-8-Copy-4-39" data-name="iPhone-8-Copy-4">
        <g id="Group-39" data-name="Group">
          <path id="Combined-Shape-39" data-name="Combined-Shape" d="M162.1,130.94h18.29a1.78,1.78,0,0,1,1.77,1.78v22.45a1.77,1.77,0,0,1-1.77,1.77H162.1a1.77,1.77,0,0,1-1.77-1.77V132.72h0a1.78,1.78,0,0,1,1.77-1.78Zm-.44,2.66V153h19.17V133.6Zm8.41,20.81a.45.45,0,0,0,0,.89h3.14a.45.45,0,1,0,0-.89Zm1.44-21.56a.56.56,0,0,0,0-1.11.56.56,0,0,0,0,1.11Z"/>
        </g>
      </g>
    </g>
    <g id="Mobile-30" data-name="Mobile">
      <g id="iPhone-8-Copy-4-40" data-name="iPhone-8-Copy-4">
        <g id="Group-40" data-name="Group">
          <path id="Combined-Shape-40" data-name="Combined-Shape" d="M129.82,105h18.29a1.77,1.77,0,0,1,1.77,1.77v22.45a1.77,1.77,0,0,1-1.77,1.77H129.82a1.77,1.77,0,0,1-1.77-1.77V106.72h0a1.77,1.77,0,0,1,1.77-1.77Zm-.44,2.66V127h19.17V107.61Zm8.41,20.81a.45.45,0,0,0,0,.89h3.14a.45.45,0,1,0,0-.89Zm1.44-21.56a.56.56,0,1,0-.55-.56A.55.55,0,0,0,139.23,106.86Z"/>
        </g>
      </g>
    </g>
    <g id="Mobile-31" data-name="Mobile">
      <g id="iPhone-8-Copy-4-41" data-name="iPhone-8-Copy-4">
        <g id="Group-41" data-name="Group">
          <path id="Combined-Shape-41" data-name="Combined-Shape" d="M96.83,169.59h18.29a1.77,1.77,0,0,1,1.77,1.77v22.45a1.77,1.77,0,0,1-1.77,1.77H96.83a1.77,1.77,0,0,1-1.77-1.77V171.36h0a1.77,1.77,0,0,1,1.77-1.77Zm-.44,2.65v19.35h19.17V172.24Zm8.41,20.81a.45.45,0,0,0,0,.89H108a.45.45,0,0,0,0-.89Zm1.44-21.56a.56.56,0,1,0-.55-.55A.56.56,0,0,0,106.24,171.49Z"/>
        </g>
      </g>
    </g>
    <g id="iPhone-8-Copy-4-42" data-name="iPhone-8-Copy-4">
      <g id="Group-42" data-name="Group">
        <path id="Combined-Shape-42" data-name="Combined-Shape" d="M162.65,169.59h18.29a1.77,1.77,0,0,1,1.77,1.77v22.45a1.77,1.77,0,0,1-1.77,1.77H162.65a1.77,1.77,0,0,1-1.77-1.77V171.36h0a1.77,1.77,0,0,1,1.77-1.77Zm-.44,2.65v19.35h19.17V172.24Zm8.41,20.81a.45.45,0,0,0,0,.89h3.15a.45.45,0,0,0,0-.89Zm1.44-21.56a.56.56,0,1,0-.55-.55A.56.56,0,0,0,172.06,171.49Z"/>
      </g>
    </g>
    <g>
      <g id="Mobile-32" data-name="Mobile">
        <g id="iPhone-8-Copy-4-43" data-name="iPhone-8-Copy-4">
          <g id="Group-43" data-name="Group">
            <path id="Combined-Shape-43" data-name="Combined-Shape" d="M97.12,221.57h18.29a1.77,1.77,0,0,1,1.77,1.77v22.45a1.78,1.78,0,0,1-1.77,1.78H97.12a1.78,1.78,0,0,1-1.77-1.78V223.34h0a1.77,1.77,0,0,1,1.77-1.77Zm-.44,2.66v19.35h19.17V224.23ZM105.09,245a.45.45,0,0,0,0,.89h3.15a.45.45,0,0,0,0-.89Zm1.44-21.56a.56.56,0,1,0-.55-.56A.56.56,0,0,0,106.53,223.48Z"/>
          </g>
        </g>
      </g>
      <g id="Mobile-33" data-name="Mobile">
        <g id="iPhone-8-Copy-4-44" data-name="iPhone-8-Copy-4">
          <g id="Group-44" data-name="Group">
            <path id="Combined-Shape-44" data-name="Combined-Shape" d="M162.94,221.57h18.29a1.77,1.77,0,0,1,1.77,1.77v22.45a1.78,1.78,0,0,1-1.77,1.78H162.94a1.78,1.78,0,0,1-1.77-1.78V223.34h0a1.77,1.77,0,0,1,1.77-1.77Zm-.44,2.66v19.35h19.17V224.23ZM170.91,245a.45.45,0,0,0,0,.89h3.15a.45.45,0,0,0,0-.89Zm1.44-21.56a.56.56,0,1,0-.55-.56A.56.56,0,0,0,172.35,223.48Z"/>
          </g>
        </g>
      </g>
    </g>
    <g id="Mobile-34" data-name="Mobile">
      <g id="iPhone-8-Copy-4-45" data-name="iPhone-8-Copy-4">
        <g id="Group-45" data-name="Group">
          <path id="Combined-Shape-45" data-name="Combined-Shape" d="M130.66,195.58H149a1.77,1.77,0,0,1,1.77,1.77V219.8a1.77,1.77,0,0,1-1.77,1.77H130.66a1.77,1.77,0,0,1-1.77-1.77V197.35h0a1.77,1.77,0,0,1,1.77-1.77Zm-.44,2.66v19.35h19.17V198.24Zm8.41,20.81a.44.44,0,0,0-.44.44.44.44,0,0,0,.44.44h3.15a.44.44,0,0,0,.44-.44.44.44,0,0,0-.44-.44Zm1.44-21.57a.55.55,0,1,0-.55-.55A.55.55,0,0,0,140.07,197.48Z"/>
        </g>
      </g>
    </g>
  </g>
</svg>
