<?xml version="1.0" encoding="UTF-8"?>
<svg width="920px" height="253px" viewBox="0 0 920 253" version="1.1" xmlns="http://www.w3.org/2000/svg" xmlns:xlink="http://www.w3.org/1999/xlink">
    <!-- Generator: Sketch 46.2 (44496) - http://www.bohemiancoding.com/sketch -->
    <title>Yndlings_Logo</title>
    <desc>Created with Sketch.</desc>
    <defs></defs>
    <g id="Page-1" stroke="none" stroke-width="1" fill="none" fill-rule="evenodd">
        <g id="Yndlings_Logo" fill-rule="nonzero">
            <path d="M563,17.2 C562.8,6.8 548.9,2.1 538,17.8 C538,17.8 543.4,4.4 527.7,1 C508.5,-3.2 514.5,24.8 518.9,57.4 C518.9,57.4 563.3,36.6 563,17.2 Z" id="Shape" fill="#E41B49"></path>
            <path d="M78,120.4 L70.6,181.8 L92.2,184.5 C92.2,184.5 92.2,186.6 92,189.1 C91.7,190.8 91.3,193.4 91.3,193.4 C91.3,193.4 63,193.2 54.1,193.2 C45,193.2 18.6,193.4 18.6,193.4 C18.6,193.4 18.3,190.8 18.6,189.1 C18.8,186.7 19.6,184.5 19.6,184.5 L40.2,182.1 L47.4,122.8 L13.8,45.3 L0.1,42.4 C0.1,42.4 0.1,41 0.3,38.8 C0.6,36.9 1.3,33.8 1.3,33.8 C1.3,33.8 22.4,34 31.3,34 C40.2,34 63.9,33.8 63.9,33.8 C63.9,33.8 63.9,36.7 63.7,38.8 C63.4,40.9 63,42.4 63,42.4 L46.7,45 L74.5,108.3 L114.3,47.4 L94.1,42.1 C94.1,42.1 94.1,40.7 94.4,38.7 C94.6,35.6 95.4,33.4 95.4,33.4 C95.4,33.4 111.9,33.9 121.1,33.9 C129.7,33.9 144.6,33.7 144.6,33.7 C144.6,33.7 144.6,36.3 144.4,38.7 C144.2,40.6 143.9,41.8 143.9,41.8 L126.6,47.8 L78,120.4 Z" id="Shape" fill="#082846"></path>
            <path d="M230.9,71.3 C241,71.3 249.4,79.4 249.4,90.3 C249.4,93.2 246.5,110.7 233.1,178.1 C232.6,181 233.8,181.9 236,181.9 C241.5,181.9 249.4,171.8 252.8,166.8 C255.2,167.3 258.3,169.2 259.5,171.4 C248.7,186 236.2,195.4 223.3,195.4 C204.6,195.4 203.1,185.3 204.1,178.9 C207.2,162.3 216.3,116.5 219.2,100 C221.4,89.2 222.1,85.4 218.5,85.1 C206.8,85.1 175.6,130.2 172,153.5 L165.7,192.1 C159.5,193.5 152,193.5 146.5,193.5 L136.2,193.5 L148.2,129.9 C151.1,114.5 152,109.3 153.5,99.2 C154.5,91.5 155.7,84.8 151.6,84.8 C148,84.8 142,86.9 135.3,91.3 C133.1,88.7 132.4,87.5 131.7,84.6 C138.2,79.8 157.4,71.2 172.7,71.2 C178,71.2 184.7,73.6 184.7,80.8 C184.7,83.7 179.9,101.2 174.1,127.6 C188.6,94.8 209.5,71.3 230.9,71.3 Z" id="Shape" fill="#082846"></path>
            <path d="M347.5,151.9 C337.2,173.5 321.4,195.3 301,195.3 C273.6,195.3 271.7,168.4 271.7,153.1 C271.7,118.5 297.4,71 334.3,71 C342.7,71 352.1,75.1 359.2,81.3 C359.7,77.7 366.2,44.8 367.1,40.3 L369.5,27.1 L348.9,26.1 C347.9,23.7 347.9,20.1 348.2,18.9 L402.4,9.3 C386.3,91.4 381.8,115.4 369.8,177.7 C369.3,180.8 370.8,181.8 372.9,181.8 C379.1,181.8 387.5,171.7 390.9,166.4 C393.5,167.1 396.4,169.1 397.9,171 C386.9,185.9 374.4,195.2 361.4,195.2 C342.7,195.2 342.2,184.9 343.2,178.7 C344,173.5 346.6,157.2 347.5,151.9 Z M349.2,129.8 L357.4,90.7 C349.7,82.8 341.6,80.9 335.8,80.9 C311.6,80.9 303.4,136.6 303.4,166.3 C303.4,176.9 304.6,185.3 308.9,185.3 C318.8,185.2 341.3,153.3 349.2,129.8 Z" id="Shape" fill="#082846"></path>
            <path d="M439.8,177.8 C439.1,180.9 440.5,181.9 442.4,181.9 C448.2,181.9 456.1,171.8 459.2,166.5 C461.8,167.2 464.7,169.2 466.2,171.1 C455.2,186 442.7,195.3 429.7,195.3 C411,195.3 409.6,185 410.7,178.8 L436.6,40.4 L438.8,27.2 L418.2,26.2 C417.2,23.8 417.2,20.2 417.5,19 L471.7,9.4 L439.8,177.8 Z" id="Shape" fill="#082846"></path>
            <path d="M533.4,81.6 C533.1,85.4 528.6,112.3 515.4,177.8 C514.9,180.9 516.1,181.6 518.3,181.6 C523.8,181.6 531.7,171.8 535.1,166.5 C537.5,167 540.6,169.2 542.1,171.1 C531.1,185.7 518.6,195.3 505.6,195.3 C486.9,195.3 485.4,185 486.4,178.8 C489.5,162 498.9,116.2 502,99.1 C503.4,91.4 504.4,85 500.3,85 C496.7,85 490.7,87.1 484,91.2 C481.8,88.6 481.1,87.4 480.4,84.7 C486.9,79.9 506.3,71 521.2,71 C527.6,71 533.6,74.6 533.4,81.6 Z" id="Shape" fill="#082846"></path>
            <path d="M656.7,71.3 C666.8,71.3 675.2,79.4 675.2,90.3 C675.2,93.2 672.3,110.7 658.9,178.1 C658.4,181 659.6,181.9 661.8,181.9 C667.3,181.9 675.2,171.8 678.6,166.8 C681,167.3 684.1,169.2 685.3,171.4 C674.5,186 662,195.4 649.1,195.4 C630.4,195.4 628.9,185.3 629.9,178.9 C633,162.3 642.1,116.5 645,100 C647.2,89.2 647.9,85.4 644.3,85.1 C632.6,85.1 601.4,130.2 597.8,153.5 L591.5,192.1 C585.3,193.5 577.8,193.5 572.3,193.5 L562,193.5 L574,129.9 C576.9,114.5 577.8,109.3 579.3,99.2 C580.3,91.5 581.5,84.8 577.4,84.8 C573.8,84.8 567.8,86.9 561.1,91.3 C558.9,88.7 558.2,87.5 557.5,84.6 C564,79.8 583.2,71.2 598.5,71.2 C603.8,71.2 610.5,73.6 610.5,80.8 C610.5,83.7 605.7,101.2 599.9,127.6 C614.5,94.8 635.4,71.3 656.7,71.3 Z" id="Shape" fill="#082846"></path>
            <path d="M793.5,72.9 C800.9,71 809.3,70 818.4,70 C808.6,120.6 807.1,128.8 796.3,186.1 C790.1,223.5 765.1,252.3 727.5,252.3 C705.2,252.3 685.3,243.4 685.3,227.8 C685.3,216.8 695.6,203.6 713.1,202.1 C713.6,212.7 709.7,228.7 703.7,239.1 C711.6,242 721.2,243.9 727.7,243.9 C748.3,243.9 759.8,231.4 765.1,204.1 L775.2,151.8 C766.1,173.2 747.4,195.2 729.6,195.2 C702.2,195.2 699.4,169.1 699.4,153.7 C699.4,119.1 722.2,70.9 762,70.9 C770.6,70.9 779.8,75.2 788.2,82.2 L793.5,72.9 Z M776.9,129.8 L785.3,91.2 C777.6,83.1 769.2,81.1 763.5,81.1 C737.6,81.1 731.1,136.3 731.1,166.3 C731.1,177.3 732.5,185.3 736.8,185.3 C747.4,185.2 769.5,152.4 776.9,129.8 Z" id="Shape" fill="#082846"></path>
            <path d="M885.4,170.6 C885.4,143.5 840.1,135.3 840.1,107.8 C840.1,81.2 865.5,71.1 886.7,71.1 C903,71.1 920,81.9 920,92.5 C920,104 911.4,111.5 897.7,111.5 C897.2,100.9 898.2,93.7 904.2,83.4 C899.6,80.8 892.7,79.1 886.2,79.1 C874.7,79.1 865.6,82.9 865.6,93.7 C865.6,119.6 912.1,127 912.1,157.8 C912.1,181.6 887.4,196.2 861.2,196.2 C845.6,196.2 826.6,186.1 826.6,174.8 C826.6,163.3 835.5,156.1 849.2,155.8 C849.7,166.6 847.5,173.6 841.8,183.9 C846.1,186.5 855,188.5 861.2,188.5 C879.4,188.3 885.4,179.7 885.4,170.6 Z" id="Shape" fill="#082846"></path>
        </g>
    </g>
</svg>
